<?xml version="1.0" encoding="utf-8" standalone="no"?>
<!DOCTYPE svg PUBLIC "-//W3C//DTD SVG 1.1//EN"
  "http://www.w3.org/Graphics/SVG/1.1/DTD/svg11.dtd">
<svg xmlns:xlink="http://www.w3.org/1999/xlink" width="620.072188pt" height="453.817812pt" viewBox="0 0 620.072188 453.817812" xmlns="http://www.w3.org/2000/svg" version="1.1">
 <metadata>
  <rdf:RDF xmlns:dc="http://purl.org/dc/elements/1.1/" xmlns:cc="http://creativecommons.org/ns#" xmlns:rdf="http://www.w3.org/1999/02/22-rdf-syntax-ns#">
   <cc:Work>
    <dc:type rdf:resource="http://purl.org/dc/dcmitype/StillImage"/>
    <dc:date>2022-12-02T07:49:40.518601</dc:date>
    <dc:format>image/svg+xml</dc:format>
    <dc:creator>
     <cc:Agent>
      <dc:title>Matplotlib v3.5.2, https://matplotlib.org/</dc:title>
     </cc:Agent>
    </dc:creator>
   </cc:Work>
  </rdf:RDF>
 </metadata>
 <defs>
  <style type="text/css">*{stroke-linejoin: round; stroke-linecap: butt}</style>
 </defs>
 <g id="figure_1">
  <g id="patch_1">
   <path d="M 0 453.817812 
L 620.072188 453.817812 
L 620.072188 0 
L 0 0 
L 0 453.817812 
z
" style="fill: none"/>
  </g>
  <g id="axes_1">
   <g id="patch_2">
    <path d="M 54.872188 409.275 
L 612.872187 409.275 
L 612.872187 28.755 
L 54.872188 28.755 
L 54.872188 409.275 
z
" style="fill: none"/>
   </g>
   <g id="matplotlib.axis_1">
    <g id="xtick_1">
     <g id="line2d_1">
      <defs>
       <path id="maa28442f75" d="M 0 0 
L 0 6 
" style="stroke: #000000; stroke-width: 1.25"/>
      </defs>
      <g>
       <use xlink:href="#maa28442f75" x="419.718341" y="409.275" style="stroke: #000000; stroke-width: 1.25"/>
      </g>
     </g>
     <g id="text_1">
      <!-- 2017 -->
      <g transform="translate(407.718341 427.44125)scale(0.12 -0.12)">
       <defs>
        <path id="CMUSansSerif-32" d="M 263 3291 
Q 575 4341 1503 4341 
Q 2119 4341 2497 3936 
Q 2875 3531 2875 2969 
Q 2875 2744 2814 2559 
Q 2753 2375 2576 2167 
Q 2400 1959 2265 1831 
Q 2131 1703 1806 1416 
Q 1634 1263 775 447 
L 2875 453 
L 2875 0 
L 313 0 
L 313 416 
L 1147 1241 
Q 1197 1291 1367 1445 
Q 1538 1600 1594 1654 
Q 1650 1709 1787 1846 
Q 1925 1984 1976 2057 
Q 2028 2131 2122 2256 
Q 2216 2381 2247 2476 
Q 2278 2572 2311 2697 
Q 2344 2822 2344 2950 
Q 2344 3359 2084 3640 
Q 1825 3922 1422 3922 
Q 1203 3922 1033 3823 
Q 863 3725 777 3581 
Q 691 3438 636 3294 
Q 581 3150 563 3047 
L 538 2938 
L 263 3291 
z
" transform="scale(0.015625)"/>
        <path id="CMUSansSerif-30" d="M 263 1984 
L 263 2094 
Q 263 2344 272 2528 
Q 281 2713 332 3017 
Q 384 3322 473 3536 
Q 563 3750 748 3958 
Q 934 4166 1191 4263 
Q 1388 4341 1594 4341 
Q 1772 4341 1939 4292 
Q 2106 4244 2292 4100 
Q 2478 3956 2615 3731 
Q 2753 3506 2842 3112 
Q 2931 2719 2931 2209 
L 2931 2075 
Q 2931 1831 2922 1639 
Q 2913 1447 2861 1151 
Q 2809 856 2717 642 
Q 2625 428 2439 226 
Q 2253 25 1997 -72 
Q 1784 -144 1594 -141 
Q 1416 -141 1252 -95 
Q 1088 -50 898 87 
Q 709 225 575 448 
Q 441 672 352 1069 
Q 263 1466 263 1984 
z
M 763 1984 
Q 763 1556 820 1232 
Q 878 909 961 726 
Q 1044 544 1162 431 
Q 1281 319 1382 284 
Q 1484 250 1600 250 
Q 1747 250 1875 317 
Q 2003 384 2137 553 
Q 2272 722 2351 1090 
Q 2431 1459 2431 1991 
L 2431 2369 
Q 2431 2856 2351 3187 
Q 2272 3519 2134 3673 
Q 1997 3828 1869 3886 
Q 1741 3944 1594 3944 
Q 1447 3944 1319 3886 
Q 1191 3828 1056 3673 
Q 922 3519 842 3183 
Q 763 2847 763 2369 
L 763 1984 
z
" transform="scale(0.015625)"/>
        <path id="CMUSansSerif-31" d="M 575 3547 
L 575 3916 
Q 1344 3916 1797 4341 
L 1919 4341 
L 1919 378 
L 2719 378 
L 2719 0 
L 609 0 
L 609 378 
L 1409 378 
L 1409 3694 
Q 1028 3547 575 3547 
z
" transform="scale(0.015625)"/>
        <path id="CMUSansSerif-37" d="M 263 3744 
L 263 4197 
L 2925 4191 
L 2925 3775 
Q 2247 2994 1878 1989 
Q 1509 984 1509 -72 
L 966 -72 
Q 966 941 1337 1923 
Q 1709 2906 2491 3744 
L 263 3744 
z
" transform="scale(0.015625)"/>
       </defs>
       <use xlink:href="#CMUSansSerif-32"/>
       <use xlink:href="#CMUSansSerif-30" x="50"/>
       <use xlink:href="#CMUSansSerif-31" x="100"/>
       <use xlink:href="#CMUSansSerif-37" x="150"/>
      </g>
     </g>
    </g>
    <g id="xtick_2">
     <g id="line2d_2">
      <g>
       <use xlink:href="#maa28442f75" x="376.795264" y="409.275" style="stroke: #000000; stroke-width: 1.25"/>
      </g>
     </g>
     <g id="text_2">
      <!-- 2016 -->
      <g transform="translate(364.795264 427.44125)scale(0.12 -0.12)">
       <defs>
        <path id="CMUSansSerif-36" d="M 269 2069 
Q 269 3028 755 3684 
Q 1241 4341 1978 4341 
Q 2309 4341 2663 4213 
L 2663 3828 
Q 2297 3963 1978 3963 
Q 1606 3963 1331 3703 
Q 1056 3444 940 3114 
Q 825 2784 806 2431 
Q 1003 2681 1292 2818 
Q 1581 2956 1888 2956 
Q 2309 2956 2584 2566 
Q 2925 2091 2925 1434 
Q 2925 725 2484 256 
Q 2113 -141 1613 -141 
Q 1434 -141 1264 -89 
Q 1094 -38 908 109 
Q 722 256 584 489 
Q 447 722 358 1130 
Q 269 1538 269 2069 
z
M 813 1409 
Q 934 256 1606 256 
Q 1931 256 2120 476 
Q 2309 697 2369 966 
Q 2400 1106 2400 1394 
Q 2400 1950 2222 2234 
Q 2009 2566 1638 2566 
Q 1278 2566 1048 2275 
Q 819 1984 819 1581 
Q 819 1525 831 1409 
L 813 1409 
z
" transform="scale(0.015625)"/>
       </defs>
       <use xlink:href="#CMUSansSerif-32"/>
       <use xlink:href="#CMUSansSerif-30" x="50"/>
       <use xlink:href="#CMUSansSerif-31" x="100"/>
       <use xlink:href="#CMUSansSerif-36" x="150"/>
      </g>
     </g>
    </g>
    <g id="xtick_3">
     <g id="line2d_3">
      <g>
       <use xlink:href="#maa28442f75" x="548.487572" y="409.275" style="stroke: #000000; stroke-width: 1.25"/>
      </g>
     </g>
     <g id="text_3">
      <!-- 2020 -->
      <g transform="translate(536.487572 427.44125)scale(0.12 -0.12)">
       <use xlink:href="#CMUSansSerif-32"/>
       <use xlink:href="#CMUSansSerif-30" x="50"/>
       <use xlink:href="#CMUSansSerif-32" x="100"/>
       <use xlink:href="#CMUSansSerif-30" x="150"/>
      </g>
     </g>
    </g>
    <g id="xtick_4">
     <g id="line2d_4">
      <g>
       <use xlink:href="#maa28442f75" x="505.564495" y="409.275" style="stroke: #000000; stroke-width: 1.25"/>
      </g>
     </g>
     <g id="text_4">
      <!-- 2019 -->
      <g transform="translate(493.564495 427.44125)scale(0.12 -0.12)">
       <defs>
        <path id="CMUSansSerif-39" d="M 269 2784 
Q 269 3488 728 3956 
Q 1106 4341 1613 4341 
Q 1838 4341 2045 4247 
Q 2253 4153 2461 3933 
Q 2669 3713 2797 3248 
Q 2925 2784 2925 2131 
Q 2925 1147 2454 503 
Q 1984 -141 1313 -141 
Q 853 -141 459 153 
L 659 500 
Q 666 494 714 461 
Q 763 428 778 415 
Q 794 403 839 378 
Q 884 353 912 339 
Q 941 325 992 306 
Q 1044 288 1092 278 
Q 1141 269 1200 262 
Q 1259 256 1325 256 
Q 1759 263 2048 672 
Q 2338 1081 2388 1766 
Q 1941 1234 1306 1234 
Q 891 1234 616 1625 
Q 269 2113 269 2784 
z
M 794 2784 
Q 794 2491 833 2302 
Q 872 2113 997 1925 
Q 1203 1631 1556 1631 
Q 1916 1631 2145 1923 
Q 2375 2216 2375 2625 
Q 2375 2734 2369 2791 
L 2381 2791 
Q 2369 2981 2330 3157 
Q 2291 3334 2211 3529 
Q 2131 3725 1978 3840 
Q 1825 3956 1619 3956 
Q 1288 3956 1092 3731 
Q 897 3506 831 3244 
Q 794 3091 794 2784 
z
" transform="scale(0.015625)"/>
       </defs>
       <use xlink:href="#CMUSansSerif-32"/>
       <use xlink:href="#CMUSansSerif-30" x="50"/>
       <use xlink:href="#CMUSansSerif-31" x="100"/>
       <use xlink:href="#CMUSansSerif-39" x="150"/>
      </g>
     </g>
    </g>
    <g id="xtick_5">
     <g id="line2d_5">
      <g>
       <use xlink:href="#maa28442f75" x="290.949111" y="409.275" style="stroke: #000000; stroke-width: 1.25"/>
      </g>
     </g>
     <g id="text_5">
      <!-- 2014 -->
      <g transform="translate(278.949111 427.44125)scale(0.12 -0.12)">
       <defs>
        <path id="CMUSansSerif-34" d="M 172 1094 
Q 172 1094 172 1403 
Q 172 1481 244 1600 
L 1791 4191 
L 2381 4191 
L 2381 1484 
L 3016 1484 
L 3016 1094 
L 2381 1094 
L 2381 0 
L 1869 0 
L 1869 1094 
L 172 1094 
z
M 672 1484 
L 1906 1484 
L 1906 3956 
Q 1869 3719 1725 3392 
Q 1581 3066 1453 2839 
Q 1325 2613 891 1863 
Q 750 1619 672 1484 
z
" transform="scale(0.015625)"/>
       </defs>
       <use xlink:href="#CMUSansSerif-32"/>
       <use xlink:href="#CMUSansSerif-30" x="50"/>
       <use xlink:href="#CMUSansSerif-31" x="100"/>
       <use xlink:href="#CMUSansSerif-34" x="150"/>
      </g>
     </g>
    </g>
    <g id="xtick_6">
     <g id="line2d_6">
      <g>
       <use xlink:href="#maa28442f75" x="462.641418" y="409.275" style="stroke: #000000; stroke-width: 1.25"/>
      </g>
     </g>
     <g id="text_6">
      <!-- 2018 -->
      <g transform="translate(450.641418 427.44125)scale(0.12 -0.12)">
       <defs>
        <path id="CMUSansSerif-38" d="M 263 1153 
Q 263 1513 480 1806 
Q 697 2100 1153 2266 
Q 847 2363 600 2608 
Q 353 2853 353 3219 
Q 353 3666 711 4003 
Q 1069 4341 1594 4341 
Q 2125 4341 2479 4000 
Q 2834 3659 2834 3219 
Q 2834 2919 2636 2666 
Q 2438 2413 2034 2266 
Q 2388 2156 2656 1865 
Q 2925 1575 2925 1147 
Q 2925 634 2540 246 
Q 2156 -141 1594 -141 
Q 1038 -141 650 243 
Q 263 628 263 1153 
z
M 781 1159 
Q 781 750 1004 503 
Q 1228 256 1594 256 
Q 1947 256 2176 500 
Q 2406 744 2406 1166 
Q 2406 1569 2179 1819 
Q 1953 2069 1594 2069 
Q 1281 2069 1031 1841 
Q 781 1613 781 1159 
z
M 800 3213 
Q 800 2872 1020 2667 
Q 1241 2463 1588 2463 
Q 1947 2463 2167 2672 
Q 2388 2881 2388 3213 
Q 2388 3553 2167 3758 
Q 1947 3963 1594 3963 
Q 1234 3963 1017 3753 
Q 800 3544 800 3213 
z
" transform="scale(0.015625)"/>
       </defs>
       <use xlink:href="#CMUSansSerif-32"/>
       <use xlink:href="#CMUSansSerif-30" x="50"/>
       <use xlink:href="#CMUSansSerif-31" x="100"/>
       <use xlink:href="#CMUSansSerif-38" x="150"/>
      </g>
     </g>
    </g>
    <g id="xtick_7">
     <g id="line2d_7">
      <g>
       <use xlink:href="#maa28442f75" x="333.872188" y="409.275" style="stroke: #000000; stroke-width: 1.25"/>
      </g>
     </g>
     <g id="text_7">
      <!-- 2015 -->
      <g transform="translate(321.872188 427.44125)scale(0.12 -0.12)">
       <defs>
        <path id="CMUSansSerif-35" d="M 244 488 
L 459 844 
Q 819 256 1459 256 
Q 1778 256 2037 503 
Q 2297 750 2297 1313 
Q 2297 1838 2108 2091 
Q 1919 2344 1644 2344 
Q 1209 2344 941 1831 
L 506 1831 
L 506 4191 
L 2663 4191 
L 2663 3781 
L 972 3781 
L 972 2472 
Q 1297 2734 1656 2731 
Q 2150 2731 2512 2318 
Q 2875 1906 2875 1306 
Q 2875 691 2454 275 
Q 2034 -141 1466 -141 
Q 1100 -141 775 29 
Q 450 200 244 488 
z
" transform="scale(0.015625)"/>
       </defs>
       <use xlink:href="#CMUSansSerif-32"/>
       <use xlink:href="#CMUSansSerif-30" x="50"/>
       <use xlink:href="#CMUSansSerif-31" x="100"/>
       <use xlink:href="#CMUSansSerif-35" x="150"/>
      </g>
     </g>
    </g>
    <g id="xtick_8">
     <g id="line2d_8">
      <g>
       <use xlink:href="#maa28442f75" x="205.102957" y="409.275" style="stroke: #000000; stroke-width: 1.25"/>
      </g>
     </g>
     <g id="text_8">
      <!-- 2012 -->
      <g transform="translate(193.102957 427.44125)scale(0.12 -0.12)">
       <use xlink:href="#CMUSansSerif-32"/>
       <use xlink:href="#CMUSansSerif-30" x="50"/>
       <use xlink:href="#CMUSansSerif-31" x="100"/>
       <use xlink:href="#CMUSansSerif-32" x="150"/>
      </g>
     </g>
    </g>
    <g id="xtick_9">
     <g id="line2d_9">
      <g>
       <use xlink:href="#maa28442f75" x="591.410649" y="409.275" style="stroke: #000000; stroke-width: 1.25"/>
      </g>
     </g>
     <g id="text_9">
      <!-- 2021 -->
      <g transform="translate(579.410649 427.44125)scale(0.12 -0.12)">
       <use xlink:href="#CMUSansSerif-32"/>
       <use xlink:href="#CMUSansSerif-30" x="50"/>
       <use xlink:href="#CMUSansSerif-32" x="100"/>
       <use xlink:href="#CMUSansSerif-31" x="150"/>
      </g>
     </g>
    </g>
    <g id="xtick_10">
     <g id="line2d_10">
      <g>
       <use xlink:href="#maa28442f75" x="119.256803" y="409.275" style="stroke: #000000; stroke-width: 1.25"/>
      </g>
     </g>
     <g id="text_10">
      <!-- 2010 -->
      <g transform="translate(107.256803 427.44125)scale(0.12 -0.12)">
       <use xlink:href="#CMUSansSerif-32"/>
       <use xlink:href="#CMUSansSerif-30" x="50"/>
       <use xlink:href="#CMUSansSerif-31" x="100"/>
       <use xlink:href="#CMUSansSerif-30" x="150"/>
      </g>
     </g>
    </g>
    <g id="xtick_11">
     <g id="line2d_11">
      <g>
       <use xlink:href="#maa28442f75" x="162.17988" y="409.275" style="stroke: #000000; stroke-width: 1.25"/>
      </g>
     </g>
     <g id="text_11">
      <!-- 2011 -->
      <g transform="translate(150.17988 427.44125)scale(0.12 -0.12)">
       <use xlink:href="#CMUSansSerif-32"/>
       <use xlink:href="#CMUSansSerif-30" x="50"/>
       <use xlink:href="#CMUSansSerif-31" x="100"/>
       <use xlink:href="#CMUSansSerif-31" x="150"/>
      </g>
     </g>
    </g>
    <g id="xtick_12">
     <g id="line2d_12">
      <g>
       <use xlink:href="#maa28442f75" x="76.333726" y="409.275" style="stroke: #000000; stroke-width: 1.25"/>
      </g>
     </g>
     <g id="text_12">
      <!-- 2009 -->
      <g transform="translate(64.333726 427.44125)scale(0.12 -0.12)">
       <use xlink:href="#CMUSansSerif-32"/>
       <use xlink:href="#CMUSansSerif-30" x="50"/>
       <use xlink:href="#CMUSansSerif-30" x="100"/>
       <use xlink:href="#CMUSansSerif-39" x="150"/>
      </g>
     </g>
    </g>
    <g id="xtick_13">
     <g id="line2d_13">
      <g>
       <use xlink:href="#maa28442f75" x="248.026034" y="409.275" style="stroke: #000000; stroke-width: 1.25"/>
      </g>
     </g>
     <g id="text_13">
      <!-- 2013 -->
      <g transform="translate(236.026034 427.44125)scale(0.12 -0.12)">
       <defs>
        <path id="CMUSansSerif-33" d="M 263 519 
L 331 909 
Q 538 634 816 473 
Q 1094 313 1255 284 
Q 1416 256 1563 256 
Q 1916 256 2133 512 
Q 2350 769 2350 1166 
Q 2350 1538 2140 1803 
Q 1931 2069 1528 2069 
L 1063 2069 
L 1063 2463 
Q 1216 2475 1328 2486 
Q 1441 2497 1472 2500 
Q 1503 2503 1522 2503 
Q 1828 2559 2025 2809 
Q 2222 3059 2222 3359 
Q 2222 3628 2042 3792 
Q 1863 3956 1575 3956 
Q 1013 3956 684 3475 
Q 647 3419 581 3291 
L 353 3641 
Q 794 4338 1588 4341 
Q 2075 4341 2411 4052 
Q 2747 3763 2747 3359 
Q 2747 2669 2034 2266 
Q 2475 2113 2700 1811 
Q 2925 1509 2925 1153 
Q 2925 634 2537 246 
Q 2150 -141 1569 -141 
Q 781 -141 263 519 
z
" transform="scale(0.015625)"/>
       </defs>
       <use xlink:href="#CMUSansSerif-32"/>
       <use xlink:href="#CMUSansSerif-30" x="50"/>
       <use xlink:href="#CMUSansSerif-31" x="100"/>
       <use xlink:href="#CMUSansSerif-33" x="150"/>
      </g>
     </g>
    </g>
    <g id="text_14">
     <!-- Year -->
     <g transform="translate(320.3425 443.89)scale(0.14 -0.14)">
      <defs>
       <path id="CMUSansSerif-59" d="M 13 4441 
L 684 4441 
L 1625 3078 
Q 2138 2309 2181 2228 
Q 2406 2625 3675 4441 
L 4238 4441 
L 2406 1778 
L 2406 0 
L 1850 0 
L 1850 1778 
L 13 4441 
z
" transform="scale(0.015625)"/>
       <path id="CMUSansSerif-65" d="M 219 1447 
Q 219 2081 605 2515 
Q 991 2950 1509 2950 
Q 1700 2950 1873 2889 
Q 2047 2828 2223 2687 
Q 2400 2547 2515 2265 
Q 2631 1984 2650 1594 
L 2650 1409 
L 666 1409 
Q 684 928 959 626 
Q 1234 325 1613 325 
Q 2100 325 2584 678 
L 2625 256 
Q 2138 -69 1613 -72 
Q 1003 -72 611 379 
Q 219 831 219 1447 
z
M 697 1759 
L 2284 1759 
Q 2247 2009 2147 2182 
Q 2047 2356 1922 2429 
Q 1797 2503 1698 2528 
Q 1600 2553 1509 2553 
Q 1184 2553 971 2303 
Q 759 2053 697 1759 
z
" transform="scale(0.015625)"/>
       <path id="CMUSansSerif-61" d="M 281 722 
Q 281 959 461 1136 
Q 641 1313 931 1398 
Q 1222 1484 1500 1526 
Q 1778 1569 2059 1569 
L 2059 1784 
Q 2047 2194 1894 2375 
Q 1734 2566 1491 2566 
Q 997 2566 531 2241 
L 494 2669 
Q 975 2950 1497 2950 
Q 1938 2950 2236 2659 
Q 2534 2369 2559 1953 
L 2559 0 
L 2075 0 
L 2075 225 
Q 2050 200 1956 142 
Q 1863 84 1594 6 
Q 1325 -72 1013 -72 
Q 647 -72 464 187 
Q 281 447 281 722 
z
M 750 728 
Q 750 556 919 440 
Q 1088 325 1344 325 
Q 1619 325 1839 440 
Q 2059 556 2059 831 
L 2059 1234 
Q 1863 1234 1658 1209 
Q 1453 1184 1236 1132 
Q 1019 1081 884 975 
Q 750 869 750 728 
z
" transform="scale(0.015625)"/>
       <path id="CMUSansSerif-72" d="M 519 0 
L 519 2881 
L 966 2881 
L 966 2303 
Q 1044 2425 1151 2537 
Q 1259 2650 1518 2778 
Q 1778 2906 2088 2913 
L 2088 2484 
Q 1922 2478 1755 2423 
Q 1588 2369 1405 2250 
Q 1222 2131 1109 1887 
Q 997 1644 997 1319 
L 997 0 
L 519 0 
z
" transform="scale(0.015625)"/>
      </defs>
      <use xlink:href="#CMUSansSerif-59"/>
      <use xlink:href="#CMUSansSerif-65" x="66.699219"/>
      <use xlink:href="#CMUSansSerif-61" x="111.083984"/>
      <use xlink:href="#CMUSansSerif-72" x="159.082031"/>
     </g>
    </g>
   </g>
   <g id="matplotlib.axis_2">
    <g id="ytick_1">
     <g id="line2d_14">
      <defs>
       <path id="mc98daf2309" d="M 0 0 
L -6 0 
" style="stroke: #000000; stroke-width: 1.25"/>
      </defs>
      <g>
       <use xlink:href="#mc98daf2309" x="54.872188" y="409.275" style="stroke: #000000; stroke-width: 1.25"/>
      </g>
     </g>
     <g id="text_15">
      <!-- 0.00 -->
      <g transform="translate(24.038438 413.608125)scale(0.12 -0.12)">
       <defs>
        <path id="CMUSansSerif-2e" d="M 616 0 
L 616 538 
L 1153 538 
L 1153 0 
L 616 0 
z
" transform="scale(0.015625)"/>
       </defs>
       <use xlink:href="#CMUSansSerif-30"/>
       <use xlink:href="#CMUSansSerif-2e" x="50"/>
       <use xlink:href="#CMUSansSerif-30" x="77.783203"/>
       <use xlink:href="#CMUSansSerif-30" x="127.783203"/>
      </g>
     </g>
    </g>
    <g id="ytick_2">
     <g id="line2d_15">
      <g>
       <use xlink:href="#mc98daf2309" x="54.872188" y="330.737687" style="stroke: #000000; stroke-width: 1.25"/>
      </g>
     </g>
     <g id="text_16">
      <!-- 0.05 -->
      <g transform="translate(24.038438 335.070812)scale(0.12 -0.12)">
       <use xlink:href="#CMUSansSerif-30"/>
       <use xlink:href="#CMUSansSerif-2e" x="50"/>
       <use xlink:href="#CMUSansSerif-30" x="77.783203"/>
       <use xlink:href="#CMUSansSerif-35" x="127.783203"/>
      </g>
     </g>
    </g>
    <g id="ytick_3">
     <g id="line2d_16">
      <g>
       <use xlink:href="#mc98daf2309" x="54.872188" y="252.200374" style="stroke: #000000; stroke-width: 1.25"/>
      </g>
     </g>
     <g id="text_17">
      <!-- 0.10 -->
      <g transform="translate(24.038438 256.533499)scale(0.12 -0.12)">
       <use xlink:href="#CMUSansSerif-30"/>
       <use xlink:href="#CMUSansSerif-2e" x="50"/>
       <use xlink:href="#CMUSansSerif-31" x="77.783203"/>
       <use xlink:href="#CMUSansSerif-30" x="127.783203"/>
      </g>
     </g>
    </g>
    <g id="ytick_4">
     <g id="line2d_17">
      <g>
       <use xlink:href="#mc98daf2309" x="54.872188" y="173.663061" style="stroke: #000000; stroke-width: 1.25"/>
      </g>
     </g>
     <g id="text_18">
      <!-- 0.15 -->
      <g transform="translate(24.038438 177.996186)scale(0.12 -0.12)">
       <use xlink:href="#CMUSansSerif-30"/>
       <use xlink:href="#CMUSansSerif-2e" x="50"/>
       <use xlink:href="#CMUSansSerif-31" x="77.783203"/>
       <use xlink:href="#CMUSansSerif-35" x="127.783203"/>
      </g>
     </g>
    </g>
    <g id="ytick_5">
     <g id="line2d_18">
      <g>
       <use xlink:href="#mc98daf2309" x="54.872188" y="95.125748" style="stroke: #000000; stroke-width: 1.25"/>
      </g>
     </g>
     <g id="text_19">
      <!-- 0.20 -->
      <g transform="translate(24.038438 99.458873)scale(0.12 -0.12)">
       <use xlink:href="#CMUSansSerif-30"/>
       <use xlink:href="#CMUSansSerif-2e" x="50"/>
       <use xlink:href="#CMUSansSerif-32" x="77.783203"/>
       <use xlink:href="#CMUSansSerif-30" x="127.783203"/>
      </g>
     </g>
    </g>
    <g id="text_20">
     <!-- Fraction of Posts and Comments -->
     <g transform="translate(17.310625 315.575625)rotate(-90)scale(0.14 -0.14)">
      <defs>
       <path id="CMUSansSerif-46" d="M 603 0 
L 603 4422 
L 3372 4422 
L 3372 4000 
L 3022 4000 
L 2869 4006 
L 1381 4006 
L 1178 4013 
L 1178 2406 
L 3103 2406 
L 3103 2016 
L 1178 2016 
L 1178 0 
L 603 0 
z
" transform="scale(0.015625)"/>
       <path id="CMUSansSerif-63" d="M 225 1428 
Q 225 2022 608 2486 
Q 991 2950 1631 2950 
Q 1931 2950 2129 2892 
Q 2328 2834 2625 2669 
L 2547 2247 
Q 2234 2444 2069 2491 
Q 1884 2541 1625 2541 
Q 1191 2541 956 2211 
Q 722 1881 722 1428 
Q 722 953 972 647 
Q 1222 341 1619 341 
Q 2119 341 2625 684 
L 2656 256 
Q 2150 -69 1613 -72 
Q 1025 -72 625 367 
Q 225 806 225 1428 
z
" transform="scale(0.015625)"/>
       <path id="CMUSansSerif-74" d="M 116 2472 
L 116 2847 
L 666 2847 
L 666 3653 
L 1113 3653 
L 1113 2847 
L 2016 2847 
L 2016 2472 
L 1113 2472 
L 1113 897 
Q 1113 341 1459 341 
Q 1728 341 2022 550 
L 2125 172 
Q 1672 -72 1178 -72 
Q 653 -72 653 750 
L 653 2472 
L 116 2472 
z
" transform="scale(0.015625)"/>
       <path id="CMUSansSerif-69" d="M 475 3775 
L 475 4347 
L 1050 4347 
L 1050 3775 
L 475 3775 
z
M 519 0 
L 519 2847 
L 997 2847 
L 997 0 
L 519 0 
z
" transform="scale(0.015625)"/>
       <path id="CMUSansSerif-6f" d="M 191 1416 
Q 191 2063 605 2506 
Q 1019 2950 1594 2950 
Q 2197 2950 2600 2486 
Q 3003 2022 3003 1409 
Q 3003 775 2579 351 
Q 2156 -72 1593 -72 
Q 1031 -72 611 354 
Q 191 781 191 1416 
z
M 691 1478 
Q 691 916 962 628 
Q 1234 341 1593 341 
Q 1953 341 2225 631 
Q 2497 922 2497 1478 
Q 2497 2016 2225 2284 
Q 1953 2553 1594 2553 
Q 1241 2553 966 2284 
Q 691 2016 691 1478 
z
" transform="scale(0.015625)"/>
       <path id="CMUSansSerif-6e" d="M 513 0 
L 513 2881 
L 978 2881 
L 978 2431 
Q 1350 2913 1913 2913 
Q 2150 2913 2320 2842 
Q 2491 2772 2580 2669 
Q 2669 2566 2717 2409 
Q 2766 2253 2778 2131 
Q 2791 2009 2791 1844 
L 2791 0 
L 2291 0 
L 2291 1797 
Q 2291 1906 2287 1970 
Q 2284 2034 2250 2153 
Q 2216 2272 2155 2342 
Q 2094 2413 1969 2467 
Q 1844 2522 1663 2522 
Q 1322 2522 1167 2234 
Q 1013 1947 1013 1538 
L 1013 0 
L 513 0 
z
" transform="scale(0.015625)"/>
       <path id="CMUSansSerif-20" transform="scale(0.015625)"/>
       <path id="CMUSansSerif-66" d="M 172 2472 
L 172 2847 
L 647 2847 
L 647 3316 
Q 647 3341 644 3392 
Q 641 3444 641 3469 
Q 641 4056 964 4373 
Q 1288 4691 1716 4691 
Q 1953 4691 2222 4622 
L 2222 4191 
Q 1947 4300 1703 4300 
Q 1484 4300 1295 4172 
Q 1106 4044 1106 3719 
L 1106 2847 
L 1831 2847 
L 1831 2472 
L 1125 2472 
L 1125 0 
L 647 0 
L 647 2472 
L 172 2472 
z
" transform="scale(0.015625)"/>
       <path id="CMUSansSerif-50" d="M 609 0 
L 609 4441 
L 2119 4441 
Q 2706 4441 3103 4191 
Q 3397 4006 3561 3737 
Q 3725 3469 3725 3156 
Q 3725 2656 3312 2250 
Q 2900 1844 2144 1844 
Q 2113 1844 2042 1847 
Q 1972 1850 1931 1850 
L 1184 1850 
L 1184 0 
L 609 0 
z
M 1166 2222 
L 2016 2222 
Q 2347 2222 2597 2311 
Q 2847 2400 2969 2550 
Q 3091 2700 3148 2851 
Q 3206 3003 3206 3156 
Q 3206 3297 3154 3440 
Q 3103 3584 2986 3737 
Q 2869 3891 2619 3987 
Q 2369 4084 2016 4084 
L 1166 4084 
L 1166 2222 
z
" transform="scale(0.015625)"/>
       <path id="CMUSansSerif-73" d="M 172 219 
L 250 653 
Q 263 647 333 605 
Q 403 563 439 544 
Q 475 525 554 486 
Q 634 447 701 425 
Q 769 403 858 378 
Q 947 353 1047 342 
Q 1147 331 1253 331 
Q 1572 331 1711 467 
Q 1850 603 1850 769 
Q 1850 928 1734 1034 
Q 1619 1141 1491 1178 
Q 1428 1197 1206 1242 
Q 984 1288 878 1319 
Q 616 1403 414 1604 
Q 213 1806 213 2106 
Q 213 2253 256 2384 
Q 300 2516 406 2653 
Q 513 2791 733 2870 
Q 953 2950 1259 2950 
Q 1719 2950 2194 2753 
L 2125 2328 
Q 2119 2334 2051 2364 
Q 1984 2394 1975 2400 
Q 1966 2406 1905 2431 
Q 1844 2456 1820 2464 
Q 1797 2472 1740 2494 
Q 1684 2516 1651 2519 
Q 1619 2522 1558 2537 
Q 1497 2553 1450 2556 
Q 1403 2559 1339 2562 
Q 1275 2566 1203 2566 
Q 909 2566 787 2447 
Q 666 2328 666 2175 
Q 666 1963 836 1870 
Q 1006 1778 1312 1725 
Q 1619 1672 1747 1613 
Q 1978 1509 2140 1304 
Q 2303 1100 2303 813 
Q 2303 666 2259 525 
Q 2216 384 2109 243 
Q 2003 103 1783 15 
Q 1563 -72 1259 -72 
Q 697 -69 172 219 
z
" transform="scale(0.015625)"/>
       <path id="CMUSansSerif-64" d="M 225 1416 
Q 225 2050 558 2484 
Q 891 2919 1363 2919 
Q 1850 2919 2291 2566 
L 2291 4622 
L 2778 4622 
L 2778 0 
L 2272 0 
L 2272 331 
Q 1856 -72 1325 -72 
Q 850 -72 537 375 
Q 225 822 225 1416 
z
M 722 1422 
Q 722 853 990 589 
Q 1259 325 1588 325 
Q 1856 325 2064 508 
Q 2272 691 2272 856 
L 2272 2081 
Q 2272 2203 2138 2328 
Q 1931 2519 1663 2522 
L 1650 2522 
Q 1497 2522 1347 2464 
Q 1197 2406 1050 2287 
Q 903 2169 812 1945 
Q 722 1722 722 1422 
z
" transform="scale(0.015625)"/>
       <path id="CMUSansSerif-43" d="M 422 2222 
Q 422 2747 605 3200 
Q 788 3653 1081 3948 
Q 1375 4244 1728 4412 
Q 2081 4581 2425 4581 
Q 2675 4581 2819 4572 
Q 2963 4563 3194 4516 
Q 3425 4469 3694 4366 
L 3597 3834 
Q 3309 4006 3081 4089 
Q 2853 4172 2509 4172 
Q 1869 4172 1433 3603 
Q 997 3034 997 2222 
Q 997 1403 1436 836 
Q 1875 269 2528 269 
Q 2650 269 2759 278 
Q 2869 288 2945 297 
Q 3022 306 3114 339 
Q 3206 372 3251 384 
Q 3297 397 3383 448 
Q 3469 500 3491 512 
Q 3513 525 3609 586 
Q 3706 647 3725 659 
L 3763 213 
Q 3416 6 3167 -67 
Q 2919 -141 2522 -141 
Q 1606 -141 1014 564 
Q 422 1269 422 2222 
z
" transform="scale(0.015625)"/>
       <path id="CMUSansSerif-6d" d="M 513 0 
L 513 2881 
L 978 2881 
L 978 2431 
Q 1350 2913 1913 2913 
Q 2534 2913 2725 2394 
Q 3116 2913 3694 2913 
Q 3938 2913 4113 2833 
Q 4288 2753 4373 2647 
Q 4459 2541 4507 2375 
Q 4556 2209 4562 2103 
Q 4569 1997 4569 1844 
L 4569 0 
L 4063 0 
L 4063 1797 
Q 4063 1809 4063 1836 
Q 4063 1863 4050 1939 
Q 4038 2016 4016 2083 
Q 3994 2150 3948 2233 
Q 3903 2316 3839 2377 
Q 3775 2438 3673 2480 
Q 3572 2522 3444 2522 
Q 3103 2522 2947 2234 
Q 2791 1947 2791 1538 
L 2791 0 
L 2291 0 
L 2291 1797 
Q 2291 1906 2287 1970 
Q 2284 2034 2250 2153 
Q 2216 2272 2155 2342 
Q 2094 2413 1969 2467 
Q 1844 2522 1663 2522 
Q 1322 2522 1167 2234 
Q 1013 1947 1013 1538 
L 1013 0 
L 513 0 
z
" transform="scale(0.015625)"/>
      </defs>
      <use xlink:href="#CMUSansSerif-46"/>
      <use xlink:href="#CMUSansSerif-72" x="56.884766"/>
      <use xlink:href="#CMUSansSerif-61" x="91.064453"/>
      <use xlink:href="#CMUSansSerif-63" x="139.0625"/>
      <use xlink:href="#CMUSansSerif-74" x="183.447266"/>
      <use xlink:href="#CMUSansSerif-69" x="219.53125"/>
      <use xlink:href="#CMUSansSerif-6f" x="243.408203"/>
      <use xlink:href="#CMUSansSerif-6e" x="293.408203"/>
      <use xlink:href="#CMUSansSerif-20" x="345.068359"/>
      <use xlink:href="#CMUSansSerif-6f" x="378.320312"/>
      <use xlink:href="#CMUSansSerif-66" x="428.320312"/>
      <use xlink:href="#CMUSansSerif-20" x="458.789062"/>
      <use xlink:href="#CMUSansSerif-50" x="492.041016"/>
      <use xlink:href="#CMUSansSerif-6f" x="555.908203"/>
      <use xlink:href="#CMUSansSerif-73" x="605.908203"/>
      <use xlink:href="#CMUSansSerif-74" x="644.189453"/>
      <use xlink:href="#CMUSansSerif-73" x="680.273438"/>
      <use xlink:href="#CMUSansSerif-20" x="718.554688"/>
      <use xlink:href="#CMUSansSerif-61" x="751.806641"/>
      <use xlink:href="#CMUSansSerif-6e" x="799.804688"/>
      <use xlink:href="#CMUSansSerif-64" x="851.464844"/>
      <use xlink:href="#CMUSansSerif-20" x="903.125"/>
      <use xlink:href="#CMUSansSerif-43" x="936.376953"/>
      <use xlink:href="#CMUSansSerif-6f" x="1000.244141"/>
      <use xlink:href="#CMUSansSerif-6d" x="1050.244141"/>
      <use xlink:href="#CMUSansSerif-6d" x="1129.638672"/>
      <use xlink:href="#CMUSansSerif-65" x="1209.033203"/>
      <use xlink:href="#CMUSansSerif-6e" x="1253.417969"/>
      <use xlink:href="#CMUSansSerif-74" x="1305.078125"/>
      <use xlink:href="#CMUSansSerif-73" x="1341.162109"/>
     </g>
    </g>
   </g>
   <g id="line2d_19">
    <path d="M 53.922942 408.768365 
L 60.844226 408.387071 
L 67.76551 407.773465 
L 74.686793 406.824355 
L 78.147435 406.185302 
L 81.608077 405.413521 
L 85.068719 404.490721 
L 88.529361 403.398349 
L 91.990002 402.118142 
L 95.450644 400.632778 
L 98.911286 398.926582 
L 102.371928 396.986278 
L 105.83257 394.801734 
L 109.293211 392.366672 
L 112.753853 389.679279 
L 116.214495 386.742693 
L 119.675137 383.565309 
L 123.135779 380.160874 
L 126.59642 376.548343 
L 133.517704 368.798296 
L 140.438988 360.550493 
L 157.742197 339.525401 
L 164.66348 331.58377 
L 171.584764 324.147052 
L 178.506048 317.268372 
L 185.427331 310.933529 
L 192.348615 305.084029 
L 199.269899 299.645672 
L 206.191182 294.55547 
L 213.112466 289.780624 
L 220.033749 285.325563 
L 226.955033 281.225921 
L 233.876317 277.531536 
L 240.7976 274.28332 
L 247.718884 271.490751 
L 254.640168 269.116983 
L 261.561451 267.077014 
L 271.943377 264.377722 
L 289.246586 259.937991 
L 303.089153 256.356831 
L 310.010437 254.907095 
L 313.471078 254.361752 
L 316.93172 253.973485 
L 320.392362 253.767317 
L 323.853004 253.763851 
L 327.313646 253.977786 
L 330.774288 254.416704 
L 334.234929 255.080216 
L 337.695571 255.959546 
L 341.156213 257.03759 
L 344.616855 258.289467 
L 351.538138 261.182861 
L 365.380706 267.413739 
L 372.301989 270.136901 
L 375.762631 271.301872 
L 379.223273 272.318469 
L 382.683915 273.184916 
L 386.144557 273.908267 
L 393.06584 274.99315 
L 399.987124 275.766501 
L 410.369049 276.87218 
L 417.290333 277.874327 
L 424.211616 279.201628 
L 431.1329 280.798917 
L 441.514826 283.258919 
L 444.975467 283.949006 
L 448.436109 284.506067 
L 451.896751 284.891008 
L 455.357393 285.068922 
L 458.818035 285.010963 
L 462.278676 284.695893 
L 465.739318 284.111202 
L 469.19996 283.253749 
L 472.660602 282.129925 
L 476.121244 280.755331 
L 479.581886 279.154012 
L 483.042527 277.357327 
L 489.963811 273.331115 
L 503.806378 264.765332 
L 507.26702 262.767543 
L 510.727662 260.902595 
L 514.188304 259.200748 
L 517.648945 257.687362 
L 521.109587 256.382904 
L 524.570229 255.303185 
L 528.030871 254.459782 
L 531.491513 253.860587 
L 534.952155 253.510426 
L 538.412796 253.411713 
L 541.873438 253.565074 
L 545.33408 253.969929 
L 548.794722 254.624983 
L 552.255364 255.528624 
L 555.716005 256.679219 
L 559.176647 258.075285 
L 562.637289 259.715557 
L 566.097931 261.598954 
L 569.558573 263.724442 
L 573.019214 266.090825 
L 576.479856 268.696472 
L 579.940498 271.539001 
L 583.40114 274.614947 
L 586.861782 277.919436 
L 590.322424 281.445892 
L 593.783065 285.185791 
L 597.243707 289.12849 
L 600.704349 293.261134 
L 607.625633 302.033814 
L 614.546916 311.358496 
L 621.072188 320.502473 
L 621.072188 320.502473 
" clip-path="url(#p83c62537fb)" style="fill: none; stroke: #e31a1c; stroke-width: 3; stroke-linecap: square"/>
   </g>
   <g id="line2d_20">
    <path d="M 77.913851 409.126426 
L 87.572432 408.88088 
L 94.011486 408.566988 
L 100.450541 408.066614 
L 106.889595 407.31453 
L 113.328649 406.249241 
L 119.767704 404.827792 
L 126.206758 403.041214 
L 132.645812 400.924967 
L 139.084867 398.558629 
L 164.841084 388.675819 
L 184.158247 381.710392 
L 190.597301 379.102173 
L 197.036356 376.171874 
L 203.47541 372.858161 
L 209.914464 369.167038 
L 219.573046 363.170421 
L 226.0121 359.209766 
L 229.231627 357.364258 
L 232.451154 355.670927 
L 235.670681 354.175472 
L 238.890209 352.919147 
L 242.109736 351.935701 
L 245.329263 351.248621 
L 248.54879 350.868941 
L 251.768317 350.793851 
L 254.987844 351.006264 
L 258.207372 351.475383 
L 261.426899 352.158221 
L 267.865953 353.946739 
L 274.305007 355.88567 
L 277.524534 356.755313 
L 280.744062 357.483214 
L 283.963589 358.022707 
L 287.183116 358.337311 
L 290.402643 358.402081 
L 293.62217 358.20442 
L 296.841697 357.744343 
L 300.061225 357.034236 
L 303.280752 356.09809 
L 306.500279 354.970224 
L 312.939333 352.317136 
L 322.597915 348.118565 
L 325.817442 346.863285 
L 329.036969 345.749134 
L 332.256496 344.803481 
L 335.476023 344.041985 
L 338.69555 343.467988 
L 341.915078 343.072797 
L 345.134605 342.836785 
L 351.573659 342.720429 
L 364.451768 342.816538 
L 367.671295 342.681653 
L 370.890822 342.419636 
L 374.110349 342.009298 
L 377.329876 341.436742 
L 380.549404 340.695725 
L 383.768931 339.787816 
L 386.988458 338.72233 
L 393.427512 336.192379 
L 399.866566 333.314525 
L 409.525148 328.945404 
L 415.964202 326.37106 
L 422.403257 324.237414 
L 428.842311 322.517031 
L 441.72042 319.461237 
L 444.939947 318.545597 
L 448.159474 317.484112 
L 451.379001 316.238315 
L 454.598528 314.77477 
L 457.818055 313.066322 
L 461.037582 311.093126 
L 464.25711 308.843512 
L 467.476637 306.31469 
L 470.696164 303.51325 
L 473.915691 300.455341 
L 477.135218 297.166393 
L 483.574273 290.037349 
L 493.232854 278.619002 
L 502.891436 267.269556 
L 518.989071 248.716157 
L 522.208598 244.667426 
L 525.428126 240.330373 
L 528.647653 235.618246 
L 531.86718 230.445669 
L 535.086707 224.73268 
L 538.306234 218.408704 
L 541.525761 211.416554 
L 544.745289 203.716497 
L 547.964816 195.290386 
L 551.184343 186.145728 
L 554.40387 176.319391 
L 557.623397 165.880516 
L 564.062452 143.610595 
L 573.721033 109.201347 
L 576.94056 98.27642 
L 580.160087 87.985022 
L 583.379614 78.530168 
L 586.599142 70.0918 
L 589.818669 62.819532 
L 593.038196 56.828693 
L 596.257723 52.20015 
L 599.47725 48.983847 
L 602.696777 47.20543 
L 605.916305 46.87485 
L 609.135832 47.995476 
L 612.355359 50.572142 
L 615.574886 54.616695 
L 618.794413 60.149967 
L 621.072188 65.137524 
L 621.072188 65.137524 
" clip-path="url(#p83c62537fb)" style="fill: none; stroke: #fb9a99; stroke-width: 3; stroke-linecap: square"/>
   </g>
   <g id="line2d_21">
    <path d="M 47.536486 409.271852 
L 80.627821 409.154229 
L 90.555221 408.96279 
L 97.173488 408.698786 
L 103.791755 408.236592 
L 110.410022 407.466897 
L 113.719155 406.927544 
L 117.028289 406.264811 
L 120.337422 405.46608 
L 123.646555 404.52276 
L 126.955689 403.431816 
L 130.264822 402.196992 
L 136.883089 399.347728 
L 143.501356 396.144746 
L 156.73789 389.575996 
L 166.66529 385.019393 
L 179.901824 379.082967 
L 196.447491 371.509288 
L 203.065758 368.873162 
L 209.684025 366.618427 
L 216.302292 364.642934 
L 232.847959 359.980519 
L 239.466226 358.340746 
L 242.77536 357.679821 
L 246.084493 357.158416 
L 249.393627 356.78473 
L 256.011893 356.421861 
L 265.939294 356.191662 
L 269.248427 355.96217 
L 272.557561 355.556687 
L 275.866694 354.924888 
L 279.175828 354.024683 
L 282.484961 352.821261 
L 285.794095 351.285419 
L 289.103228 349.39237 
L 292.412361 347.122178 
L 295.721495 344.46252 
L 299.030628 341.413852 
L 302.339762 337.996269 
L 305.648895 334.256672 
L 312.267162 326.163566 
L 315.576296 322.070332 
L 318.885429 318.164941 
L 322.194562 314.628364 
L 325.503696 311.635277 
L 328.812829 309.335571 
L 332.121963 307.837165 
L 335.431096 307.192856 
L 338.74023 307.393324 
L 342.049363 308.36743 
L 345.358497 309.989687 
L 348.66763 312.093551 
L 358.59503 319.370398 
L 361.904164 321.502882 
L 365.213297 323.235307 
L 368.522431 324.459254 
L 371.831564 325.095018 
L 375.140698 325.088068 
L 378.449831 324.405504 
L 381.758965 323.034094 
L 385.068098 320.980735 
L 388.377232 318.275156 
L 391.686365 314.973746 
L 394.995498 311.162718 
L 398.304632 306.958636 
L 411.541166 289.261361 
L 414.850299 285.383109 
L 418.159433 281.944742 
L 421.468566 278.978584 
L 424.777699 276.464767 
L 428.086833 274.337981 
L 431.395966 272.501166 
L 438.014233 269.260863 
L 444.6325 266.022492 
L 454.559901 260.753976 
L 461.178167 257.30692 
L 477.723835 249.203275 
L 481.032968 247.34696 
L 487.651235 243.258174 
L 494.269502 239.122636 
L 497.578635 237.312668 
L 500.887769 235.827688 
L 504.196902 234.748884 
L 507.506036 234.108998 
L 510.815169 233.883118 
L 514.124303 233.989237 
L 524.051703 234.879043 
L 527.360836 234.823749 
L 530.66997 234.35139 
L 533.979103 233.360266 
L 537.288237 231.780072 
L 540.59737 229.564687 
L 543.906504 226.681591 
L 547.215637 223.101897 
L 550.524771 218.794875 
L 553.833904 213.72962 
L 557.143037 207.884588 
L 560.452171 201.263395 
L 563.761304 193.913302 
L 567.070438 185.941473 
L 573.688705 168.903841 
L 576.997838 160.375693 
L 580.306972 152.259307 
L 583.616105 144.864687 
L 586.925239 138.455539 
L 590.234372 133.217924 
L 593.543505 129.240735 
L 596.852639 126.512617 
L 600.161772 124.936883 
L 603.470906 124.362435 
L 606.780039 124.625341 
L 610.089173 125.593384 
L 613.398306 127.205005 
L 616.70744 129.494881 
L 620.016573 132.600761 
L 621.072188 133.924248 
L 621.072188 133.924248 
" clip-path="url(#p83c62537fb)" style="fill: none; stroke: #33a02c; stroke-width: 3; stroke-linecap: square"/>
   </g>
   <g id="line2d_22">
    <path d="M 75.83185 409.04984 
L 85.553205 408.687195 
L 92.034109 408.227791 
L 98.515013 407.499192 
L 104.995916 406.407218 
L 108.236368 405.696019 
L 111.47682 404.861389 
L 114.717271 403.895938 
L 117.957723 402.795183 
L 121.198175 401.558169 
L 124.438627 400.187938 
L 130.91953 397.081228 
L 137.400434 393.582096 
L 147.121789 387.950031 
L 156.843145 382.376609 
L 163.324048 378.913476 
L 169.804952 375.719867 
L 176.285855 372.787387 
L 182.766759 370.06986 
L 192.488114 366.267218 
L 208.690373 360.273351 
L 224.892632 354.514194 
L 231.373536 352.383384 
L 237.854439 350.460047 
L 244.335343 348.815003 
L 250.816247 347.481199 
L 257.29715 346.434292 
L 267.018505 345.214598 
L 279.980313 343.628326 
L 286.461216 342.638599 
L 292.94212 341.473727 
L 312.384831 337.715502 
L 315.625282 337.273415 
L 318.865734 336.959706 
L 322.106186 336.802658 
L 325.346638 336.826342 
L 328.587089 337.048192 
L 331.827541 337.476743 
L 335.067993 338.109749 
L 338.308445 338.932907 
L 341.548897 339.919332 
L 348.0298 342.214317 
L 354.510704 344.560717 
L 357.751156 345.587134 
L 360.991607 346.42256 
L 364.232059 346.999893 
L 367.472511 347.257904 
L 370.712963 347.14391 
L 373.953414 346.61596 
L 377.193866 345.644438 
L 380.434318 344.213016 
L 383.67477 342.318916 
L 386.915222 339.972468 
L 390.155673 337.195968 
L 393.396125 334.021896 
L 396.636577 330.490556 
L 399.877029 326.647291 
L 403.117481 322.539444 
L 409.598384 313.711111 
L 416.079288 304.314291 
L 422.560191 294.533064 
L 429.041095 284.408019 
L 435.521998 273.864027 
L 442.002902 262.765787 
L 448.483806 250.975442 
L 454.964709 238.397149 
L 461.445613 225.01289 
L 467.926516 210.924661 
L 484.128775 174.972597 
L 487.369227 168.281595 
L 490.609679 161.991769 
L 493.850131 156.206651 
L 497.090582 151.020052 
L 500.331034 146.509522 
L 503.571486 142.730718 
L 506.811938 139.713363 
L 510.05239 137.459258 
L 513.292841 135.94261 
L 516.533293 135.112597 
L 519.773745 134.897839 
L 523.014197 135.212216 
L 526.254648 135.961336 
L 529.4951 137.048965 
L 532.735552 138.382784 
L 539.216456 141.46603 
L 548.937811 146.269291 
L 555.418715 149.269768 
L 565.14007 153.654436 
L 568.380522 155.245762 
L 571.620974 157.003418 
L 574.861425 159.001123 
L 578.101877 161.316462 
L 581.342329 164.026405 
L 584.582781 167.202354 
L 587.823232 170.905174 
L 591.063684 175.180788 
L 594.304136 180.056858 
L 597.544588 185.540984 
L 600.78504 191.620669 
L 604.025491 198.265038 
L 607.265943 205.428066 
L 610.506395 213.052863 
L 613.746847 221.076409 
L 620.22775 238.063582 
L 621.072188 240.368167 
L 621.072188 240.368167 
" clip-path="url(#p83c62537fb)" style="fill: none; stroke: #b2df8a; stroke-width: 3; stroke-linecap: square"/>
   </g>
   <g id="line2d_23">
    <path d="M 21.641126 409.211375 
L 44.351619 409.001392 
L 59.491948 408.624464 
L 70.847194 408.095118 
L 78.417358 407.564227 
L 85.987523 406.843839 
L 93.557687 405.888461 
L 101.127852 404.65061 
L 108.698016 403.084461 
L 116.26818 401.150707 
L 123.838345 398.822348 
L 131.408509 396.090875 
L 138.978673 392.972 
L 146.548838 389.509917 
L 154.119002 385.778984 
L 180.614577 372.262575 
L 188.184742 368.822146 
L 195.754906 365.792397 
L 199.539988 364.457166 
L 203.32507 363.250197 
L 207.110153 362.174268 
L 210.895235 361.229173 
L 214.680317 360.411757 
L 218.465399 359.716034 
L 226.035564 358.65303 
L 233.605728 357.946294 
L 241.175892 357.478875 
L 263.886385 356.326212 
L 271.45655 355.724545 
L 279.026714 354.944514 
L 290.381961 353.474393 
L 328.232783 348.087768 
L 358.51344 344.407771 
L 366.083604 343.092503 
L 373.653769 341.392855 
L 377.438851 340.362673 
L 381.223933 339.193936 
L 385.009015 337.873699 
L 388.794097 336.389683 
L 392.57918 334.730253 
L 396.364262 332.884366 
L 400.149344 330.84152 
L 403.934426 328.591696 
L 407.719508 326.125335 
L 411.504591 323.433351 
L 415.289673 320.507205 
L 419.074755 317.339043 
L 422.859837 313.921899 
L 426.644919 310.249973 
L 430.430001 306.318964 
L 434.215084 302.126452 
L 438.000166 297.672304 
L 441.785248 292.959085 
L 445.57033 287.992439 
L 449.355412 282.781422 
L 453.140495 277.338751 
L 460.710659 265.828356 
L 468.280823 253.638464 
L 479.63607 234.596678 
L 490.991316 215.480181 
L 498.561481 203.171604 
L 506.131645 191.516946 
L 509.916727 186.0047 
L 513.701809 180.734105 
L 517.486892 175.725368 
L 521.271974 170.996202 
L 525.057056 166.562243 
L 528.842138 162.437572 
L 532.62722 158.635312 
L 536.412303 155.168255 
L 540.197385 152.049475 
L 543.982467 149.292877 
L 547.767549 146.913656 
L 551.552631 144.928607 
L 555.337713 143.356288 
L 559.122796 142.216988 
L 562.907878 141.53252 
L 566.69296 141.325818 
L 570.478042 141.620366 
L 574.263124 142.439485 
L 578.048207 143.805488 
L 581.833289 145.738771 
L 585.618371 148.256853 
L 589.403453 151.37342 
L 593.188535 155.097423 
L 596.973617 159.432259 
L 600.7587 164.375069 
L 604.543782 169.916196 
L 608.328864 176.038821 
L 612.113946 182.718781 
L 615.899028 189.924605 
L 621.072188 200.601102 
L 621.072188 200.601102 
" clip-path="url(#p83c62537fb)" style="fill: none; stroke: #1f78b4; stroke-width: 3; stroke-linecap: square"/>
   </g>
   <g id="line2d_24">
    <path d="M -1 409.257993 
L 31.421657 409.111475 
L 61.036475 408.72698 
L 75.843884 408.383692 
L 86.94944 407.893252 
L 94.353145 407.327135 
L 101.756849 406.453963 
L 105.458701 405.867647 
L 109.160553 405.163657 
L 112.862406 404.330226 
L 116.564258 403.357762 
L 120.26611 402.23949 
L 123.967962 400.971921 
L 127.669815 399.555086 
L 131.371667 397.992475 
L 135.073519 396.290677 
L 142.477223 392.507371 
L 149.880928 388.291418 
L 157.284632 383.726227 
L 164.688337 378.872881 
L 172.092041 373.768423 
L 179.495746 368.439597 
L 190.601302 360.10384 
L 216.514268 340.225836 
L 223.917972 334.951732 
L 227.619824 332.499867 
L 231.321677 330.213167 
L 235.023529 328.122781 
L 238.725381 326.256824 
L 242.427233 324.637748 
L 246.129086 323.279956 
L 249.830938 322.188027 
L 253.53279 321.355844 
L 257.234642 320.766749 
L 260.936494 320.394742 
L 264.638347 320.206523 
L 272.042051 320.227794 
L 294.253164 320.997887 
L 305.358721 320.95808 
L 312.762425 320.912126 
L 320.16613 321.09918 
L 323.867982 321.352899 
L 327.569834 321.74492 
L 331.271687 322.289146 
L 334.973539 322.988705 
L 338.675391 323.834341 
L 346.079095 325.862607 
L 357.184652 329.083694 
L 360.886504 329.981135 
L 364.588357 330.692982 
L 368.290209 331.166578 
L 371.992061 331.356997 
L 375.693913 331.228958 
L 379.395765 330.757999 
L 383.097618 329.930926 
L 386.79947 328.745561 
L 390.501322 327.209841 
L 394.203174 325.340349 
L 397.905026 323.160355 
L 401.606879 320.697529 
L 405.308731 317.981485 
L 409.010583 315.041394 
L 412.712435 311.903897 
L 416.414288 308.591534 
L 423.817992 301.507421 
L 431.221696 293.872673 
L 438.625401 285.719476 
L 446.029105 277.071366 
L 453.43281 267.978155 
L 460.836514 258.53503 
L 479.345775 234.664975 
L 483.047627 230.169756 
L 486.74948 225.898262 
L 490.451332 221.913474 
L 494.153184 218.2745 
L 497.855036 215.030975 
L 501.556889 212.217497 
L 505.258741 209.848895 
L 508.960593 207.917073 
L 512.662445 206.389923 
L 516.364297 205.21255 
L 520.06615 204.310669 
L 527.469854 202.971312 
L 534.873559 201.608239 
L 538.575411 200.695813 
L 542.277263 199.536981 
L 545.979115 198.086151 
L 549.680967 196.320264 
L 553.38282 194.24055 
L 557.084672 191.873318 
L 560.786524 189.269698 
L 575.593933 178.26449 
L 579.295785 175.939158 
L 582.997637 174.033695 
L 586.69949 172.664897 
L 590.401342 171.936012 
L 594.103194 171.933422 
L 597.805046 172.725511 
L 601.506898 174.3637 
L 605.208751 176.885194 
L 608.910603 180.31661 
L 612.612455 184.677476 
L 616.314307 189.982563 
L 620.01616 196.242256 
L 621.072188 198.301425 
L 621.072188 198.301425 
" clip-path="url(#p83c62537fb)" style="fill: none; stroke: #a6cee3; stroke-width: 3; stroke-linecap: square"/>
   </g>
   <g id="patch_3">
    <path d="M 54.872188 409.275 
L 54.872188 28.755 
" style="fill: none; stroke: #000000; stroke-width: 1.25; stroke-linejoin: miter; stroke-linecap: square"/>
   </g>
   <g id="patch_4">
    <path d="M 612.872187 409.275 
L 612.872187 28.755 
" style="fill: none; stroke: #000000; stroke-width: 1.25; stroke-linejoin: miter; stroke-linecap: square"/>
   </g>
   <g id="patch_5">
    <path d="M 54.872188 409.275 
L 612.872188 409.275 
" style="fill: none; stroke: #000000; stroke-width: 1.25; stroke-linejoin: miter; stroke-linecap: square"/>
   </g>
   <g id="patch_6">
    <path d="M 54.872188 28.755 
L 612.872188 28.755 
" style="fill: none; stroke: #000000; stroke-width: 1.25; stroke-linejoin: miter; stroke-linecap: square"/>
   </g>
   <g id="text_21">
    <!-- Groups Over Time -->
    <g transform="translate(272.043437 18.755)scale(0.16 -0.16)">
     <defs>
      <path id="CMUSansSerif-47" d="M 422 2222 
Q 422 3206 1026 3893 
Q 1631 4581 2503 4581 
Q 3169 4581 3781 4275 
L 3688 3744 
Q 3503 3884 3379 3957 
Q 3256 4031 3023 4101 
Q 2791 4172 2516 4172 
Q 1856 4172 1426 3594 
Q 997 3016 997 2228 
Q 997 1409 1436 839 
Q 1875 269 2509 269 
Q 2841 269 3334 403 
L 3334 1516 
L 2484 1516 
L 2484 1913 
L 3834 1913 
L 3834 166 
Q 3194 -141 2503 -141 
Q 1625 -141 1023 551 
Q 422 1244 422 2222 
z
" transform="scale(0.015625)"/>
      <path id="CMUSansSerif-75" d="M 513 781 
L 513 2847 
L 1013 2847 
L 1013 703 
Q 1019 478 1117 383 
Q 1216 288 1522 288 
Q 1853 288 2056 464 
Q 2259 641 2284 872 
Q 2291 934 2291 1056 
L 2291 2847 
L 2791 2847 
L 2791 0 
L 2303 0 
L 2303 306 
Q 1869 -72 1184 -72 
Q 994 -72 858 -11 
Q 722 50 655 128 
Q 588 206 553 343 
Q 519 481 516 561 
Q 513 641 513 781 
z
" transform="scale(0.015625)"/>
      <path id="CMUSansSerif-70" d="M 519 -1247 
L 519 2847 
L 997 2847 
L 997 2534 
Q 1466 2913 2059 2913 
Q 2500 2913 2786 2470 
Q 3072 2028 3072 1434 
Q 3072 775 2717 351 
Q 2363 -72 1881 -72 
Q 1406 -72 1019 294 
L 1019 -1247 
L 519 -1247 
z
M 1019 806 
Q 1019 666 1200 492 
Q 1381 319 1638 319 
Q 1997 319 2281 626 
Q 2566 934 2566 1422 
Q 2566 1856 2323 2179 
Q 2081 2503 1697 2503 
Q 1625 2503 1561 2493 
Q 1497 2484 1442 2461 
Q 1388 2438 1341 2416 
Q 1294 2394 1251 2366 
Q 1209 2338 1178 2311 
Q 1147 2284 1117 2253 
Q 1088 2222 1072 2201 
Q 1056 2181 1038 2163 
L 1019 2138 
L 1019 806 
z
" transform="scale(0.015625)"/>
      <path id="CMUSansSerif-4f" d="M 353 2209 
Q 353 3200 945 3890 
Q 1538 4581 2356 4581 
Q 3163 4581 3755 3890 
Q 4347 3200 4347 2209 
Q 4347 1203 3748 531 
Q 3150 -141 2350 -141 
Q 1544 -141 948 536 
Q 353 1213 353 2209 
z
M 1351 3655 
Q 928 3138 928 2298 
Q 928 1459 1325 867 
Q 1722 275 2350 275 
Q 2959 275 3367 861 
Q 3775 1447 3775 2297 
Q 3775 3134 3353 3653 
Q 2931 4172 2350 4172 
Q 1775 4172 1351 3655 
z
" transform="scale(0.015625)"/>
      <path id="CMUSansSerif-76" d="M 91 2847 
L 581 2847 
L 1178 1288 
Q 1453 506 1484 319 
Q 1534 644 2381 2847 
L 2853 2847 
L 1753 0 
L 1191 0 
L 91 2847 
z
" transform="scale(0.015625)"/>
      <path id="CMUSansSerif-54" d="M 225 3988 
L 225 4409 
L 4116 4409 
L 4116 3988 
L 3206 3988 
L 2456 3994 
L 2456 0 
L 1888 0 
L 1888 3994 
L 1131 3988 
L 225 3988 
z
" transform="scale(0.015625)"/>
     </defs>
     <use xlink:href="#CMUSansSerif-47"/>
     <use xlink:href="#CMUSansSerif-72" x="66.699219"/>
     <use xlink:href="#CMUSansSerif-6f" x="100.878906"/>
     <use xlink:href="#CMUSansSerif-75" x="150.878906"/>
     <use xlink:href="#CMUSansSerif-70" x="202.539062"/>
     <use xlink:href="#CMUSansSerif-73" x="254.199219"/>
     <use xlink:href="#CMUSansSerif-20" x="292.480469"/>
     <use xlink:href="#CMUSansSerif-4f" x="325.732422"/>
     <use xlink:href="#CMUSansSerif-76" x="399.316406"/>
     <use xlink:href="#CMUSansSerif-65" x="445.410156"/>
     <use xlink:href="#CMUSansSerif-72" x="489.794922"/>
     <use xlink:href="#CMUSansSerif-20" x="523.974609"/>
     <use xlink:href="#CMUSansSerif-54" x="557.226562"/>
     <use xlink:href="#CMUSansSerif-69" x="625.195312"/>
     <use xlink:href="#CMUSansSerif-6d" x="649.072266"/>
     <use xlink:href="#CMUSansSerif-65" x="728.466797"/>
    </g>
   </g>
   <g id="legend_1">
    <g id="patch_7">
     <path d="M 62.572188 147.718437 
L 103.272187 147.718437 
Q 105.472187 147.718437 105.472187 145.518437 
L 105.472187 36.455 
Q 105.472187 34.255 103.272187 34.255 
L 62.572188 34.255 
Q 60.372188 34.255 60.372188 36.455 
L 60.372188 145.518437 
Q 60.372188 147.718437 62.572188 147.718437 
z
" style="fill: #ffffff; opacity: 0.8; stroke: #cccccc; stroke-linejoin: miter"/>
    </g>
    <g id="text_22">
     <!-- group -->
     <g transform="translate(68.672188 47.32125)scale(0.12 -0.12)">
      <defs>
       <path id="CMUSansSerif-67" d="M 172 -453 
Q 172 -38 581 206 
Q 422 438 422 691 
Q 422 978 609 1228 
L 609 1234 
Q 397 1509 397 1869 
Q 397 2322 701 2617 
Q 1006 2913 1416 2913 
Q 1741 2913 2041 2700 
L 2028 2713 
Q 2503 2909 3034 2913 
L 3103 2509 
Q 2913 2528 2725 2528 
Q 2706 2528 2247 2503 
L 2188 2553 
Q 2438 2213 2438 1869 
Q 2438 1453 2144 1139 
Q 1850 825 1416 825 
Q 1134 825 831 1019 
Q 759 878 763 781 
Q 763 653 839 547 
Q 916 441 1119 441 
L 1600 441 
Q 1825 441 1981 425 
Q 2138 409 2372 354 
Q 2606 300 2762 156 
Q 2919 13 2981 -213 
Q 3013 -341 3016 -447 
Q 3016 -819 2598 -1069 
Q 2181 -1319 1594 -1319 
Q 1000 -1319 586 -1069 
Q 172 -819 172 -453 
z
M 622 -453 
Q 622 -619 794 -737 
Q 966 -856 1177 -904 
Q 1388 -953 1588 -953 
Q 1991 -953 2278 -815 
Q 2566 -678 2566 -459 
Q 2566 -19 1613 -19 
L 1209 -19 
L 1025 -25 
Q 841 -44 731 -172 
Q 622 -300 622 -453 
z
M 844 1869 
Q 844 1563 1001 1380 
Q 1159 1197 1422 1197 
Q 1641 1197 1816 1353 
Q 1991 1509 1991 1875 
Q 1991 2181 1834 2364 
Q 1678 2547 1416 2547 
Q 1197 2547 1020 2390 
Q 844 2234 844 1869 
z
" transform="scale(0.015625)"/>
      </defs>
      <use xlink:href="#CMUSansSerif-67"/>
      <use xlink:href="#CMUSansSerif-72" x="50"/>
      <use xlink:href="#CMUSansSerif-6f" x="84.179688"/>
      <use xlink:href="#CMUSansSerif-75" x="134.179688"/>
      <use xlink:href="#CMUSansSerif-70" x="185.839844"/>
     </g>
    </g>
    <g id="line2d_25">
     <path d="M 64.772188 59.388437 
L 75.772188 59.388437 
L 86.772188 59.388437 
" style="fill: none; stroke: #a6cee3; stroke-width: 3; stroke-linecap: square"/>
    </g>
    <g id="text_23">
     <!-- 1 -->
     <g transform="translate(95.572187 63.238437)scale(0.11 -0.11)">
      <use xlink:href="#CMUSansSerif-31"/>
     </g>
    </g>
    <g id="line2d_26">
     <path d="M 64.772188 74.975781 
L 75.772188 74.975781 
L 86.772188 74.975781 
" style="fill: none; stroke: #1f78b4; stroke-width: 3; stroke-linecap: square"/>
    </g>
    <g id="text_24">
     <!-- 2 -->
     <g transform="translate(95.572187 78.825781)scale(0.11 -0.11)">
      <use xlink:href="#CMUSansSerif-32"/>
     </g>
    </g>
    <g id="line2d_27">
     <path d="M 64.772188 90.563125 
L 75.772188 90.563125 
L 86.772188 90.563125 
" style="fill: none; stroke: #b2df8a; stroke-width: 3; stroke-linecap: square"/>
    </g>
    <g id="text_25">
     <!-- 3 -->
     <g transform="translate(95.572187 94.413125)scale(0.11 -0.11)">
      <use xlink:href="#CMUSansSerif-33"/>
     </g>
    </g>
    <g id="line2d_28">
     <path d="M 64.772188 106.150469 
L 75.772188 106.150469 
L 86.772188 106.150469 
" style="fill: none; stroke: #33a02c; stroke-width: 3; stroke-linecap: square"/>
    </g>
    <g id="text_26">
     <!-- 4 -->
     <g transform="translate(95.572187 110.000469)scale(0.11 -0.11)">
      <use xlink:href="#CMUSansSerif-34"/>
     </g>
    </g>
    <g id="line2d_29">
     <path d="M 64.772188 121.737812 
L 75.772188 121.737812 
L 86.772188 121.737812 
" style="fill: none; stroke: #fb9a99; stroke-width: 3; stroke-linecap: square"/>
    </g>
    <g id="text_27">
     <!-- 5 -->
     <g transform="translate(95.572187 125.587812)scale(0.11 -0.11)">
      <use xlink:href="#CMUSansSerif-35"/>
     </g>
    </g>
    <g id="line2d_30">
     <path d="M 64.772188 137.325156 
L 75.772188 137.325156 
L 86.772188 137.325156 
" style="fill: none; stroke: #e31a1c; stroke-width: 3; stroke-linecap: square"/>
    </g>
    <g id="text_28">
     <!-- 6 -->
     <g transform="translate(95.572187 141.175156)scale(0.11 -0.11)">
      <use xlink:href="#CMUSansSerif-36"/>
     </g>
    </g>
   </g>
  </g>
 </g>
 <defs>
  <clipPath id="p83c62537fb">
   <rect x="54.872188" y="28.755" width="558" height="380.52"/>
  </clipPath>
 </defs>
</svg>
