<?xml version="1.0" encoding="utf-8" standalone="no"?>
<!DOCTYPE svg PUBLIC "-//W3C//DTD SVG 1.1//EN"
  "http://www.w3.org/Graphics/SVG/1.1/DTD/svg11.dtd">
<svg xmlns:xlink="http://www.w3.org/1999/xlink" width="576pt" height="720pt" viewBox="0 0 576 720" xmlns="http://www.w3.org/2000/svg" version="1.1">
 <metadata>
  <rdf:RDF xmlns:dc="http://purl.org/dc/elements/1.1/" xmlns:cc="http://creativecommons.org/ns#" xmlns:rdf="http://www.w3.org/1999/02/22-rdf-syntax-ns#">
   <cc:Work>
    <dc:type rdf:resource="http://purl.org/dc/dcmitype/StillImage"/>
    <dc:date>2022-09-08T08:36:13.643862</dc:date>
    <dc:format>image/svg+xml</dc:format>
    <dc:creator>
     <cc:Agent>
      <dc:title>Matplotlib v3.5.2, https://matplotlib.org/</dc:title>
     </cc:Agent>
    </dc:creator>
   </cc:Work>
  </rdf:RDF>
 </metadata>
 <defs>
  <style type="text/css">*{stroke-linejoin: round; stroke-linecap: butt}</style>
 </defs>
 <g id="figure_1">
  <g id="patch_1">
   <path d="M 0 720 
L 576 720 
L 576 0 
L 0 0 
L 0 720 
z
" style="fill: none"/>
  </g>
  <g id="axes_1">
   <g id="patch_2">
    <path d="M 72 333.490909 
L 518.4 333.490909 
L 518.4 86.4 
L 72 86.4 
L 72 333.490909 
z
" style="fill: none"/>
   </g>
   <g id="PolyCollection_1">
    <defs>
     <path id="mbcf142e456" d="M 40.543675 -386.51025 
L 40.543675 -386.509091 
L 43.186117 -386.509091 
L 45.828559 -386.509091 
L 48.471001 -386.509091 
L 51.113443 -386.509091 
L 53.755886 -386.509091 
L 56.398328 -386.509091 
L 59.04077 -386.509091 
L 61.683212 -386.509091 
L 64.325654 -386.509091 
L 66.968096 -386.509091 
L 69.610538 -386.509091 
L 72.25298 -386.509091 
L 74.895423 -386.509091 
L 77.537865 -386.509091 
L 80.180307 -386.509091 
L 82.822749 -386.509091 
L 85.465191 -386.509091 
L 88.107633 -386.509091 
L 90.750075 -386.509091 
L 93.392517 -386.509091 
L 96.03496 -386.509091 
L 98.677402 -386.509091 
L 101.319844 -386.509091 
L 103.962286 -386.509091 
L 106.604728 -386.509091 
L 109.24717 -386.509091 
L 111.889612 -386.509091 
L 114.532054 -386.509091 
L 117.174497 -386.509091 
L 119.816939 -386.509091 
L 122.459381 -386.509091 
L 125.101823 -386.509091 
L 127.744265 -386.509091 
L 130.386707 -386.509091 
L 133.029149 -386.509091 
L 135.671591 -386.509091 
L 138.314034 -386.509091 
L 140.956476 -386.509091 
L 143.598918 -386.509091 
L 146.24136 -386.509091 
L 148.883802 -386.509091 
L 151.526244 -386.509091 
L 154.168686 -386.509091 
L 156.811129 -386.509091 
L 159.453571 -386.509091 
L 162.096013 -386.509091 
L 164.738455 -386.509091 
L 167.380897 -386.509091 
L 170.023339 -386.509091 
L 172.665781 -386.509091 
L 175.308223 -386.509091 
L 177.950666 -386.509091 
L 180.593108 -386.509091 
L 183.23555 -386.509091 
L 185.877992 -386.509091 
L 188.520434 -386.509091 
L 191.162876 -386.509091 
L 193.805318 -386.509091 
L 196.44776 -386.509091 
L 199.090203 -386.509091 
L 201.732645 -386.509091 
L 204.375087 -386.509091 
L 207.017529 -386.509091 
L 209.659971 -386.509091 
L 212.302413 -386.509091 
L 214.944855 -386.509091 
L 217.587297 -386.509091 
L 220.22974 -386.509091 
L 222.872182 -386.509091 
L 225.514624 -386.509091 
L 228.157066 -386.509091 
L 230.799508 -386.509091 
L 233.44195 -386.509091 
L 236.084392 -386.509091 
L 238.726835 -386.509091 
L 241.369277 -386.509091 
L 244.011719 -386.509091 
L 246.654161 -386.509091 
L 249.296603 -386.509091 
L 251.939045 -386.509091 
L 254.581487 -386.509091 
L 257.223929 -386.509091 
L 259.866372 -386.509091 
L 262.508814 -386.509091 
L 265.151256 -386.509091 
L 267.793698 -386.509091 
L 270.43614 -386.509091 
L 273.078582 -386.509091 
L 275.721024 -386.509091 
L 278.363466 -386.509091 
L 281.005909 -386.509091 
L 283.648351 -386.509091 
L 286.290793 -386.509091 
L 288.933235 -386.509091 
L 291.575677 -386.509091 
L 294.218119 -386.509091 
L 296.860561 -386.509091 
L 299.503003 -386.509091 
L 302.145446 -386.509091 
L 304.787888 -386.509091 
L 307.43033 -386.509091 
L 310.072772 -386.509091 
L 312.715214 -386.509091 
L 315.357656 -386.509091 
L 318.000098 -386.509091 
L 320.642541 -386.509091 
L 323.284983 -386.509091 
L 325.927425 -386.509091 
L 328.569867 -386.509091 
L 331.212309 -386.509091 
L 333.854751 -386.509091 
L 336.497193 -386.509091 
L 339.139635 -386.509091 
L 341.782078 -386.509091 
L 344.42452 -386.509091 
L 347.066962 -386.509091 
L 349.709404 -386.509091 
L 352.351846 -386.509091 
L 354.994288 -386.509091 
L 357.63673 -386.509091 
L 360.279172 -386.509091 
L 362.921615 -386.509091 
L 365.564057 -386.509091 
L 368.206499 -386.509091 
L 370.848941 -386.509091 
L 373.491383 -386.509091 
L 376.133825 -386.509091 
L 378.776267 -386.509091 
L 381.418709 -386.509091 
L 384.061152 -386.509091 
L 386.703594 -386.509091 
L 389.346036 -386.509091 
L 391.988478 -386.509091 
L 394.63092 -386.509091 
L 397.273362 -386.509091 
L 399.915804 -386.509091 
L 402.558246 -386.509091 
L 405.200689 -386.509091 
L 407.843131 -386.509091 
L 410.485573 -386.509091 
L 413.128015 -386.509091 
L 415.770457 -386.509091 
L 418.412899 -386.509091 
L 421.055341 -386.509091 
L 423.697784 -386.509091 
L 426.340226 -386.509091 
L 428.982668 -386.509091 
L 431.62511 -386.509091 
L 434.267552 -386.509091 
L 436.909994 -386.509091 
L 439.552436 -386.509091 
L 442.194878 -386.509091 
L 444.837321 -386.509091 
L 447.479763 -386.509091 
L 450.122205 -386.509091 
L 452.764647 -386.509091 
L 455.407089 -386.509091 
L 458.049531 -386.509091 
L 460.691973 -386.509091 
L 463.334415 -386.509091 
L 465.976858 -386.509091 
L 468.6193 -386.509091 
L 471.261742 -386.509091 
L 473.904184 -386.509091 
L 476.546626 -386.509091 
L 479.189068 -386.509091 
L 481.83151 -386.509091 
L 484.473952 -386.509091 
L 487.116395 -386.509091 
L 489.758837 -386.509091 
L 492.401279 -386.509091 
L 495.043721 -386.509091 
L 497.686163 -386.509091 
L 500.328605 -386.509091 
L 502.971047 -386.509091 
L 505.61349 -386.509091 
L 508.255932 -386.509091 
L 510.898374 -386.509091 
L 513.540816 -386.509091 
L 516.183258 -386.509091 
L 518.8257 -386.509091 
L 521.468142 -386.509091 
L 524.110584 -386.509091 
L 526.753027 -386.509091 
L 529.395469 -386.509091 
L 532.037911 -386.509091 
L 534.680353 -386.509091 
L 537.322795 -386.509091 
L 539.965237 -386.509091 
L 542.607679 -386.509091 
L 545.250121 -386.509091 
L 547.892564 -386.509091 
L 550.535006 -386.509091 
L 553.177448 -386.509091 
L 555.81989 -386.509091 
L 558.462332 -386.509091 
L 561.104774 -386.509091 
L 563.747216 -386.509091 
L 566.389658 -386.509091 
L 566.389658 -388.387067 
L 566.389658 -388.387067 
L 563.747216 -389.550225 
L 561.104774 -391.301468 
L 558.462332 -393.858363 
L 555.81989 -397.477086 
L 553.177448 -402.439102 
L 550.535006 -409.027297 
L 547.892564 -417.491317 
L 545.250121 -428.004284 
L 542.607679 -440.615985 
L 539.965237 -455.2105 
L 537.322795 -471.47808 
L 534.680353 -488.911166 
L 532.037911 -506.83195 
L 529.395469 -524.45379 
L 526.753027 -540.971779 
L 524.110584 -555.67016 
L 521.468142 -568.028069 
L 518.8257 -577.802213 
L 516.183258 -585.06689 
L 513.540816 -590.198623 
L 510.898374 -593.803506 
L 508.255932 -596.597969 
L 505.61349 -599.264944 
L 502.971047 -602.314537 
L 500.328605 -605.979027 
L 497.686163 -610.16576 
L 495.043721 -614.47943 
L 492.401279 -618.309953 
L 489.758837 -620.967281 
L 487.116395 -621.833766 
L 484.473952 -620.500569 
L 481.83151 -616.858433 
L 479.189068 -611.123797 
L 476.546626 -603.796281 
L 473.904184 -595.559263 
L 471.261742 -587.147851 
L 468.6193 -579.215046 
L 465.976858 -572.225928 
L 463.334415 -566.401687 
L 460.691973 -561.722545 
L 458.049531 -557.984187 
L 455.407089 -554.889926 
L 452.764647 -552.153221 
L 450.122205 -549.584132 
L 447.479763 -547.138652 
L 444.837321 -544.920218 
L 442.194878 -543.135258 
L 439.552436 -542.016265 
L 436.909994 -541.733888 
L 434.267552 -542.321904 
L 431.62511 -543.635347 
L 428.982668 -545.353508 
L 426.340226 -547.028164 
L 423.697784 -548.166095 
L 421.055341 -548.326485 
L 418.412899 -547.2102 
L 415.770457 -544.72 
L 413.128015 -540.977836 
L 410.485573 -536.295776 
L 407.843131 -531.108023 
L 405.200689 -525.880435 
L 402.558246 -521.018692 
L 399.915804 -516.795785 
L 397.273362 -513.314164 
L 394.63092 -510.509029 
L 391.988478 -508.189298 
L 389.346036 -506.10401 
L 386.703594 -504.016543 
L 384.061152 -501.768061 
L 381.418709 -499.315211 
L 378.776267 -496.734107 
L 376.133825 -494.191305 
L 373.491383 -491.890574 
L 370.848941 -490.009926 
L 368.206499 -488.645237 
L 365.564057 -487.774651 
L 362.921615 -487.252439 
L 360.279172 -486.833538 
L 357.63673 -486.222539 
L 354.994288 -485.135186 
L 352.351846 -483.357867 
L 349.709404 -480.791517 
L 347.066962 -477.470568 
L 344.42452 -473.55379 
L 341.782078 -469.290567 
L 339.139635 -464.971644 
L 336.497193 -460.876402 
L 333.854751 -457.228715 
L 331.212309 -454.170513 
L 328.569867 -451.757229 
L 325.927425 -449.973647 
L 323.284983 -448.763695 
L 320.642541 -448.064646 
L 318.000098 -447.835618 
L 315.357656 -448.072342 
L 312.715214 -448.804153 
L 310.072772 -450.074207 
L 307.43033 -451.908555 
L 304.787888 -454.282978 
L 302.145446 -457.097408 
L 299.503003 -460.166197 
L 296.860561 -463.228763 
L 294.218119 -465.980136 
L 291.575677 -468.11589 
L 288.933235 -469.382143 
L 286.290793 -469.619676 
L 283.648351 -468.792235 
L 281.005909 -466.992533 
L 278.363466 -464.424476 
L 275.721024 -461.365526 
L 273.078582 -458.117525 
L 270.43614 -454.956696 
L 267.793698 -452.093346 
L 265.151256 -449.649138 
L 262.508814 -447.655402 
L 259.866372 -446.070878 
L 257.223929 -444.812883 
L 254.581487 -443.793032 
L 251.939045 -442.948176 
L 249.296603 -442.2589 
L 246.654161 -441.751538 
L 244.011719 -441.48402 
L 241.369277 -441.52009 
L 238.726835 -441.899332 
L 236.084392 -442.611466 
L 233.44195 -443.582221 
L 230.799508 -444.67514 
L 228.157066 -445.709623 
L 225.514624 -446.491422 
L 222.872182 -446.848645 
L 220.22974 -446.664888 
L 217.587297 -445.90173 
L 214.944855 -444.60533 
L 212.302413 -442.89563 
L 209.659971 -440.94072 
L 207.017529 -438.922312 
L 204.375087 -437.000187 
L 201.732645 -435.283418 
L 199.090203 -433.814391 
L 196.44776 -432.568394 
L 193.805318 -431.467891 
L 191.162876 -430.407252 
L 188.520434 -429.281581 
L 185.877992 -428.012724 
L 183.23555 -426.566635 
L 180.593108 -424.958688 
L 177.950666 -423.246563 
L 175.308223 -421.513231 
L 172.665781 -419.84475 
L 170.023339 -418.308409 
L 167.380897 -416.936321 
L 164.738455 -415.717938 
L 162.096013 -414.602654 
L 159.453571 -413.51129 
L 156.811129 -412.353367 
L 154.168686 -411.046037 
L 151.526244 -409.530558 
L 148.883802 -407.783127 
L 146.24136 -405.818421 
L 143.598918 -403.685882 
L 140.956476 -401.460312 
L 138.314034 -399.229216 
L 135.671591 -397.079685 
L 133.029149 -395.087172 
L 130.386707 -393.307798 
L 127.744265 -391.774815 
L 125.101823 -390.498952 
L 122.459381 -389.471755 
L 119.816939 -388.670654 
L 117.174497 -388.064571 
L 114.532054 -387.619051 
L 111.889612 -387.300306 
L 109.24717 -387.077921 
L 106.604728 -386.926268 
L 103.962286 -386.824887 
L 101.319844 -386.758151 
L 98.677402 -386.714551 
L 96.03496 -386.685855 
L 93.392517 -386.666313 
L 90.750075 -386.651996 
L 88.107633 -386.640297 
L 85.465191 -386.629574 
L 82.822749 -386.618889 
L 80.180307 -386.607828 
L 77.537865 -386.596347 
L 74.895423 -386.584648 
L 72.25298 -386.573069 
L 69.610538 -386.561989 
L 66.968096 -386.551755 
L 64.325654 -386.542633 
L 61.683212 -386.534783 
L 59.04077 -386.528257 
L 56.398328 -386.523012 
L 53.755886 -386.518935 
L 51.113443 -386.515866 
L 48.471001 -386.51363 
L 45.828559 -386.51205 
L 43.186117 -386.510969 
L 40.543675 -386.51025 
z
" style="stroke: #ff2400; stroke-width: 2"/>
    </defs>
    <g clip-path="url(#p4f577a2c02)">
     <use xlink:href="#mbcf142e456" x="0" y="720" style="fill: #ff2400; fill-opacity: 0.25; stroke: #ff2400; stroke-width: 2"/>
    </g>
   </g>
   <g id="matplotlib.axis_1">
    <g id="xtick_1">
     <g id="line2d_1">
      <defs>
       <path id="mf7ee27b5b9" d="M 0 0 
L 0 6 
" style="stroke: #000000; stroke-width: 1.25"/>
      </defs>
      <g>
       <use xlink:href="#mf7ee27b5b9" x="121.6" y="333.490909" style="stroke: #000000; stroke-width: 1.25"/>
      </g>
     </g>
     <g id="text_1">
      <!-- 2010 -->
      <g transform="translate(109.6 351.657159)scale(0.12 -0.12)">
       <defs>
        <path id="CMUSansSerif-32" d="M 263 3291 
Q 575 4341 1503 4341 
Q 2119 4341 2497 3936 
Q 2875 3531 2875 2969 
Q 2875 2744 2814 2559 
Q 2753 2375 2576 2167 
Q 2400 1959 2265 1831 
Q 2131 1703 1806 1416 
Q 1634 1263 775 447 
L 2875 453 
L 2875 0 
L 313 0 
L 313 416 
L 1147 1241 
Q 1197 1291 1367 1445 
Q 1538 1600 1594 1654 
Q 1650 1709 1787 1846 
Q 1925 1984 1976 2057 
Q 2028 2131 2122 2256 
Q 2216 2381 2247 2476 
Q 2278 2572 2311 2697 
Q 2344 2822 2344 2950 
Q 2344 3359 2084 3640 
Q 1825 3922 1422 3922 
Q 1203 3922 1033 3823 
Q 863 3725 777 3581 
Q 691 3438 636 3294 
Q 581 3150 563 3047 
L 538 2938 
L 263 3291 
z
" transform="scale(0.015625)"/>
        <path id="CMUSansSerif-30" d="M 263 1984 
L 263 2094 
Q 263 2344 272 2528 
Q 281 2713 332 3017 
Q 384 3322 473 3536 
Q 563 3750 748 3958 
Q 934 4166 1191 4263 
Q 1388 4341 1594 4341 
Q 1772 4341 1939 4292 
Q 2106 4244 2292 4100 
Q 2478 3956 2615 3731 
Q 2753 3506 2842 3112 
Q 2931 2719 2931 2209 
L 2931 2075 
Q 2931 1831 2922 1639 
Q 2913 1447 2861 1151 
Q 2809 856 2717 642 
Q 2625 428 2439 226 
Q 2253 25 1997 -72 
Q 1784 -144 1594 -141 
Q 1416 -141 1252 -95 
Q 1088 -50 898 87 
Q 709 225 575 448 
Q 441 672 352 1069 
Q 263 1466 263 1984 
z
M 763 1984 
Q 763 1556 820 1232 
Q 878 909 961 726 
Q 1044 544 1162 431 
Q 1281 319 1382 284 
Q 1484 250 1600 250 
Q 1747 250 1875 317 
Q 2003 384 2137 553 
Q 2272 722 2351 1090 
Q 2431 1459 2431 1991 
L 2431 2369 
Q 2431 2856 2351 3187 
Q 2272 3519 2134 3673 
Q 1997 3828 1869 3886 
Q 1741 3944 1594 3944 
Q 1447 3944 1319 3886 
Q 1191 3828 1056 3673 
Q 922 3519 842 3183 
Q 763 2847 763 2369 
L 763 1984 
z
" transform="scale(0.015625)"/>
        <path id="CMUSansSerif-31" d="M 575 3547 
L 575 3916 
Q 1344 3916 1797 4341 
L 1919 4341 
L 1919 378 
L 2719 378 
L 2719 0 
L 609 0 
L 609 378 
L 1409 378 
L 1409 3694 
Q 1028 3547 575 3547 
z
" transform="scale(0.015625)"/>
       </defs>
       <use xlink:href="#CMUSansSerif-32"/>
       <use xlink:href="#CMUSansSerif-30" x="50"/>
       <use xlink:href="#CMUSansSerif-31" x="100"/>
       <use xlink:href="#CMUSansSerif-30" x="150"/>
      </g>
     </g>
    </g>
    <g id="xtick_2">
     <g id="line2d_2">
      <g>
       <use xlink:href="#mf7ee27b5b9" x="187.733333" y="333.490909" style="stroke: #000000; stroke-width: 1.25"/>
      </g>
     </g>
     <g id="text_2">
      <!-- 2012 -->
      <g transform="translate(175.733333 351.657159)scale(0.12 -0.12)">
       <use xlink:href="#CMUSansSerif-32"/>
       <use xlink:href="#CMUSansSerif-30" x="50"/>
       <use xlink:href="#CMUSansSerif-31" x="100"/>
       <use xlink:href="#CMUSansSerif-32" x="150"/>
      </g>
     </g>
    </g>
    <g id="xtick_3">
     <g id="line2d_3">
      <g>
       <use xlink:href="#mf7ee27b5b9" x="253.866667" y="333.490909" style="stroke: #000000; stroke-width: 1.25"/>
      </g>
     </g>
     <g id="text_3">
      <!-- 2014 -->
      <g transform="translate(241.866667 351.657159)scale(0.12 -0.12)">
       <defs>
        <path id="CMUSansSerif-34" d="M 172 1094 
Q 172 1094 172 1403 
Q 172 1481 244 1600 
L 1791 4191 
L 2381 4191 
L 2381 1484 
L 3016 1484 
L 3016 1094 
L 2381 1094 
L 2381 0 
L 1869 0 
L 1869 1094 
L 172 1094 
z
M 672 1484 
L 1906 1484 
L 1906 3956 
Q 1869 3719 1725 3392 
Q 1581 3066 1453 2839 
Q 1325 2613 891 1863 
Q 750 1619 672 1484 
z
" transform="scale(0.015625)"/>
       </defs>
       <use xlink:href="#CMUSansSerif-32"/>
       <use xlink:href="#CMUSansSerif-30" x="50"/>
       <use xlink:href="#CMUSansSerif-31" x="100"/>
       <use xlink:href="#CMUSansSerif-34" x="150"/>
      </g>
     </g>
    </g>
    <g id="xtick_4">
     <g id="line2d_4">
      <g>
       <use xlink:href="#mf7ee27b5b9" x="320" y="333.490909" style="stroke: #000000; stroke-width: 1.25"/>
      </g>
     </g>
     <g id="text_4">
      <!-- 2016 -->
      <g transform="translate(308 351.657159)scale(0.12 -0.12)">
       <defs>
        <path id="CMUSansSerif-36" d="M 269 2069 
Q 269 3028 755 3684 
Q 1241 4341 1978 4341 
Q 2309 4341 2663 4213 
L 2663 3828 
Q 2297 3963 1978 3963 
Q 1606 3963 1331 3703 
Q 1056 3444 940 3114 
Q 825 2784 806 2431 
Q 1003 2681 1292 2818 
Q 1581 2956 1888 2956 
Q 2309 2956 2584 2566 
Q 2925 2091 2925 1434 
Q 2925 725 2484 256 
Q 2113 -141 1613 -141 
Q 1434 -141 1264 -89 
Q 1094 -38 908 109 
Q 722 256 584 489 
Q 447 722 358 1130 
Q 269 1538 269 2069 
z
M 813 1409 
Q 934 256 1606 256 
Q 1931 256 2120 476 
Q 2309 697 2369 966 
Q 2400 1106 2400 1394 
Q 2400 1950 2222 2234 
Q 2009 2566 1638 2566 
Q 1278 2566 1048 2275 
Q 819 1984 819 1581 
Q 819 1525 831 1409 
L 813 1409 
z
" transform="scale(0.015625)"/>
       </defs>
       <use xlink:href="#CMUSansSerif-32"/>
       <use xlink:href="#CMUSansSerif-30" x="50"/>
       <use xlink:href="#CMUSansSerif-31" x="100"/>
       <use xlink:href="#CMUSansSerif-36" x="150"/>
      </g>
     </g>
    </g>
    <g id="xtick_5">
     <g id="line2d_5">
      <g>
       <use xlink:href="#mf7ee27b5b9" x="386.133333" y="333.490909" style="stroke: #000000; stroke-width: 1.25"/>
      </g>
     </g>
     <g id="text_5">
      <!-- 2018 -->
      <g transform="translate(374.133333 351.657159)scale(0.12 -0.12)">
       <defs>
        <path id="CMUSansSerif-38" d="M 263 1153 
Q 263 1513 480 1806 
Q 697 2100 1153 2266 
Q 847 2363 600 2608 
Q 353 2853 353 3219 
Q 353 3666 711 4003 
Q 1069 4341 1594 4341 
Q 2125 4341 2479 4000 
Q 2834 3659 2834 3219 
Q 2834 2919 2636 2666 
Q 2438 2413 2034 2266 
Q 2388 2156 2656 1865 
Q 2925 1575 2925 1147 
Q 2925 634 2540 246 
Q 2156 -141 1594 -141 
Q 1038 -141 650 243 
Q 263 628 263 1153 
z
M 781 1159 
Q 781 750 1004 503 
Q 1228 256 1594 256 
Q 1947 256 2176 500 
Q 2406 744 2406 1166 
Q 2406 1569 2179 1819 
Q 1953 2069 1594 2069 
Q 1281 2069 1031 1841 
Q 781 1613 781 1159 
z
M 800 3213 
Q 800 2872 1020 2667 
Q 1241 2463 1588 2463 
Q 1947 2463 2167 2672 
Q 2388 2881 2388 3213 
Q 2388 3553 2167 3758 
Q 1947 3963 1594 3963 
Q 1234 3963 1017 3753 
Q 800 3544 800 3213 
z
" transform="scale(0.015625)"/>
       </defs>
       <use xlink:href="#CMUSansSerif-32"/>
       <use xlink:href="#CMUSansSerif-30" x="50"/>
       <use xlink:href="#CMUSansSerif-31" x="100"/>
       <use xlink:href="#CMUSansSerif-38" x="150"/>
      </g>
     </g>
    </g>
    <g id="xtick_6">
     <g id="line2d_6">
      <g>
       <use xlink:href="#mf7ee27b5b9" x="452.266667" y="333.490909" style="stroke: #000000; stroke-width: 1.25"/>
      </g>
     </g>
     <g id="text_6">
      <!-- 2020 -->
      <g transform="translate(440.266667 351.657159)scale(0.12 -0.12)">
       <use xlink:href="#CMUSansSerif-32"/>
       <use xlink:href="#CMUSansSerif-30" x="50"/>
       <use xlink:href="#CMUSansSerif-32" x="100"/>
       <use xlink:href="#CMUSansSerif-30" x="150"/>
      </g>
     </g>
    </g>
    <g id="xtick_7">
     <g id="line2d_7">
      <g>
       <use xlink:href="#mf7ee27b5b9" x="518.4" y="333.490909" style="stroke: #000000; stroke-width: 1.25"/>
      </g>
     </g>
     <g id="text_7">
      <!-- 2022 -->
      <g transform="translate(506.4 351.657159)scale(0.12 -0.12)">
       <use xlink:href="#CMUSansSerif-32"/>
       <use xlink:href="#CMUSansSerif-30" x="50"/>
       <use xlink:href="#CMUSansSerif-32" x="100"/>
       <use xlink:href="#CMUSansSerif-32" x="150"/>
      </g>
     </g>
    </g>
    <g id="text_8">
     <!-- Year -->
     <g transform="translate(281.670312 368.105909)scale(0.14 -0.14)">
      <defs>
       <path id="CMUSansSerif-59" d="M 13 4441 
L 684 4441 
L 1625 3078 
Q 2138 2309 2181 2228 
Q 2406 2625 3675 4441 
L 4238 4441 
L 2406 1778 
L 2406 0 
L 1850 0 
L 1850 1778 
L 13 4441 
z
" transform="scale(0.015625)"/>
       <path id="CMUSansSerif-65" d="M 219 1447 
Q 219 2081 605 2515 
Q 991 2950 1509 2950 
Q 1700 2950 1873 2889 
Q 2047 2828 2223 2687 
Q 2400 2547 2515 2265 
Q 2631 1984 2650 1594 
L 2650 1409 
L 666 1409 
Q 684 928 959 626 
Q 1234 325 1613 325 
Q 2100 325 2584 678 
L 2625 256 
Q 2138 -69 1613 -72 
Q 1003 -72 611 379 
Q 219 831 219 1447 
z
M 697 1759 
L 2284 1759 
Q 2247 2009 2147 2182 
Q 2047 2356 1922 2429 
Q 1797 2503 1698 2528 
Q 1600 2553 1509 2553 
Q 1184 2553 971 2303 
Q 759 2053 697 1759 
z
" transform="scale(0.015625)"/>
       <path id="CMUSansSerif-61" d="M 281 722 
Q 281 959 461 1136 
Q 641 1313 931 1398 
Q 1222 1484 1500 1526 
Q 1778 1569 2059 1569 
L 2059 1784 
Q 2047 2194 1894 2375 
Q 1734 2566 1491 2566 
Q 997 2566 531 2241 
L 494 2669 
Q 975 2950 1497 2950 
Q 1938 2950 2236 2659 
Q 2534 2369 2559 1953 
L 2559 0 
L 2075 0 
L 2075 225 
Q 2050 200 1956 142 
Q 1863 84 1594 6 
Q 1325 -72 1013 -72 
Q 647 -72 464 187 
Q 281 447 281 722 
z
M 750 728 
Q 750 556 919 440 
Q 1088 325 1344 325 
Q 1619 325 1839 440 
Q 2059 556 2059 831 
L 2059 1234 
Q 1863 1234 1658 1209 
Q 1453 1184 1236 1132 
Q 1019 1081 884 975 
Q 750 869 750 728 
z
" transform="scale(0.015625)"/>
       <path id="CMUSansSerif-72" d="M 519 0 
L 519 2881 
L 966 2881 
L 966 2303 
Q 1044 2425 1151 2537 
Q 1259 2650 1518 2778 
Q 1778 2906 2088 2913 
L 2088 2484 
Q 1922 2478 1755 2423 
Q 1588 2369 1405 2250 
Q 1222 2131 1109 1887 
Q 997 1644 997 1319 
L 997 0 
L 519 0 
z
" transform="scale(0.015625)"/>
      </defs>
      <use xlink:href="#CMUSansSerif-59"/>
      <use xlink:href="#CMUSansSerif-65" x="66.699219"/>
      <use xlink:href="#CMUSansSerif-61" x="111.083984"/>
      <use xlink:href="#CMUSansSerif-72" x="159.082031"/>
     </g>
    </g>
   </g>
   <g id="matplotlib.axis_2">
    <g id="ytick_1">
     <g id="line2d_8">
      <defs>
       <path id="m6995962180" d="M 0 0 
L -6 0 
" style="stroke: #000000; stroke-width: 1.25"/>
      </defs>
      <g>
       <use xlink:href="#m6995962180" x="72" y="333.490909" style="stroke: #000000; stroke-width: 1.25"/>
      </g>
     </g>
     <g id="text_9">
      <!-- 0.000 -->
      <g transform="translate(35.16625 337.824034)scale(0.12 -0.12)">
       <defs>
        <path id="CMUSansSerif-2e" d="M 616 0 
L 616 538 
L 1153 538 
L 1153 0 
L 616 0 
z
" transform="scale(0.015625)"/>
       </defs>
       <use xlink:href="#CMUSansSerif-30"/>
       <use xlink:href="#CMUSansSerif-2e" x="50"/>
       <use xlink:href="#CMUSansSerif-30" x="77.783203"/>
       <use xlink:href="#CMUSansSerif-30" x="127.783203"/>
       <use xlink:href="#CMUSansSerif-30" x="177.783203"/>
      </g>
     </g>
    </g>
    <g id="ytick_2">
     <g id="line2d_9">
      <g>
       <use xlink:href="#m6995962180" x="72" y="301.128108" style="stroke: #000000; stroke-width: 1.25"/>
      </g>
     </g>
     <g id="text_10">
      <!-- 0.025 -->
      <g transform="translate(35.16625 305.461233)scale(0.12 -0.12)">
       <defs>
        <path id="CMUSansSerif-35" d="M 244 488 
L 459 844 
Q 819 256 1459 256 
Q 1778 256 2037 503 
Q 2297 750 2297 1313 
Q 2297 1838 2108 2091 
Q 1919 2344 1644 2344 
Q 1209 2344 941 1831 
L 506 1831 
L 506 4191 
L 2663 4191 
L 2663 3781 
L 972 3781 
L 972 2472 
Q 1297 2734 1656 2731 
Q 2150 2731 2512 2318 
Q 2875 1906 2875 1306 
Q 2875 691 2454 275 
Q 2034 -141 1466 -141 
Q 1100 -141 775 29 
Q 450 200 244 488 
z
" transform="scale(0.015625)"/>
       </defs>
       <use xlink:href="#CMUSansSerif-30"/>
       <use xlink:href="#CMUSansSerif-2e" x="50"/>
       <use xlink:href="#CMUSansSerif-30" x="77.783203"/>
       <use xlink:href="#CMUSansSerif-32" x="127.783203"/>
       <use xlink:href="#CMUSansSerif-35" x="177.783203"/>
      </g>
     </g>
    </g>
    <g id="ytick_3">
     <g id="line2d_10">
      <g>
       <use xlink:href="#m6995962180" x="72" y="268.765306" style="stroke: #000000; stroke-width: 1.25"/>
      </g>
     </g>
     <g id="text_11">
      <!-- 0.050 -->
      <g transform="translate(35.16625 273.098431)scale(0.12 -0.12)">
       <use xlink:href="#CMUSansSerif-30"/>
       <use xlink:href="#CMUSansSerif-2e" x="50"/>
       <use xlink:href="#CMUSansSerif-30" x="77.783203"/>
       <use xlink:href="#CMUSansSerif-35" x="127.783203"/>
       <use xlink:href="#CMUSansSerif-30" x="177.783203"/>
      </g>
     </g>
    </g>
    <g id="ytick_4">
     <g id="line2d_11">
      <g>
       <use xlink:href="#m6995962180" x="72" y="236.402505" style="stroke: #000000; stroke-width: 1.25"/>
      </g>
     </g>
     <g id="text_12">
      <!-- 0.075 -->
      <g transform="translate(35.16625 240.73563)scale(0.12 -0.12)">
       <defs>
        <path id="CMUSansSerif-37" d="M 263 3744 
L 263 4197 
L 2925 4191 
L 2925 3775 
Q 2247 2994 1878 1989 
Q 1509 984 1509 -72 
L 966 -72 
Q 966 941 1337 1923 
Q 1709 2906 2491 3744 
L 263 3744 
z
" transform="scale(0.015625)"/>
       </defs>
       <use xlink:href="#CMUSansSerif-30"/>
       <use xlink:href="#CMUSansSerif-2e" x="50"/>
       <use xlink:href="#CMUSansSerif-30" x="77.783203"/>
       <use xlink:href="#CMUSansSerif-37" x="127.783203"/>
       <use xlink:href="#CMUSansSerif-35" x="177.783203"/>
      </g>
     </g>
    </g>
    <g id="ytick_5">
     <g id="line2d_12">
      <g>
       <use xlink:href="#m6995962180" x="72" y="204.039703" style="stroke: #000000; stroke-width: 1.25"/>
      </g>
     </g>
     <g id="text_13">
      <!-- 0.100 -->
      <g transform="translate(35.16625 208.372828)scale(0.12 -0.12)">
       <use xlink:href="#CMUSansSerif-30"/>
       <use xlink:href="#CMUSansSerif-2e" x="50"/>
       <use xlink:href="#CMUSansSerif-31" x="77.783203"/>
       <use xlink:href="#CMUSansSerif-30" x="127.783203"/>
       <use xlink:href="#CMUSansSerif-30" x="177.783203"/>
      </g>
     </g>
    </g>
    <g id="ytick_6">
     <g id="line2d_13">
      <g>
       <use xlink:href="#m6995962180" x="72" y="171.676902" style="stroke: #000000; stroke-width: 1.25"/>
      </g>
     </g>
     <g id="text_14">
      <!-- 0.125 -->
      <g transform="translate(35.16625 176.010027)scale(0.12 -0.12)">
       <use xlink:href="#CMUSansSerif-30"/>
       <use xlink:href="#CMUSansSerif-2e" x="50"/>
       <use xlink:href="#CMUSansSerif-31" x="77.783203"/>
       <use xlink:href="#CMUSansSerif-32" x="127.783203"/>
       <use xlink:href="#CMUSansSerif-35" x="177.783203"/>
      </g>
     </g>
    </g>
    <g id="ytick_7">
     <g id="line2d_14">
      <g>
       <use xlink:href="#m6995962180" x="72" y="139.3141" style="stroke: #000000; stroke-width: 1.25"/>
      </g>
     </g>
     <g id="text_15">
      <!-- 0.150 -->
      <g transform="translate(35.16625 143.647225)scale(0.12 -0.12)">
       <use xlink:href="#CMUSansSerif-30"/>
       <use xlink:href="#CMUSansSerif-2e" x="50"/>
       <use xlink:href="#CMUSansSerif-31" x="77.783203"/>
       <use xlink:href="#CMUSansSerif-35" x="127.783203"/>
       <use xlink:href="#CMUSansSerif-30" x="177.783203"/>
      </g>
     </g>
    </g>
    <g id="ytick_8">
     <g id="line2d_15">
      <g>
       <use xlink:href="#m6995962180" x="72" y="106.951299" style="stroke: #000000; stroke-width: 1.25"/>
      </g>
     </g>
     <g id="text_16">
      <!-- 0.175 -->
      <g transform="translate(35.16625 111.284424)scale(0.12 -0.12)">
       <use xlink:href="#CMUSansSerif-30"/>
       <use xlink:href="#CMUSansSerif-2e" x="50"/>
       <use xlink:href="#CMUSansSerif-31" x="77.783203"/>
       <use xlink:href="#CMUSansSerif-37" x="127.783203"/>
       <use xlink:href="#CMUSansSerif-35" x="177.783203"/>
      </g>
     </g>
    </g>
    <g id="text_17">
     <!-- Fraction of Dataset -->
     <g transform="translate(22.438437 266.998736)rotate(-90)scale(0.14 -0.14)">
      <defs>
       <path id="CMUSansSerif-46" d="M 603 0 
L 603 4422 
L 3372 4422 
L 3372 4000 
L 3022 4000 
L 2869 4006 
L 1381 4006 
L 1178 4013 
L 1178 2406 
L 3103 2406 
L 3103 2016 
L 1178 2016 
L 1178 0 
L 603 0 
z
" transform="scale(0.015625)"/>
       <path id="CMUSansSerif-63" d="M 225 1428 
Q 225 2022 608 2486 
Q 991 2950 1631 2950 
Q 1931 2950 2129 2892 
Q 2328 2834 2625 2669 
L 2547 2247 
Q 2234 2444 2069 2491 
Q 1884 2541 1625 2541 
Q 1191 2541 956 2211 
Q 722 1881 722 1428 
Q 722 953 972 647 
Q 1222 341 1619 341 
Q 2119 341 2625 684 
L 2656 256 
Q 2150 -69 1613 -72 
Q 1025 -72 625 367 
Q 225 806 225 1428 
z
" transform="scale(0.015625)"/>
       <path id="CMUSansSerif-74" d="M 116 2472 
L 116 2847 
L 666 2847 
L 666 3653 
L 1113 3653 
L 1113 2847 
L 2016 2847 
L 2016 2472 
L 1113 2472 
L 1113 897 
Q 1113 341 1459 341 
Q 1728 341 2022 550 
L 2125 172 
Q 1672 -72 1178 -72 
Q 653 -72 653 750 
L 653 2472 
L 116 2472 
z
" transform="scale(0.015625)"/>
       <path id="CMUSansSerif-69" d="M 475 3775 
L 475 4347 
L 1050 4347 
L 1050 3775 
L 475 3775 
z
M 519 0 
L 519 2847 
L 997 2847 
L 997 0 
L 519 0 
z
" transform="scale(0.015625)"/>
       <path id="CMUSansSerif-6f" d="M 191 1416 
Q 191 2063 605 2506 
Q 1019 2950 1594 2950 
Q 2197 2950 2600 2486 
Q 3003 2022 3003 1409 
Q 3003 775 2579 351 
Q 2156 -72 1593 -72 
Q 1031 -72 611 354 
Q 191 781 191 1416 
z
M 691 1478 
Q 691 916 962 628 
Q 1234 341 1593 341 
Q 1953 341 2225 631 
Q 2497 922 2497 1478 
Q 2497 2016 2225 2284 
Q 1953 2553 1594 2553 
Q 1241 2553 966 2284 
Q 691 2016 691 1478 
z
" transform="scale(0.015625)"/>
       <path id="CMUSansSerif-6e" d="M 513 0 
L 513 2881 
L 978 2881 
L 978 2431 
Q 1350 2913 1913 2913 
Q 2150 2913 2320 2842 
Q 2491 2772 2580 2669 
Q 2669 2566 2717 2409 
Q 2766 2253 2778 2131 
Q 2791 2009 2791 1844 
L 2791 0 
L 2291 0 
L 2291 1797 
Q 2291 1906 2287 1970 
Q 2284 2034 2250 2153 
Q 2216 2272 2155 2342 
Q 2094 2413 1969 2467 
Q 1844 2522 1663 2522 
Q 1322 2522 1167 2234 
Q 1013 1947 1013 1538 
L 1013 0 
L 513 0 
z
" transform="scale(0.015625)"/>
       <path id="CMUSansSerif-20" transform="scale(0.015625)"/>
       <path id="CMUSansSerif-66" d="M 172 2472 
L 172 2847 
L 647 2847 
L 647 3316 
Q 647 3341 644 3392 
Q 641 3444 641 3469 
Q 641 4056 964 4373 
Q 1288 4691 1716 4691 
Q 1953 4691 2222 4622 
L 2222 4191 
Q 1947 4300 1703 4300 
Q 1484 4300 1295 4172 
Q 1106 4044 1106 3719 
L 1106 2847 
L 1831 2847 
L 1831 2472 
L 1125 2472 
L 1125 0 
L 647 0 
L 647 2472 
L 172 2472 
z
" transform="scale(0.015625)"/>
       <path id="CMUSansSerif-44" d="M 609 0 
L 609 4441 
L 2181 4441 
Q 2822 4441 3284 4141 
Q 3753 3834 4008 3306 
Q 4263 2778 4263 2188 
Q 4263 1297 3738 697 
Q 3213 97 2503 13 
Q 2400 0 2194 0 
L 609 0 
z
M 1166 359 
L 2081 359 
Q 2881 359 3328 947 
Q 3706 1441 3706 2181 
Q 3706 2994 3279 3539 
Q 2853 4084 2081 4084 
L 1166 4084 
L 1166 359 
z
" transform="scale(0.015625)"/>
       <path id="CMUSansSerif-73" d="M 172 219 
L 250 653 
Q 263 647 333 605 
Q 403 563 439 544 
Q 475 525 554 486 
Q 634 447 701 425 
Q 769 403 858 378 
Q 947 353 1047 342 
Q 1147 331 1253 331 
Q 1572 331 1711 467 
Q 1850 603 1850 769 
Q 1850 928 1734 1034 
Q 1619 1141 1491 1178 
Q 1428 1197 1206 1242 
Q 984 1288 878 1319 
Q 616 1403 414 1604 
Q 213 1806 213 2106 
Q 213 2253 256 2384 
Q 300 2516 406 2653 
Q 513 2791 733 2870 
Q 953 2950 1259 2950 
Q 1719 2950 2194 2753 
L 2125 2328 
Q 2119 2334 2051 2364 
Q 1984 2394 1975 2400 
Q 1966 2406 1905 2431 
Q 1844 2456 1820 2464 
Q 1797 2472 1740 2494 
Q 1684 2516 1651 2519 
Q 1619 2522 1558 2537 
Q 1497 2553 1450 2556 
Q 1403 2559 1339 2562 
Q 1275 2566 1203 2566 
Q 909 2566 787 2447 
Q 666 2328 666 2175 
Q 666 1963 836 1870 
Q 1006 1778 1312 1725 
Q 1619 1672 1747 1613 
Q 1978 1509 2140 1304 
Q 2303 1100 2303 813 
Q 2303 666 2259 525 
Q 2216 384 2109 243 
Q 2003 103 1783 15 
Q 1563 -72 1259 -72 
Q 697 -69 172 219 
z
" transform="scale(0.015625)"/>
      </defs>
      <use xlink:href="#CMUSansSerif-46"/>
      <use xlink:href="#CMUSansSerif-72" x="56.884766"/>
      <use xlink:href="#CMUSansSerif-61" x="91.064453"/>
      <use xlink:href="#CMUSansSerif-63" x="139.0625"/>
      <use xlink:href="#CMUSansSerif-74" x="183.447266"/>
      <use xlink:href="#CMUSansSerif-69" x="219.53125"/>
      <use xlink:href="#CMUSansSerif-6f" x="243.408203"/>
      <use xlink:href="#CMUSansSerif-6e" x="293.408203"/>
      <use xlink:href="#CMUSansSerif-20" x="345.068359"/>
      <use xlink:href="#CMUSansSerif-6f" x="378.320312"/>
      <use xlink:href="#CMUSansSerif-66" x="428.320312"/>
      <use xlink:href="#CMUSansSerif-20" x="458.789062"/>
      <use xlink:href="#CMUSansSerif-44" x="492.041016"/>
      <use xlink:href="#CMUSansSerif-61" x="564.208984"/>
      <use xlink:href="#CMUSansSerif-74" x="612.207031"/>
      <use xlink:href="#CMUSansSerif-61" x="648.291016"/>
      <use xlink:href="#CMUSansSerif-73" x="696.289062"/>
      <use xlink:href="#CMUSansSerif-65" x="734.570312"/>
      <use xlink:href="#CMUSansSerif-74" x="778.955078"/>
     </g>
    </g>
   </g>
   <g id="patch_3">
    <path d="M 72 333.490909 
L 72 86.4 
" style="fill: none; stroke: #000000; stroke-width: 1.25; stroke-linejoin: miter; stroke-linecap: square"/>
   </g>
   <g id="patch_4">
    <path d="M 518.4 333.490909 
L 518.4 86.4 
" style="fill: none; stroke: #000000; stroke-width: 1.25; stroke-linejoin: miter; stroke-linecap: square"/>
   </g>
   <g id="patch_5">
    <path d="M 72 333.490909 
L 518.4 333.490909 
" style="fill: none; stroke: #000000; stroke-width: 1.25; stroke-linejoin: miter; stroke-linecap: square"/>
   </g>
   <g id="patch_6">
    <path d="M 72 86.4 
L 518.4 86.4 
" style="fill: none; stroke: #000000; stroke-width: 1.25; stroke-linejoin: miter; stroke-linecap: square"/>
   </g>
  </g>
  <g id="axes_2">
   <g id="patch_7">
    <path d="M 72 630 
L 518.4 630 
L 518.4 382.909091 
L 72 382.909091 
L 72 630 
z
" style="fill: none"/>
   </g>
   <g id="PolyCollection_2">
    <defs>
     <path id="m96ac8e1fc8" d="M 40.543675 -90 
L 40.543675 -90 
L 43.186117 -90 
L 45.828559 -90 
L 48.471001 -90 
L 51.113443 -90 
L 53.755886 -90 
L 56.398328 -90 
L 59.04077 -90 
L 61.683212 -90 
L 64.325654 -90 
L 66.968096 -90 
L 69.610538 -90 
L 72.25298 -90 
L 74.895423 -90 
L 77.537865 -90 
L 80.180307 -90 
L 82.822749 -90 
L 85.465191 -90 
L 88.107633 -90 
L 90.750075 -90 
L 93.392517 -90 
L 96.03496 -90 
L 98.677402 -90 
L 101.319844 -90 
L 103.962286 -90 
L 106.604728 -90 
L 109.24717 -90 
L 111.889612 -90 
L 114.532054 -90 
L 117.174497 -90 
L 119.816939 -90 
L 122.459381 -90 
L 125.101823 -90 
L 127.744265 -90 
L 130.386707 -90 
L 133.029149 -90 
L 135.671591 -90 
L 138.314034 -90 
L 140.956476 -90 
L 143.598918 -90 
L 146.24136 -90 
L 148.883802 -90 
L 151.526244 -90 
L 154.168686 -90 
L 156.811129 -90 
L 159.453571 -90 
L 162.096013 -90 
L 164.738455 -90 
L 167.380897 -90 
L 170.023339 -90 
L 172.665781 -90 
L 175.308223 -90 
L 177.950666 -90 
L 180.593108 -90 
L 183.23555 -90 
L 185.877992 -90 
L 188.520434 -90 
L 191.162876 -90 
L 193.805318 -90 
L 196.44776 -90 
L 199.090203 -90 
L 201.732645 -90 
L 204.375087 -90 
L 207.017529 -90 
L 209.659971 -90 
L 212.302413 -90 
L 214.944855 -90 
L 217.587297 -90 
L 220.22974 -90 
L 222.872182 -90 
L 225.514624 -90 
L 228.157066 -90 
L 230.799508 -90 
L 233.44195 -90 
L 236.084392 -90 
L 238.726835 -90 
L 241.369277 -90 
L 244.011719 -90 
L 246.654161 -90 
L 249.296603 -90 
L 251.939045 -90 
L 254.581487 -90 
L 257.223929 -90 
L 259.866372 -90 
L 262.508814 -90 
L 265.151256 -90 
L 267.793698 -90 
L 270.43614 -90 
L 273.078582 -90 
L 275.721024 -90 
L 278.363466 -90 
L 281.005909 -90 
L 283.648351 -90 
L 286.290793 -90 
L 288.933235 -90 
L 291.575677 -90 
L 294.218119 -90 
L 296.860561 -90 
L 299.503003 -90 
L 302.145446 -90 
L 304.787888 -90 
L 307.43033 -90 
L 310.072772 -90 
L 312.715214 -90 
L 315.357656 -90 
L 318.000098 -90 
L 320.642541 -90 
L 323.284983 -90 
L 325.927425 -90 
L 328.569867 -90 
L 331.212309 -90 
L 333.854751 -90 
L 336.497193 -90 
L 339.139635 -90 
L 341.782078 -90 
L 344.42452 -90 
L 347.066962 -90 
L 349.709404 -90 
L 352.351846 -90 
L 354.994288 -90 
L 357.63673 -90 
L 360.279172 -90 
L 362.921615 -90 
L 365.564057 -90 
L 368.206499 -90 
L 370.848941 -90 
L 373.491383 -90 
L 376.133825 -90 
L 378.776267 -90 
L 381.418709 -90 
L 384.061152 -90 
L 386.703594 -90 
L 389.346036 -90 
L 391.988478 -90 
L 394.63092 -90 
L 397.273362 -90 
L 399.915804 -90 
L 402.558246 -90 
L 405.200689 -90 
L 407.843131 -90 
L 410.485573 -90 
L 413.128015 -90 
L 415.770457 -90 
L 418.412899 -90 
L 421.055341 -90 
L 423.697784 -90 
L 426.340226 -90 
L 428.982668 -90 
L 431.62511 -90 
L 434.267552 -90 
L 436.909994 -90 
L 439.552436 -90 
L 442.194878 -90 
L 444.837321 -90 
L 447.479763 -90 
L 450.122205 -90 
L 452.764647 -90 
L 455.407089 -90 
L 458.049531 -90 
L 460.691973 -90 
L 463.334415 -90 
L 465.976858 -90 
L 468.6193 -90 
L 471.261742 -90 
L 473.904184 -90 
L 476.546626 -90 
L 479.189068 -90 
L 481.83151 -90 
L 484.473952 -90 
L 487.116395 -90 
L 489.758837 -90 
L 492.401279 -90 
L 495.043721 -90 
L 497.686163 -90 
L 500.328605 -90 
L 502.971047 -90 
L 505.61349 -90 
L 508.255932 -90 
L 510.898374 -90 
L 513.540816 -90 
L 516.183258 -90 
L 518.8257 -90 
L 521.468142 -90 
L 524.110584 -90 
L 526.753027 -90 
L 529.395469 -90 
L 532.037911 -90 
L 534.680353 -90 
L 537.322795 -90 
L 539.965237 -90 
L 542.607679 -90 
L 545.250121 -90 
L 547.892564 -90 
L 550.535006 -90 
L 553.177448 -90 
L 555.81989 -90 
L 558.462332 -90 
L 561.104774 -90 
L 563.747216 -90 
L 566.389658 -90 
L 566.389658 -325.324675 
L 566.389658 -325.324675 
L 563.747216 -325.289535 
L 561.104774 -325.233458 
L 558.462332 -325.146371 
L 555.81989 -325.014748 
L 553.177448 -324.821133 
L 550.535006 -324.543936 
L 547.892564 -324.157651 
L 545.250121 -323.633641 
L 542.607679 -322.941598 
L 539.965237 -322.051646 
L 537.322795 -320.936982 
L 534.680353 -319.576753 
L 532.037911 -317.958772 
L 529.395469 -316.081586 
L 526.753027 -313.955426 
L 524.110584 -311.601706 
L 521.468142 -309.050944 
L 518.8257 -306.339286 
L 516.183258 -303.504123 
L 513.540816 -300.579516 
L 510.898374 -297.592268 
L 508.255932 -294.559408 
L 505.61349 -291.487622 
L 502.971047 -288.374771 
L 500.328605 -285.21323 
L 497.686163 -281.994341 
L 495.043721 -278.713061 
L 492.401279 -275.371793 
L 489.758837 -271.982565 
L 487.116395 -268.567088 
L 484.473952 -265.154675 
L 481.83151 -261.778474 
L 479.189068 -258.470847 
L 476.546626 -255.25886 
L 473.904184 -252.160841 
L 471.261742 -249.184641 
L 468.6193 -246.327879 
L 465.976858 -243.579947 
L 463.334415 -240.92522 
L 460.691973 -238.346647 
L 458.049531 -235.828901 
L 455.407089 -233.36042 
L 452.764647 -230.933997 
L 450.122205 -228.545973 
L 447.479763 -226.194422 
L 444.837321 -223.876956 
L 442.194878 -221.58886 
L 439.552436 -219.322125 
L 436.909994 -217.065708 
L 434.267552 -214.807008 
L 431.62511 -212.534206 
L 428.982668 -210.238899 
L 426.340226 -207.918351 
L 423.697784 -205.576783 
L 421.055341 -203.225317 
L 418.412899 -200.880546 
L 415.770457 -198.561993 
L 413.128015 -196.288993 
L 410.485573 -194.077665 
L 407.843131 -191.938609 
L 405.200689 -189.875767 
L 402.558246 -187.886649 
L 399.915804 -185.963762 
L 397.273362 -184.096867 
L 394.63092 -182.275478 
L 391.988478 -180.491037 
L 389.346036 -178.738288 
L 386.703594 -177.015603 
L 384.061152 -175.324291 
L 381.418709 -173.667158 
L 378.776267 -172.046754 
L 376.133825 -170.463813 
L 373.491383 -168.916305 
L 370.848941 -167.399352 
L 368.206499 -165.906027 
L 365.564057 -164.428837 
L 362.921615 -162.96152 
L 360.279172 -161.500701 
L 357.63673 -160.046999 
L 354.994288 -158.605323 
L 352.351846 -157.184261 
L 349.709404 -155.794717 
L 347.066962 -154.448066 
L 344.42452 -153.154254 
L 341.782078 -151.92021 
L 339.139635 -150.748872 
L 336.497193 -149.638976 
L 333.854751 -148.585558 
L 331.212309 -147.580977 
L 328.569867 -146.616165 
L 325.927425 -145.681793 
L 323.284983 -144.76909 
L 320.642541 -143.870188 
L 318.000098 -142.978 
L 315.357656 -142.085774 
L 312.715214 -141.186561 
L 310.072772 -140.272854 
L 307.43033 -139.336602 
L 304.787888 -138.369701 
L 302.145446 -137.36493 
L 299.503003 -136.317143 
L 296.860561 -135.224459 
L 294.218119 -134.089157 
L 291.575677 -132.918001 
L 288.933235 -131.72187 
L 286.290793 -130.514692 
L 283.648351 -129.311835 
L 281.005909 -128.128251 
L 278.363466 -126.9767 
L 275.721024 -125.866392 
L 273.078582 -124.802265 
L 270.43614 -123.785 
L 267.793698 -122.811705 
L 265.151256 -121.87706 
L 262.508814 -120.974645 
L 259.866372 -120.098144 
L 257.223929 -119.242183 
L 254.581487 -118.402672 
L 251.939045 -117.576657 
L 249.296603 -116.761793 
L 246.654161 -115.955678 
L 244.011719 -115.155273 
L 241.369277 -114.356619 
L 238.726835 -113.554969 
L 236.084392 -112.745341 
L 233.44195 -111.923357 
L 230.799508 -111.086183 
L 228.157066 -110.233318 
L 225.514624 -109.367028 
L 222.872182 -108.492282 
L 220.22974 -107.616179 
L 217.587297 -106.74696 
L 214.944855 -105.892809 
L 212.302413 -105.060679 
L 209.659971 -104.255392 
L 207.017529 -103.479186 
L 204.375087 -102.731776 
L 201.732645 -102.010896 
L 199.090203 -101.313171 
L 196.44776 -100.635104 
L 193.805318 -99.973967 
L 191.162876 -99.328397 
L 188.520434 -98.698595 
L 185.877992 -98.086119 
L 183.23555 -97.493355 
L 180.593108 -96.922827 
L 177.950666 -96.376509 
L 175.308223 -95.85533 
L 172.665781 -95.358963 
L 170.023339 -94.885942 
L 167.380897 -94.434064 
L 164.738455 -94.000968 
L 162.096013 -93.584744 
L 159.453571 -93.184444 
L 156.811129 -92.800377 
L 154.168686 -92.434131 
L 151.526244 -92.088341 
L 148.883802 -91.766251 
L 146.24136 -91.471171 
L 143.598918 -91.205934 
L 140.956476 -90.972461 
L 138.314034 -90.771475 
L 135.671591 -90.602414 
L 133.029149 -90.463527 
L 130.386707 -90.352097 
L 127.744265 -90.264758 
L 125.101823 -90.197825 
L 122.459381 -90.147605 
L 119.816939 -90.110633 
L 117.174497 -90.083844 
L 114.532054 -90.064653 
L 111.889612 -90.050975 
L 109.24717 -90.041194 
L 106.604728 -90.034103 
L 103.962286 -90.028828 
L 101.319844 -90.024759 
L 98.677402 -90.021479 
L 96.03496 -90.018716 
L 93.392517 -90.016298 
L 90.750075 -90.014122 
L 88.107633 -90.012133 
L 85.465191 -90.010305 
L 82.822749 -90.008631 
L 80.180307 -90.007116 
L 77.537865 -90.005764 
L 74.895423 -90.004581 
L 72.25298 -90.003568 
L 69.610538 -90.00272 
L 66.968096 -90.002026 
L 64.325654 -90.001474 
L 61.683212 -90.001046 
L 59.04077 -90.000721 
L 56.398328 -90.000482 
L 53.755886 -90.000311 
L 51.113443 -90.000191 
L 48.471001 -90.00011 
L 45.828559 -90.000056 
L 43.186117 -90.000022 
L 40.543675 -90 
z
" style="stroke: #ff2400; stroke-width: 2"/>
    </defs>
    <g clip-path="url(#p90a426a008)">
     <use xlink:href="#m96ac8e1fc8" x="0" y="720" style="fill: #ff2400; fill-opacity: 0.25; stroke: #ff2400; stroke-width: 2"/>
    </g>
   </g>
   <g id="matplotlib.axis_3">
    <g id="xtick_8">
     <g id="line2d_16">
      <g>
       <use xlink:href="#mf7ee27b5b9" x="121.6" y="630" style="stroke: #000000; stroke-width: 1.25"/>
      </g>
     </g>
     <g id="text_18">
      <!-- 2010 -->
      <g transform="translate(110.6 647.444062)scale(0.11 -0.11)">
       <use xlink:href="#CMUSansSerif-32"/>
       <use xlink:href="#CMUSansSerif-30" x="50"/>
       <use xlink:href="#CMUSansSerif-31" x="100"/>
       <use xlink:href="#CMUSansSerif-30" x="150"/>
      </g>
     </g>
    </g>
    <g id="xtick_9">
     <g id="line2d_17">
      <g>
       <use xlink:href="#mf7ee27b5b9" x="187.733333" y="630" style="stroke: #000000; stroke-width: 1.25"/>
      </g>
     </g>
     <g id="text_19">
      <!-- 2012 -->
      <g transform="translate(176.733333 647.444062)scale(0.11 -0.11)">
       <use xlink:href="#CMUSansSerif-32"/>
       <use xlink:href="#CMUSansSerif-30" x="50"/>
       <use xlink:href="#CMUSansSerif-31" x="100"/>
       <use xlink:href="#CMUSansSerif-32" x="150"/>
      </g>
     </g>
    </g>
    <g id="xtick_10">
     <g id="line2d_18">
      <g>
       <use xlink:href="#mf7ee27b5b9" x="253.866667" y="630" style="stroke: #000000; stroke-width: 1.25"/>
      </g>
     </g>
     <g id="text_20">
      <!-- 2014 -->
      <g transform="translate(242.866667 647.444062)scale(0.11 -0.11)">
       <use xlink:href="#CMUSansSerif-32"/>
       <use xlink:href="#CMUSansSerif-30" x="50"/>
       <use xlink:href="#CMUSansSerif-31" x="100"/>
       <use xlink:href="#CMUSansSerif-34" x="150"/>
      </g>
     </g>
    </g>
    <g id="xtick_11">
     <g id="line2d_19">
      <g>
       <use xlink:href="#mf7ee27b5b9" x="320" y="630" style="stroke: #000000; stroke-width: 1.25"/>
      </g>
     </g>
     <g id="text_21">
      <!-- 2016 -->
      <g transform="translate(309 647.444062)scale(0.11 -0.11)">
       <use xlink:href="#CMUSansSerif-32"/>
       <use xlink:href="#CMUSansSerif-30" x="50"/>
       <use xlink:href="#CMUSansSerif-31" x="100"/>
       <use xlink:href="#CMUSansSerif-36" x="150"/>
      </g>
     </g>
    </g>
    <g id="xtick_12">
     <g id="line2d_20">
      <g>
       <use xlink:href="#mf7ee27b5b9" x="386.133333" y="630" style="stroke: #000000; stroke-width: 1.25"/>
      </g>
     </g>
     <g id="text_22">
      <!-- 2018 -->
      <g transform="translate(375.133333 647.444062)scale(0.11 -0.11)">
       <use xlink:href="#CMUSansSerif-32"/>
       <use xlink:href="#CMUSansSerif-30" x="50"/>
       <use xlink:href="#CMUSansSerif-31" x="100"/>
       <use xlink:href="#CMUSansSerif-38" x="150"/>
      </g>
     </g>
    </g>
    <g id="xtick_13">
     <g id="line2d_21">
      <g>
       <use xlink:href="#mf7ee27b5b9" x="452.266667" y="630" style="stroke: #000000; stroke-width: 1.25"/>
      </g>
     </g>
     <g id="text_23">
      <!-- 2020 -->
      <g transform="translate(441.266667 647.444062)scale(0.11 -0.11)">
       <use xlink:href="#CMUSansSerif-32"/>
       <use xlink:href="#CMUSansSerif-30" x="50"/>
       <use xlink:href="#CMUSansSerif-32" x="100"/>
       <use xlink:href="#CMUSansSerif-30" x="150"/>
      </g>
     </g>
    </g>
    <g id="xtick_14">
     <g id="line2d_22">
      <g>
       <use xlink:href="#mf7ee27b5b9" x="518.4" y="630" style="stroke: #000000; stroke-width: 1.25"/>
      </g>
     </g>
     <g id="text_24">
      <!-- 2022 -->
      <g transform="translate(507.4 647.444062)scale(0.11 -0.11)">
       <use xlink:href="#CMUSansSerif-32"/>
       <use xlink:href="#CMUSansSerif-30" x="50"/>
       <use xlink:href="#CMUSansSerif-32" x="100"/>
       <use xlink:href="#CMUSansSerif-32" x="150"/>
      </g>
     </g>
    </g>
    <g id="text_25">
     <!-- Year -->
     <g transform="translate(281.670312 663.697969)scale(0.14 -0.14)">
      <use xlink:href="#CMUSansSerif-59"/>
      <use xlink:href="#CMUSansSerif-65" x="66.699219"/>
      <use xlink:href="#CMUSansSerif-61" x="111.083984"/>
      <use xlink:href="#CMUSansSerif-72" x="159.082031"/>
     </g>
    </g>
   </g>
   <g id="matplotlib.axis_4">
    <g id="ytick_9">
     <g id="line2d_23">
      <g>
       <use xlink:href="#m6995962180" x="72" y="630" style="stroke: #000000; stroke-width: 1.25"/>
      </g>
     </g>
     <g id="text_26">
      <!-- 0.0 -->
      <g transform="translate(48.444063 633.972031)scale(0.11 -0.11)">
       <use xlink:href="#CMUSansSerif-30"/>
       <use xlink:href="#CMUSansSerif-2e" x="50"/>
       <use xlink:href="#CMUSansSerif-30" x="77.783203"/>
      </g>
     </g>
    </g>
    <g id="ytick_10">
     <g id="line2d_24">
      <g>
       <use xlink:href="#m6995962180" x="72" y="582.924997" style="stroke: #000000; stroke-width: 1.25"/>
      </g>
     </g>
     <g id="text_27">
      <!-- 0.2 -->
      <g transform="translate(48.444063 586.897028)scale(0.11 -0.11)">
       <use xlink:href="#CMUSansSerif-30"/>
       <use xlink:href="#CMUSansSerif-2e" x="50"/>
       <use xlink:href="#CMUSansSerif-32" x="77.783203"/>
      </g>
     </g>
    </g>
    <g id="ytick_11">
     <g id="line2d_25">
      <g>
       <use xlink:href="#m6995962180" x="72" y="535.849994" style="stroke: #000000; stroke-width: 1.25"/>
      </g>
     </g>
     <g id="text_28">
      <!-- 0.4 -->
      <g transform="translate(48.444063 539.822025)scale(0.11 -0.11)">
       <use xlink:href="#CMUSansSerif-30"/>
       <use xlink:href="#CMUSansSerif-2e" x="50"/>
       <use xlink:href="#CMUSansSerif-34" x="77.783203"/>
      </g>
     </g>
    </g>
    <g id="ytick_12">
     <g id="line2d_26">
      <g>
       <use xlink:href="#m6995962180" x="72" y="488.77499" style="stroke: #000000; stroke-width: 1.25"/>
      </g>
     </g>
     <g id="text_29">
      <!-- 0.6 -->
      <g transform="translate(48.444063 492.747022)scale(0.11 -0.11)">
       <use xlink:href="#CMUSansSerif-30"/>
       <use xlink:href="#CMUSansSerif-2e" x="50"/>
       <use xlink:href="#CMUSansSerif-36" x="77.783203"/>
      </g>
     </g>
    </g>
    <g id="ytick_13">
     <g id="line2d_27">
      <g>
       <use xlink:href="#m6995962180" x="72" y="441.699987" style="stroke: #000000; stroke-width: 1.25"/>
      </g>
     </g>
     <g id="text_30">
      <!-- 0.8 -->
      <g transform="translate(48.444063 445.672019)scale(0.11 -0.11)">
       <use xlink:href="#CMUSansSerif-30"/>
       <use xlink:href="#CMUSansSerif-2e" x="50"/>
       <use xlink:href="#CMUSansSerif-38" x="77.783203"/>
      </g>
     </g>
    </g>
    <g id="ytick_14">
     <g id="line2d_28">
      <g>
       <use xlink:href="#m6995962180" x="72" y="394.624984" style="stroke: #000000; stroke-width: 1.25"/>
      </g>
     </g>
     <g id="text_31">
      <!-- 1.0 -->
      <g transform="translate(48.444063 398.597015)scale(0.11 -0.11)">
       <use xlink:href="#CMUSansSerif-31"/>
       <use xlink:href="#CMUSansSerif-2e" x="50"/>
       <use xlink:href="#CMUSansSerif-30" x="77.783203"/>
      </g>
     </g>
    </g>
    <g id="text_32">
     <!-- Fraction of Dataset (Cumulative) -->
     <g transform="translate(34.944062 604.10017)rotate(-90)scale(0.14 -0.14)">
      <defs>
       <path id="CMUSansSerif-28" d="M 513 1600 
Q 513 3706 1734 4800 
L 2131 4800 
Q 1772 4416 1613 4147 
Q 1009 3134 1013 1600 
Q 1013 -325 1925 -1381 
L 2131 -1600 
L 1734 -1600 
Q 513 -494 513 1600 
z
" transform="scale(0.015625)"/>
       <path id="CMUSansSerif-43" d="M 422 2222 
Q 422 2747 605 3200 
Q 788 3653 1081 3948 
Q 1375 4244 1728 4412 
Q 2081 4581 2425 4581 
Q 2675 4581 2819 4572 
Q 2963 4563 3194 4516 
Q 3425 4469 3694 4366 
L 3597 3834 
Q 3309 4006 3081 4089 
Q 2853 4172 2509 4172 
Q 1869 4172 1433 3603 
Q 997 3034 997 2222 
Q 997 1403 1436 836 
Q 1875 269 2528 269 
Q 2650 269 2759 278 
Q 2869 288 2945 297 
Q 3022 306 3114 339 
Q 3206 372 3251 384 
Q 3297 397 3383 448 
Q 3469 500 3491 512 
Q 3513 525 3609 586 
Q 3706 647 3725 659 
L 3763 213 
Q 3416 6 3167 -67 
Q 2919 -141 2522 -141 
Q 1606 -141 1014 564 
Q 422 1269 422 2222 
z
" transform="scale(0.015625)"/>
       <path id="CMUSansSerif-75" d="M 513 781 
L 513 2847 
L 1013 2847 
L 1013 703 
Q 1019 478 1117 383 
Q 1216 288 1522 288 
Q 1853 288 2056 464 
Q 2259 641 2284 872 
Q 2291 934 2291 1056 
L 2291 2847 
L 2791 2847 
L 2791 0 
L 2303 0 
L 2303 306 
Q 1869 -72 1184 -72 
Q 994 -72 858 -11 
Q 722 50 655 128 
Q 588 206 553 343 
Q 519 481 516 561 
Q 513 641 513 781 
z
" transform="scale(0.015625)"/>
       <path id="CMUSansSerif-6d" d="M 513 0 
L 513 2881 
L 978 2881 
L 978 2431 
Q 1350 2913 1913 2913 
Q 2534 2913 2725 2394 
Q 3116 2913 3694 2913 
Q 3938 2913 4113 2833 
Q 4288 2753 4373 2647 
Q 4459 2541 4507 2375 
Q 4556 2209 4562 2103 
Q 4569 1997 4569 1844 
L 4569 0 
L 4063 0 
L 4063 1797 
Q 4063 1809 4063 1836 
Q 4063 1863 4050 1939 
Q 4038 2016 4016 2083 
Q 3994 2150 3948 2233 
Q 3903 2316 3839 2377 
Q 3775 2438 3673 2480 
Q 3572 2522 3444 2522 
Q 3103 2522 2947 2234 
Q 2791 1947 2791 1538 
L 2791 0 
L 2291 0 
L 2291 1797 
Q 2291 1906 2287 1970 
Q 2284 2034 2250 2153 
Q 2216 2272 2155 2342 
Q 2094 2413 1969 2467 
Q 1844 2522 1663 2522 
Q 1322 2522 1167 2234 
Q 1013 1947 1013 1538 
L 1013 0 
L 513 0 
z
" transform="scale(0.015625)"/>
       <path id="CMUSansSerif-6c" d="M 519 0 
L 519 4622 
L 997 4622 
L 997 0 
L 519 0 
z
" transform="scale(0.015625)"/>
       <path id="CMUSansSerif-76" d="M 91 2847 
L 581 2847 
L 1178 1288 
Q 1453 506 1484 319 
Q 1534 644 2381 2847 
L 2853 2847 
L 1753 0 
L 1191 0 
L 91 2847 
z
" transform="scale(0.015625)"/>
       <path id="CMUSansSerif-29" d="M 353 -1600 
Q 519 -1422 620 -1300 
Q 722 -1178 905 -879 
Q 1088 -581 1194 -275 
Q 1300 31 1386 531 
Q 1472 1031 1472 1600 
Q 1472 2194 1376 2712 
Q 1281 3231 1175 3532 
Q 1069 3834 867 4143 
Q 666 4453 592 4537 
Q 519 4622 353 4800 
L 744 4800 
Q 1972 3700 1972 1606 
Q 1972 -500 744 -1600 
L 353 -1600 
z
" transform="scale(0.015625)"/>
      </defs>
      <use xlink:href="#CMUSansSerif-46"/>
      <use xlink:href="#CMUSansSerif-72" x="56.884766"/>
      <use xlink:href="#CMUSansSerif-61" x="91.064453"/>
      <use xlink:href="#CMUSansSerif-63" x="139.0625"/>
      <use xlink:href="#CMUSansSerif-74" x="183.447266"/>
      <use xlink:href="#CMUSansSerif-69" x="219.53125"/>
      <use xlink:href="#CMUSansSerif-6f" x="243.408203"/>
      <use xlink:href="#CMUSansSerif-6e" x="293.408203"/>
      <use xlink:href="#CMUSansSerif-20" x="345.068359"/>
      <use xlink:href="#CMUSansSerif-6f" x="378.320312"/>
      <use xlink:href="#CMUSansSerif-66" x="428.320312"/>
      <use xlink:href="#CMUSansSerif-20" x="458.789062"/>
      <use xlink:href="#CMUSansSerif-44" x="492.041016"/>
      <use xlink:href="#CMUSansSerif-61" x="564.208984"/>
      <use xlink:href="#CMUSansSerif-74" x="612.207031"/>
      <use xlink:href="#CMUSansSerif-61" x="648.291016"/>
      <use xlink:href="#CMUSansSerif-73" x="696.289062"/>
      <use xlink:href="#CMUSansSerif-65" x="734.570312"/>
      <use xlink:href="#CMUSansSerif-74" x="778.955078"/>
      <use xlink:href="#CMUSansSerif-20" x="815.039062"/>
      <use xlink:href="#CMUSansSerif-28" x="848.291016"/>
      <use xlink:href="#CMUSansSerif-43" x="887.158203"/>
      <use xlink:href="#CMUSansSerif-75" x="951.025391"/>
      <use xlink:href="#CMUSansSerif-6d" x="1002.685547"/>
      <use xlink:href="#CMUSansSerif-75" x="1082.080078"/>
      <use xlink:href="#CMUSansSerif-6c" x="1133.740234"/>
      <use xlink:href="#CMUSansSerif-61" x="1157.617188"/>
      <use xlink:href="#CMUSansSerif-74" x="1205.615234"/>
      <use xlink:href="#CMUSansSerif-69" x="1241.699219"/>
      <use xlink:href="#CMUSansSerif-76" x="1265.576172"/>
      <use xlink:href="#CMUSansSerif-65" x="1311.669922"/>
      <use xlink:href="#CMUSansSerif-29" x="1356.054688"/>
     </g>
    </g>
   </g>
   <g id="patch_8">
    <path d="M 72 630 
L 72 382.909091 
" style="fill: none; stroke: #000000; stroke-width: 1.25; stroke-linejoin: miter; stroke-linecap: square"/>
   </g>
   <g id="patch_9">
    <path d="M 518.4 630 
L 518.4 382.909091 
" style="fill: none; stroke: #000000; stroke-width: 1.25; stroke-linejoin: miter; stroke-linecap: square"/>
   </g>
   <g id="patch_10">
    <path d="M 72 630 
L 518.4 630 
" style="fill: none; stroke: #000000; stroke-width: 1.25; stroke-linejoin: miter; stroke-linecap: square"/>
   </g>
   <g id="patch_11">
    <path d="M 72 382.909091 
L 518.4 382.909091 
" style="fill: none; stroke: #000000; stroke-width: 1.25; stroke-linejoin: miter; stroke-linecap: square"/>
   </g>
  </g>
  <g id="text_33">
   <!-- Statin-Related Posts and Comments Over Time -->
   <g transform="translate(128.1275 76.355)scale(0.16 -0.16)">
    <defs>
     <path id="CMUSansSerif-53" d="M 281 300 
L 378 831 
Q 1050 300 1747 300 
Q 2163 300 2422 556 
Q 2681 813 2681 1147 
Q 2681 1397 2531 1605 
Q 2381 1813 2131 1913 
Q 2119 1919 1338 2125 
Q 947 2228 650 2543 
Q 353 2859 353 3322 
Q 353 3816 753 4198 
Q 1153 4581 1797 4581 
Q 2400 4581 2969 4275 
L 2881 3744 
Q 2613 3950 2381 4051 
Q 2150 4153 1791 4153 
Q 1375 4153 1119 3926 
Q 863 3700 863 3397 
Q 863 3172 1008 2987 
Q 1153 2803 1375 2713 
Q 1466 2675 1841 2586 
Q 2216 2497 2338 2444 
Q 2691 2297 2942 1973 
Q 3194 1650 3194 1209 
Q 3194 666 2787 262 
Q 2381 -141 1747 -141 
Q 978 -141 281 300 
z
" transform="scale(0.015625)"/>
     <path id="CMUSansSerif-2d" d="M 63 1234 
L 63 1613 
L 1766 1613 
L 1766 1234 
L 63 1234 
z
" transform="scale(0.015625)"/>
     <path id="CMUSansSerif-52" d="M 609 0 
L 609 4441 
L 2053 4441 
Q 2513 4441 2863 4323 
Q 3213 4206 3402 4017 
Q 3591 3828 3680 3633 
Q 3769 3438 3769 3250 
Q 3769 2878 3487 2559 
Q 3206 2241 2675 2088 
L 3950 0 
L 3372 0 
L 2175 2022 
L 1166 2022 
L 1166 0 
L 609 0 
z
M 1166 2419 
L 2009 2419 
Q 2681 2419 2965 2672 
Q 3250 2925 3250 3244 
Q 3250 3384 3194 3518 
Q 3138 3653 3009 3784 
Q 2881 3916 2628 4000 
Q 2375 4084 2028 4084 
L 1166 4084 
L 1166 2419 
z
" transform="scale(0.015625)"/>
     <path id="CMUSansSerif-64" d="M 225 1416 
Q 225 2050 558 2484 
Q 891 2919 1363 2919 
Q 1850 2919 2291 2566 
L 2291 4622 
L 2778 4622 
L 2778 0 
L 2272 0 
L 2272 331 
Q 1856 -72 1325 -72 
Q 850 -72 537 375 
Q 225 822 225 1416 
z
M 722 1422 
Q 722 853 990 589 
Q 1259 325 1588 325 
Q 1856 325 2064 508 
Q 2272 691 2272 856 
L 2272 2081 
Q 2272 2203 2138 2328 
Q 1931 2519 1663 2522 
L 1650 2522 
Q 1497 2522 1347 2464 
Q 1197 2406 1050 2287 
Q 903 2169 812 1945 
Q 722 1722 722 1422 
z
" transform="scale(0.015625)"/>
     <path id="CMUSansSerif-50" d="M 609 0 
L 609 4441 
L 2119 4441 
Q 2706 4441 3103 4191 
Q 3397 4006 3561 3737 
Q 3725 3469 3725 3156 
Q 3725 2656 3312 2250 
Q 2900 1844 2144 1844 
Q 2113 1844 2042 1847 
Q 1972 1850 1931 1850 
L 1184 1850 
L 1184 0 
L 609 0 
z
M 1166 2222 
L 2016 2222 
Q 2347 2222 2597 2311 
Q 2847 2400 2969 2550 
Q 3091 2700 3148 2851 
Q 3206 3003 3206 3156 
Q 3206 3297 3154 3440 
Q 3103 3584 2986 3737 
Q 2869 3891 2619 3987 
Q 2369 4084 2016 4084 
L 1166 4084 
L 1166 2222 
z
" transform="scale(0.015625)"/>
     <path id="CMUSansSerif-4f" d="M 353 2209 
Q 353 3200 945 3890 
Q 1538 4581 2356 4581 
Q 3163 4581 3755 3890 
Q 4347 3200 4347 2209 
Q 4347 1203 3748 531 
Q 3150 -141 2350 -141 
Q 1544 -141 948 536 
Q 353 1213 353 2209 
z
M 1351 3655 
Q 928 3138 928 2298 
Q 928 1459 1325 867 
Q 1722 275 2350 275 
Q 2959 275 3367 861 
Q 3775 1447 3775 2297 
Q 3775 3134 3353 3653 
Q 2931 4172 2350 4172 
Q 1775 4172 1351 3655 
z
" transform="scale(0.015625)"/>
     <path id="CMUSansSerif-54" d="M 225 3988 
L 225 4409 
L 4116 4409 
L 4116 3988 
L 3206 3988 
L 2456 3994 
L 2456 0 
L 1888 0 
L 1888 3994 
L 1131 3988 
L 225 3988 
z
" transform="scale(0.015625)"/>
    </defs>
    <use xlink:href="#CMUSansSerif-53"/>
    <use xlink:href="#CMUSansSerif-74" x="55.46875"/>
    <use xlink:href="#CMUSansSerif-61" x="91.552734"/>
    <use xlink:href="#CMUSansSerif-74" x="139.550781"/>
    <use xlink:href="#CMUSansSerif-69" x="175.634766"/>
    <use xlink:href="#CMUSansSerif-6e" x="199.511719"/>
    <use xlink:href="#CMUSansSerif-2d" x="251.171875"/>
    <use xlink:href="#CMUSansSerif-52" x="284.423828"/>
    <use xlink:href="#CMUSansSerif-65" x="349.023438"/>
    <use xlink:href="#CMUSansSerif-6c" x="393.408203"/>
    <use xlink:href="#CMUSansSerif-61" x="417.285156"/>
    <use xlink:href="#CMUSansSerif-74" x="465.283203"/>
    <use xlink:href="#CMUSansSerif-65" x="501.367188"/>
    <use xlink:href="#CMUSansSerif-64" x="545.751953"/>
    <use xlink:href="#CMUSansSerif-20" x="597.412109"/>
    <use xlink:href="#CMUSansSerif-50" x="630.664062"/>
    <use xlink:href="#CMUSansSerif-6f" x="694.53125"/>
    <use xlink:href="#CMUSansSerif-73" x="744.53125"/>
    <use xlink:href="#CMUSansSerif-74" x="782.8125"/>
    <use xlink:href="#CMUSansSerif-73" x="818.896484"/>
    <use xlink:href="#CMUSansSerif-20" x="857.177734"/>
    <use xlink:href="#CMUSansSerif-61" x="890.429688"/>
    <use xlink:href="#CMUSansSerif-6e" x="938.427734"/>
    <use xlink:href="#CMUSansSerif-64" x="990.087891"/>
    <use xlink:href="#CMUSansSerif-20" x="1041.748047"/>
    <use xlink:href="#CMUSansSerif-43" x="1075"/>
    <use xlink:href="#CMUSansSerif-6f" x="1138.867188"/>
    <use xlink:href="#CMUSansSerif-6d" x="1188.867188"/>
    <use xlink:href="#CMUSansSerif-6d" x="1268.261719"/>
    <use xlink:href="#CMUSansSerif-65" x="1347.65625"/>
    <use xlink:href="#CMUSansSerif-6e" x="1392.041016"/>
    <use xlink:href="#CMUSansSerif-74" x="1443.701172"/>
    <use xlink:href="#CMUSansSerif-73" x="1479.785156"/>
    <use xlink:href="#CMUSansSerif-20" x="1518.066406"/>
    <use xlink:href="#CMUSansSerif-4f" x="1551.318359"/>
    <use xlink:href="#CMUSansSerif-76" x="1624.902344"/>
    <use xlink:href="#CMUSansSerif-65" x="1670.996094"/>
    <use xlink:href="#CMUSansSerif-72" x="1715.380859"/>
    <use xlink:href="#CMUSansSerif-20" x="1749.560547"/>
    <use xlink:href="#CMUSansSerif-54" x="1782.8125"/>
    <use xlink:href="#CMUSansSerif-69" x="1850.78125"/>
    <use xlink:href="#CMUSansSerif-6d" x="1874.658203"/>
    <use xlink:href="#CMUSansSerif-65" x="1954.052734"/>
   </g>
  </g>
 </g>
 <defs>
  <clipPath id="p4f577a2c02">
   <rect x="72" y="86.4" width="446.4" height="247.090909"/>
  </clipPath>
  <clipPath id="p90a426a008">
   <rect x="72" y="382.909091" width="446.4" height="247.090909"/>
  </clipPath>
 </defs>
</svg>
