<?xml version="1.0" encoding="utf-8" standalone="no"?>
<!DOCTYPE svg PUBLIC "-//W3C//DTD SVG 1.1//EN"
  "http://www.w3.org/Graphics/SVG/1.1/DTD/svg11.dtd">
<svg xmlns:xlink="http://www.w3.org/1999/xlink" width="344.190479pt" height="347.825781pt" viewBox="0 0 344.190479 347.825781" xmlns="http://www.w3.org/2000/svg" version="1.1">
 <metadata>
  <rdf:RDF xmlns:dc="http://purl.org/dc/elements/1.1/" xmlns:cc="http://creativecommons.org/ns#" xmlns:rdf="http://www.w3.org/1999/02/22-rdf-syntax-ns#">
   <cc:Work>
    <dc:type rdf:resource="http://purl.org/dc/dcmitype/StillImage"/>
    <dc:date>2022-12-02T07:49:58.335065</dc:date>
    <dc:format>image/svg+xml</dc:format>
    <dc:creator>
     <cc:Agent>
      <dc:title>Matplotlib v3.5.2, https://matplotlib.org/</dc:title>
     </cc:Agent>
    </dc:creator>
   </cc:Work>
  </rdf:RDF>
 </metadata>
 <defs>
  <style type="text/css">*{stroke-linejoin: round; stroke-linecap: butt}</style>
 </defs>
 <g id="figure_1">
  <g id="patch_1">
   <path d="M 0 347.825781 
L 344.190479 347.825781 
L 344.190479 0 
L 0 0 
L 0 347.825781 
z
" style="fill: none"/>
  </g>
  <g id="axes_1">
   <g id="patch_2">
    <path d="M 53.094375 155.945455 
L 332.094375 155.945455 
L 332.094375 32.4 
L 53.094375 32.4 
z
" style="fill: #ffffff"/>
   </g>
   <g id="matplotlib.axis_1">
    <g id="xtick_1">
     <g id="line2d_1">
      <defs>
       <path id="m7a26498be5" d="M 0 0 
L 0 6 
" style="stroke: #000000; stroke-width: 1.25"/>
      </defs>
      <g>
       <use xlink:href="#m7a26498be5" x="89.932037" y="155.945455" style="stroke: #000000; stroke-width: 1.25"/>
      </g>
     </g>
    </g>
    <g id="xtick_2">
     <g id="line2d_2">
      <g>
       <use xlink:href="#m7a26498be5" x="150.321648" y="155.945455" style="stroke: #000000; stroke-width: 1.25"/>
      </g>
     </g>
    </g>
    <g id="xtick_3">
     <g id="line2d_3">
      <g>
       <use xlink:href="#m7a26498be5" x="210.711258" y="155.945455" style="stroke: #000000; stroke-width: 1.25"/>
      </g>
     </g>
    </g>
    <g id="xtick_4">
     <g id="line2d_4">
      <g>
       <use xlink:href="#m7a26498be5" x="271.100869" y="155.945455" style="stroke: #000000; stroke-width: 1.25"/>
      </g>
     </g>
    </g>
    <g id="xtick_5">
     <g id="line2d_5">
      <g>
       <use xlink:href="#m7a26498be5" x="331.490479" y="155.945455" style="stroke: #000000; stroke-width: 1.25"/>
      </g>
     </g>
    </g>
   </g>
   <g id="matplotlib.axis_2">
    <g id="ytick_1">
     <g id="line2d_6">
      <defs>
       <path id="mcc31713e04" d="M 0 0 
L -6 0 
" style="stroke: #000000; stroke-width: 1.25"/>
      </defs>
      <g>
       <use xlink:href="#mcc31713e04" x="53.094375" y="132.229371" style="stroke: #000000; stroke-width: 1.25"/>
      </g>
     </g>
     <g id="text_1">
      <!-- 0.45 -->
      <g transform="translate(24.038438 136.201402)scale(0.11 -0.11)">
       <defs>
        <path id="CMUSansSerif-30" d="M 263 1984 
L 263 2094 
Q 263 2344 272 2528 
Q 281 2713 332 3017 
Q 384 3322 473 3536 
Q 563 3750 748 3958 
Q 934 4166 1191 4263 
Q 1388 4341 1594 4341 
Q 1772 4341 1939 4292 
Q 2106 4244 2292 4100 
Q 2478 3956 2615 3731 
Q 2753 3506 2842 3112 
Q 2931 2719 2931 2209 
L 2931 2075 
Q 2931 1831 2922 1639 
Q 2913 1447 2861 1151 
Q 2809 856 2717 642 
Q 2625 428 2439 226 
Q 2253 25 1997 -72 
Q 1784 -144 1594 -141 
Q 1416 -141 1252 -95 
Q 1088 -50 898 87 
Q 709 225 575 448 
Q 441 672 352 1069 
Q 263 1466 263 1984 
z
M 763 1984 
Q 763 1556 820 1232 
Q 878 909 961 726 
Q 1044 544 1162 431 
Q 1281 319 1382 284 
Q 1484 250 1600 250 
Q 1747 250 1875 317 
Q 2003 384 2137 553 
Q 2272 722 2351 1090 
Q 2431 1459 2431 1991 
L 2431 2369 
Q 2431 2856 2351 3187 
Q 2272 3519 2134 3673 
Q 1997 3828 1869 3886 
Q 1741 3944 1594 3944 
Q 1447 3944 1319 3886 
Q 1191 3828 1056 3673 
Q 922 3519 842 3183 
Q 763 2847 763 2369 
L 763 1984 
z
" transform="scale(0.015625)"/>
        <path id="CMUSansSerif-2e" d="M 616 0 
L 616 538 
L 1153 538 
L 1153 0 
L 616 0 
z
" transform="scale(0.015625)"/>
        <path id="CMUSansSerif-34" d="M 172 1094 
Q 172 1094 172 1403 
Q 172 1481 244 1600 
L 1791 4191 
L 2381 4191 
L 2381 1484 
L 3016 1484 
L 3016 1094 
L 2381 1094 
L 2381 0 
L 1869 0 
L 1869 1094 
L 172 1094 
z
M 672 1484 
L 1906 1484 
L 1906 3956 
Q 1869 3719 1725 3392 
Q 1581 3066 1453 2839 
Q 1325 2613 891 1863 
Q 750 1619 672 1484 
z
" transform="scale(0.015625)"/>
        <path id="CMUSansSerif-35" d="M 244 488 
L 459 844 
Q 819 256 1459 256 
Q 1778 256 2037 503 
Q 2297 750 2297 1313 
Q 2297 1838 2108 2091 
Q 1919 2344 1644 2344 
Q 1209 2344 941 1831 
L 506 1831 
L 506 4191 
L 2663 4191 
L 2663 3781 
L 972 3781 
L 972 2472 
Q 1297 2734 1656 2731 
Q 2150 2731 2512 2318 
Q 2875 1906 2875 1306 
Q 2875 691 2454 275 
Q 2034 -141 1466 -141 
Q 1100 -141 775 29 
Q 450 200 244 488 
z
" transform="scale(0.015625)"/>
       </defs>
       <use xlink:href="#CMUSansSerif-30"/>
       <use xlink:href="#CMUSansSerif-2e" x="50"/>
       <use xlink:href="#CMUSansSerif-34" x="77.783203"/>
       <use xlink:href="#CMUSansSerif-35" x="127.783203"/>
      </g>
     </g>
    </g>
    <g id="ytick_2">
     <g id="line2d_7">
      <g>
       <use xlink:href="#mcc31713e04" x="53.094375" y="94.164128" style="stroke: #000000; stroke-width: 1.25"/>
      </g>
     </g>
     <g id="text_2">
      <!-- 0.50 -->
      <g transform="translate(24.038438 98.13616)scale(0.11 -0.11)">
       <use xlink:href="#CMUSansSerif-30"/>
       <use xlink:href="#CMUSansSerif-2e" x="50"/>
       <use xlink:href="#CMUSansSerif-35" x="77.783203"/>
       <use xlink:href="#CMUSansSerif-30" x="127.783203"/>
      </g>
     </g>
    </g>
    <g id="ytick_3">
     <g id="line2d_8">
      <g>
       <use xlink:href="#mcc31713e04" x="53.094375" y="56.098885" style="stroke: #000000; stroke-width: 1.25"/>
      </g>
     </g>
     <g id="text_3">
      <!-- 0.55 -->
      <g transform="translate(24.038438 60.070917)scale(0.11 -0.11)">
       <use xlink:href="#CMUSansSerif-30"/>
       <use xlink:href="#CMUSansSerif-2e" x="50"/>
       <use xlink:href="#CMUSansSerif-35" x="77.783203"/>
       <use xlink:href="#CMUSansSerif-35" x="127.783203"/>
      </g>
     </g>
    </g>
    <g id="text_4">
     <!-- Silhouette Score -->
     <g transform="translate(17.310625 141.713665)rotate(-90)scale(0.14 -0.14)">
      <defs>
       <path id="CMUSansSerif-53" d="M 281 300 
L 378 831 
Q 1050 300 1747 300 
Q 2163 300 2422 556 
Q 2681 813 2681 1147 
Q 2681 1397 2531 1605 
Q 2381 1813 2131 1913 
Q 2119 1919 1338 2125 
Q 947 2228 650 2543 
Q 353 2859 353 3322 
Q 353 3816 753 4198 
Q 1153 4581 1797 4581 
Q 2400 4581 2969 4275 
L 2881 3744 
Q 2613 3950 2381 4051 
Q 2150 4153 1791 4153 
Q 1375 4153 1119 3926 
Q 863 3700 863 3397 
Q 863 3172 1008 2987 
Q 1153 2803 1375 2713 
Q 1466 2675 1841 2586 
Q 2216 2497 2338 2444 
Q 2691 2297 2942 1973 
Q 3194 1650 3194 1209 
Q 3194 666 2787 262 
Q 2381 -141 1747 -141 
Q 978 -141 281 300 
z
" transform="scale(0.015625)"/>
       <path id="CMUSansSerif-69" d="M 475 3775 
L 475 4347 
L 1050 4347 
L 1050 3775 
L 475 3775 
z
M 519 0 
L 519 2847 
L 997 2847 
L 997 0 
L 519 0 
z
" transform="scale(0.015625)"/>
       <path id="CMUSansSerif-6c" d="M 519 0 
L 519 4622 
L 997 4622 
L 997 0 
L 519 0 
z
" transform="scale(0.015625)"/>
       <path id="CMUSansSerif-68" d="M 513 0 
L 513 4622 
L 991 4622 
L 991 2456 
Q 1375 2909 1913 2913 
Q 2156 2913 2329 2836 
Q 2503 2759 2589 2653 
Q 2675 2547 2723 2384 
Q 2772 2222 2781 2109 
Q 2791 1997 2791 1844 
L 2791 0 
L 2291 0 
L 2291 1797 
Q 2291 1906 2287 1970 
Q 2284 2034 2250 2153 
Q 2216 2272 2155 2342 
Q 2094 2413 1969 2467 
Q 1844 2522 1663 2522 
Q 1322 2522 1167 2234 
Q 1013 1947 1013 1538 
L 1013 0 
L 513 0 
z
" transform="scale(0.015625)"/>
       <path id="CMUSansSerif-6f" d="M 191 1416 
Q 191 2063 605 2506 
Q 1019 2950 1594 2950 
Q 2197 2950 2600 2486 
Q 3003 2022 3003 1409 
Q 3003 775 2579 351 
Q 2156 -72 1593 -72 
Q 1031 -72 611 354 
Q 191 781 191 1416 
z
M 691 1478 
Q 691 916 962 628 
Q 1234 341 1593 341 
Q 1953 341 2225 631 
Q 2497 922 2497 1478 
Q 2497 2016 2225 2284 
Q 1953 2553 1594 2553 
Q 1241 2553 966 2284 
Q 691 2016 691 1478 
z
" transform="scale(0.015625)"/>
       <path id="CMUSansSerif-75" d="M 513 781 
L 513 2847 
L 1013 2847 
L 1013 703 
Q 1019 478 1117 383 
Q 1216 288 1522 288 
Q 1853 288 2056 464 
Q 2259 641 2284 872 
Q 2291 934 2291 1056 
L 2291 2847 
L 2791 2847 
L 2791 0 
L 2303 0 
L 2303 306 
Q 1869 -72 1184 -72 
Q 994 -72 858 -11 
Q 722 50 655 128 
Q 588 206 553 343 
Q 519 481 516 561 
Q 513 641 513 781 
z
" transform="scale(0.015625)"/>
       <path id="CMUSansSerif-65" d="M 219 1447 
Q 219 2081 605 2515 
Q 991 2950 1509 2950 
Q 1700 2950 1873 2889 
Q 2047 2828 2223 2687 
Q 2400 2547 2515 2265 
Q 2631 1984 2650 1594 
L 2650 1409 
L 666 1409 
Q 684 928 959 626 
Q 1234 325 1613 325 
Q 2100 325 2584 678 
L 2625 256 
Q 2138 -69 1613 -72 
Q 1003 -72 611 379 
Q 219 831 219 1447 
z
M 697 1759 
L 2284 1759 
Q 2247 2009 2147 2182 
Q 2047 2356 1922 2429 
Q 1797 2503 1698 2528 
Q 1600 2553 1509 2553 
Q 1184 2553 971 2303 
Q 759 2053 697 1759 
z
" transform="scale(0.015625)"/>
       <path id="CMUSansSerif-74" d="M 116 2472 
L 116 2847 
L 666 2847 
L 666 3653 
L 1113 3653 
L 1113 2847 
L 2016 2847 
L 2016 2472 
L 1113 2472 
L 1113 897 
Q 1113 341 1459 341 
Q 1728 341 2022 550 
L 2125 172 
Q 1672 -72 1178 -72 
Q 653 -72 653 750 
L 653 2472 
L 116 2472 
z
" transform="scale(0.015625)"/>
       <path id="CMUSansSerif-20" transform="scale(0.015625)"/>
       <path id="CMUSansSerif-63" d="M 225 1428 
Q 225 2022 608 2486 
Q 991 2950 1631 2950 
Q 1931 2950 2129 2892 
Q 2328 2834 2625 2669 
L 2547 2247 
Q 2234 2444 2069 2491 
Q 1884 2541 1625 2541 
Q 1191 2541 956 2211 
Q 722 1881 722 1428 
Q 722 953 972 647 
Q 1222 341 1619 341 
Q 2119 341 2625 684 
L 2656 256 
Q 2150 -69 1613 -72 
Q 1025 -72 625 367 
Q 225 806 225 1428 
z
" transform="scale(0.015625)"/>
       <path id="CMUSansSerif-72" d="M 519 0 
L 519 2881 
L 966 2881 
L 966 2303 
Q 1044 2425 1151 2537 
Q 1259 2650 1518 2778 
Q 1778 2906 2088 2913 
L 2088 2484 
Q 1922 2478 1755 2423 
Q 1588 2369 1405 2250 
Q 1222 2131 1109 1887 
Q 997 1644 997 1319 
L 997 0 
L 519 0 
z
" transform="scale(0.015625)"/>
      </defs>
      <use xlink:href="#CMUSansSerif-53"/>
      <use xlink:href="#CMUSansSerif-69" x="55.46875"/>
      <use xlink:href="#CMUSansSerif-6c" x="79.345703"/>
      <use xlink:href="#CMUSansSerif-68" x="103.222656"/>
      <use xlink:href="#CMUSansSerif-6f" x="154.882812"/>
      <use xlink:href="#CMUSansSerif-75" x="204.882812"/>
      <use xlink:href="#CMUSansSerif-65" x="256.542969"/>
      <use xlink:href="#CMUSansSerif-74" x="300.927734"/>
      <use xlink:href="#CMUSansSerif-74" x="337.011719"/>
      <use xlink:href="#CMUSansSerif-65" x="373.095703"/>
      <use xlink:href="#CMUSansSerif-20" x="417.480469"/>
      <use xlink:href="#CMUSansSerif-53" x="450.732422"/>
      <use xlink:href="#CMUSansSerif-63" x="506.201172"/>
      <use xlink:href="#CMUSansSerif-6f" x="550.585938"/>
      <use xlink:href="#CMUSansSerif-72" x="600.585938"/>
      <use xlink:href="#CMUSansSerif-65" x="634.765625"/>
     </g>
    </g>
   </g>
   <g id="line2d_9">
    <path d="M 65.776193 150.329752 
L 77.854115 78.695096 
L 89.932037 49.023692 
L 102.009959 38.015702 
L 114.087881 82.694878 
L 126.165804 92.809616 
L 138.243726 86.622692 
L 150.321648 87.293868 
L 162.39957 95.674081 
L 174.477492 136.567519 
L 186.555414 118.980614 
L 198.633336 123.86607 
L 210.711258 106.237918 
L 222.78918 108.816052 
L 234.867102 118.226534 
L 246.945024 125.37237 
L 259.022946 123.787046 
L 271.100869 112.819578 
L 283.178791 105.326038 
L 295.256713 107.748687 
L 307.334635 103.924151 
L 319.412557 109.151844 
" clip-path="url(#p79c19dcda7)" style="fill: none; stroke: #ff2400; stroke-width: 1.5; stroke-linecap: square"/>
   </g>
   <g id="patch_3">
    <path d="M 53.094375 155.945455 
L 53.094375 32.4 
" style="fill: none; stroke: #000000; stroke-width: 1.25; stroke-linejoin: miter; stroke-linecap: square"/>
   </g>
   <g id="patch_4">
    <path d="M 332.094375 155.945455 
L 332.094375 32.4 
" style="fill: none; stroke: #000000; stroke-width: 1.25; stroke-linejoin: miter; stroke-linecap: square"/>
   </g>
   <g id="patch_5">
    <path d="M 53.094375 155.945455 
L 332.094375 155.945455 
" style="fill: none; stroke: #000000; stroke-width: 1.25; stroke-linejoin: miter; stroke-linecap: square"/>
   </g>
   <g id="patch_6">
    <path d="M 53.094375 32.4 
L 332.094375 32.4 
" style="fill: none; stroke: #000000; stroke-width: 1.25; stroke-linejoin: miter; stroke-linecap: square"/>
   </g>
  </g>
  <g id="axes_2">
   <g id="patch_7">
    <path d="M 53.094375 304.2 
L 332.094375 304.2 
L 332.094375 180.654545 
L 53.094375 180.654545 
z
" style="fill: #ffffff"/>
   </g>
   <g id="matplotlib.axis_3">
    <g id="xtick_6">
     <g id="line2d_10">
      <g>
       <use xlink:href="#m7a26498be5" x="89.932037" y="304.2" style="stroke: #000000; stroke-width: 1.25"/>
      </g>
     </g>
     <g id="text_5">
      <!-- 5 -->
      <g transform="translate(87.182037 321.644062)scale(0.11 -0.11)">
       <use xlink:href="#CMUSansSerif-35"/>
      </g>
     </g>
    </g>
    <g id="xtick_7">
     <g id="line2d_11">
      <g>
       <use xlink:href="#m7a26498be5" x="150.321648" y="304.2" style="stroke: #000000; stroke-width: 1.25"/>
      </g>
     </g>
     <g id="text_6">
      <!-- 10 -->
      <g transform="translate(144.821648 321.644062)scale(0.11 -0.11)">
       <defs>
        <path id="CMUSansSerif-31" d="M 575 3547 
L 575 3916 
Q 1344 3916 1797 4341 
L 1919 4341 
L 1919 378 
L 2719 378 
L 2719 0 
L 609 0 
L 609 378 
L 1409 378 
L 1409 3694 
Q 1028 3547 575 3547 
z
" transform="scale(0.015625)"/>
       </defs>
       <use xlink:href="#CMUSansSerif-31"/>
       <use xlink:href="#CMUSansSerif-30" x="50"/>
      </g>
     </g>
    </g>
    <g id="xtick_8">
     <g id="line2d_12">
      <g>
       <use xlink:href="#m7a26498be5" x="210.711258" y="304.2" style="stroke: #000000; stroke-width: 1.25"/>
      </g>
     </g>
     <g id="text_7">
      <!-- 15 -->
      <g transform="translate(205.211258 321.644062)scale(0.11 -0.11)">
       <use xlink:href="#CMUSansSerif-31"/>
       <use xlink:href="#CMUSansSerif-35" x="50"/>
      </g>
     </g>
    </g>
    <g id="xtick_9">
     <g id="line2d_13">
      <g>
       <use xlink:href="#m7a26498be5" x="271.100869" y="304.2" style="stroke: #000000; stroke-width: 1.25"/>
      </g>
     </g>
     <g id="text_8">
      <!-- 20 -->
      <g transform="translate(265.600869 321.644062)scale(0.11 -0.11)">
       <defs>
        <path id="CMUSansSerif-32" d="M 263 3291 
Q 575 4341 1503 4341 
Q 2119 4341 2497 3936 
Q 2875 3531 2875 2969 
Q 2875 2744 2814 2559 
Q 2753 2375 2576 2167 
Q 2400 1959 2265 1831 
Q 2131 1703 1806 1416 
Q 1634 1263 775 447 
L 2875 453 
L 2875 0 
L 313 0 
L 313 416 
L 1147 1241 
Q 1197 1291 1367 1445 
Q 1538 1600 1594 1654 
Q 1650 1709 1787 1846 
Q 1925 1984 1976 2057 
Q 2028 2131 2122 2256 
Q 2216 2381 2247 2476 
Q 2278 2572 2311 2697 
Q 2344 2822 2344 2950 
Q 2344 3359 2084 3640 
Q 1825 3922 1422 3922 
Q 1203 3922 1033 3823 
Q 863 3725 777 3581 
Q 691 3438 636 3294 
Q 581 3150 563 3047 
L 538 2938 
L 263 3291 
z
" transform="scale(0.015625)"/>
       </defs>
       <use xlink:href="#CMUSansSerif-32"/>
       <use xlink:href="#CMUSansSerif-30" x="50"/>
      </g>
     </g>
    </g>
    <g id="xtick_10">
     <g id="line2d_14">
      <g>
       <use xlink:href="#m7a26498be5" x="331.490479" y="304.2" style="stroke: #000000; stroke-width: 1.25"/>
      </g>
     </g>
     <g id="text_9">
      <!-- 25 -->
      <g transform="translate(325.990479 321.644062)scale(0.11 -0.11)">
       <use xlink:href="#CMUSansSerif-32"/>
       <use xlink:href="#CMUSansSerif-35" x="50"/>
      </g>
     </g>
    </g>
    <g id="text_10">
     <!-- Number of Clusters -->
     <g transform="translate(135.920625 337.897969)scale(0.14 -0.14)">
      <defs>
       <path id="CMUSansSerif-4e" d="M 609 0 
L 609 4441 
L 1409 4441 
L 3163 959 
L 3413 447 
L 3413 4441 
L 3909 4441 
L 3909 0 
L 3109 0 
L 1356 3481 
L 1106 3994 
L 1106 0 
L 609 0 
z
" transform="scale(0.015625)"/>
       <path id="CMUSansSerif-6d" d="M 513 0 
L 513 2881 
L 978 2881 
L 978 2431 
Q 1350 2913 1913 2913 
Q 2534 2913 2725 2394 
Q 3116 2913 3694 2913 
Q 3938 2913 4113 2833 
Q 4288 2753 4373 2647 
Q 4459 2541 4507 2375 
Q 4556 2209 4562 2103 
Q 4569 1997 4569 1844 
L 4569 0 
L 4063 0 
L 4063 1797 
Q 4063 1809 4063 1836 
Q 4063 1863 4050 1939 
Q 4038 2016 4016 2083 
Q 3994 2150 3948 2233 
Q 3903 2316 3839 2377 
Q 3775 2438 3673 2480 
Q 3572 2522 3444 2522 
Q 3103 2522 2947 2234 
Q 2791 1947 2791 1538 
L 2791 0 
L 2291 0 
L 2291 1797 
Q 2291 1906 2287 1970 
Q 2284 2034 2250 2153 
Q 2216 2272 2155 2342 
Q 2094 2413 1969 2467 
Q 1844 2522 1663 2522 
Q 1322 2522 1167 2234 
Q 1013 1947 1013 1538 
L 1013 0 
L 513 0 
z
" transform="scale(0.015625)"/>
       <path id="CMUSansSerif-62" d="M 519 0 
L 519 4622 
L 997 4622 
L 997 2541 
Q 1466 2913 2022 2913 
Q 2481 2913 2776 2470 
Q 3072 2028 3072 1434 
Q 3072 788 2717 358 
Q 2363 -72 1875 -72 
Q 1422 -72 1019 294 
L 1019 0 
L 519 0 
z
M 1019 850 
Q 1019 800 1022 772 
Q 1025 744 1034 717 
Q 1044 691 1053 678 
Q 1063 666 1084 634 
Q 1106 603 1125 575 
Q 1338 319 1650 319 
Q 1991 319 2278 587 
Q 2566 856 2566 1428 
Q 2566 1728 2483 1954 
Q 2400 2181 2262 2297 
Q 2125 2413 1984 2467 
Q 1844 2522 1703 2522 
Q 1453 2522 1236 2375 
Q 1019 2228 1019 2047 
L 1019 850 
z
" transform="scale(0.015625)"/>
       <path id="CMUSansSerif-66" d="M 172 2472 
L 172 2847 
L 647 2847 
L 647 3316 
Q 647 3341 644 3392 
Q 641 3444 641 3469 
Q 641 4056 964 4373 
Q 1288 4691 1716 4691 
Q 1953 4691 2222 4622 
L 2222 4191 
Q 1947 4300 1703 4300 
Q 1484 4300 1295 4172 
Q 1106 4044 1106 3719 
L 1106 2847 
L 1831 2847 
L 1831 2472 
L 1125 2472 
L 1125 0 
L 647 0 
L 647 2472 
L 172 2472 
z
" transform="scale(0.015625)"/>
       <path id="CMUSansSerif-43" d="M 422 2222 
Q 422 2747 605 3200 
Q 788 3653 1081 3948 
Q 1375 4244 1728 4412 
Q 2081 4581 2425 4581 
Q 2675 4581 2819 4572 
Q 2963 4563 3194 4516 
Q 3425 4469 3694 4366 
L 3597 3834 
Q 3309 4006 3081 4089 
Q 2853 4172 2509 4172 
Q 1869 4172 1433 3603 
Q 997 3034 997 2222 
Q 997 1403 1436 836 
Q 1875 269 2528 269 
Q 2650 269 2759 278 
Q 2869 288 2945 297 
Q 3022 306 3114 339 
Q 3206 372 3251 384 
Q 3297 397 3383 448 
Q 3469 500 3491 512 
Q 3513 525 3609 586 
Q 3706 647 3725 659 
L 3763 213 
Q 3416 6 3167 -67 
Q 2919 -141 2522 -141 
Q 1606 -141 1014 564 
Q 422 1269 422 2222 
z
" transform="scale(0.015625)"/>
       <path id="CMUSansSerif-73" d="M 172 219 
L 250 653 
Q 263 647 333 605 
Q 403 563 439 544 
Q 475 525 554 486 
Q 634 447 701 425 
Q 769 403 858 378 
Q 947 353 1047 342 
Q 1147 331 1253 331 
Q 1572 331 1711 467 
Q 1850 603 1850 769 
Q 1850 928 1734 1034 
Q 1619 1141 1491 1178 
Q 1428 1197 1206 1242 
Q 984 1288 878 1319 
Q 616 1403 414 1604 
Q 213 1806 213 2106 
Q 213 2253 256 2384 
Q 300 2516 406 2653 
Q 513 2791 733 2870 
Q 953 2950 1259 2950 
Q 1719 2950 2194 2753 
L 2125 2328 
Q 2119 2334 2051 2364 
Q 1984 2394 1975 2400 
Q 1966 2406 1905 2431 
Q 1844 2456 1820 2464 
Q 1797 2472 1740 2494 
Q 1684 2516 1651 2519 
Q 1619 2522 1558 2537 
Q 1497 2553 1450 2556 
Q 1403 2559 1339 2562 
Q 1275 2566 1203 2566 
Q 909 2566 787 2447 
Q 666 2328 666 2175 
Q 666 1963 836 1870 
Q 1006 1778 1312 1725 
Q 1619 1672 1747 1613 
Q 1978 1509 2140 1304 
Q 2303 1100 2303 813 
Q 2303 666 2259 525 
Q 2216 384 2109 243 
Q 2003 103 1783 15 
Q 1563 -72 1259 -72 
Q 697 -69 172 219 
z
" transform="scale(0.015625)"/>
      </defs>
      <use xlink:href="#CMUSansSerif-4e"/>
      <use xlink:href="#CMUSansSerif-75" x="70.751953"/>
      <use xlink:href="#CMUSansSerif-6d" x="122.412109"/>
      <use xlink:href="#CMUSansSerif-62" x="201.806641"/>
      <use xlink:href="#CMUSansSerif-65" x="253.466797"/>
      <use xlink:href="#CMUSansSerif-72" x="297.851562"/>
      <use xlink:href="#CMUSansSerif-20" x="332.03125"/>
      <use xlink:href="#CMUSansSerif-6f" x="365.283203"/>
      <use xlink:href="#CMUSansSerif-66" x="415.283203"/>
      <use xlink:href="#CMUSansSerif-20" x="445.751953"/>
      <use xlink:href="#CMUSansSerif-43" x="479.003906"/>
      <use xlink:href="#CMUSansSerif-6c" x="542.871094"/>
      <use xlink:href="#CMUSansSerif-75" x="566.748047"/>
      <use xlink:href="#CMUSansSerif-73" x="618.408203"/>
      <use xlink:href="#CMUSansSerif-74" x="656.689453"/>
      <use xlink:href="#CMUSansSerif-65" x="692.773438"/>
      <use xlink:href="#CMUSansSerif-72" x="737.158203"/>
      <use xlink:href="#CMUSansSerif-73" x="771.337891"/>
     </g>
    </g>
   </g>
   <g id="matplotlib.axis_4">
    <g id="ytick_4">
     <g id="line2d_15">
      <g>
       <use xlink:href="#mcc31713e04" x="53.094375" y="278.705305" style="stroke: #000000; stroke-width: 1.25"/>
      </g>
     </g>
     <g id="text_11">
      <!-- 0.60 -->
      <g transform="translate(24.038438 282.677337)scale(0.11 -0.11)">
       <defs>
        <path id="CMUSansSerif-36" d="M 269 2069 
Q 269 3028 755 3684 
Q 1241 4341 1978 4341 
Q 2309 4341 2663 4213 
L 2663 3828 
Q 2297 3963 1978 3963 
Q 1606 3963 1331 3703 
Q 1056 3444 940 3114 
Q 825 2784 806 2431 
Q 1003 2681 1292 2818 
Q 1581 2956 1888 2956 
Q 2309 2956 2584 2566 
Q 2925 2091 2925 1434 
Q 2925 725 2484 256 
Q 2113 -141 1613 -141 
Q 1434 -141 1264 -89 
Q 1094 -38 908 109 
Q 722 256 584 489 
Q 447 722 358 1130 
Q 269 1538 269 2069 
z
M 813 1409 
Q 934 256 1606 256 
Q 1931 256 2120 476 
Q 2309 697 2369 966 
Q 2400 1106 2400 1394 
Q 2400 1950 2222 2234 
Q 2009 2566 1638 2566 
Q 1278 2566 1048 2275 
Q 819 1984 819 1581 
Q 819 1525 831 1409 
L 813 1409 
z
" transform="scale(0.015625)"/>
       </defs>
       <use xlink:href="#CMUSansSerif-30"/>
       <use xlink:href="#CMUSansSerif-2e" x="50"/>
       <use xlink:href="#CMUSansSerif-36" x="77.783203"/>
       <use xlink:href="#CMUSansSerif-30" x="127.783203"/>
      </g>
     </g>
    </g>
    <g id="ytick_5">
     <g id="line2d_16">
      <g>
       <use xlink:href="#mcc31713e04" x="53.094375" y="246.817904" style="stroke: #000000; stroke-width: 1.25"/>
      </g>
     </g>
     <g id="text_12">
      <!-- 0.65 -->
      <g transform="translate(24.038438 250.789935)scale(0.11 -0.11)">
       <use xlink:href="#CMUSansSerif-30"/>
       <use xlink:href="#CMUSansSerif-2e" x="50"/>
       <use xlink:href="#CMUSansSerif-36" x="77.783203"/>
       <use xlink:href="#CMUSansSerif-35" x="127.783203"/>
      </g>
     </g>
    </g>
    <g id="ytick_6">
     <g id="line2d_17">
      <g>
       <use xlink:href="#mcc31713e04" x="53.094375" y="214.930502" style="stroke: #000000; stroke-width: 1.25"/>
      </g>
     </g>
     <g id="text_13">
      <!-- 0.70 -->
      <g transform="translate(24.038438 218.902533)scale(0.11 -0.11)">
       <defs>
        <path id="CMUSansSerif-37" d="M 263 3744 
L 263 4197 
L 2925 4191 
L 2925 3775 
Q 2247 2994 1878 1989 
Q 1509 984 1509 -72 
L 966 -72 
Q 966 941 1337 1923 
Q 1709 2906 2491 3744 
L 263 3744 
z
" transform="scale(0.015625)"/>
       </defs>
       <use xlink:href="#CMUSansSerif-30"/>
       <use xlink:href="#CMUSansSerif-2e" x="50"/>
       <use xlink:href="#CMUSansSerif-37" x="77.783203"/>
       <use xlink:href="#CMUSansSerif-30" x="127.783203"/>
      </g>
     </g>
    </g>
    <g id="ytick_7">
     <g id="line2d_18">
      <g>
       <use xlink:href="#mcc31713e04" x="53.094375" y="183.0431" style="stroke: #000000; stroke-width: 1.25"/>
      </g>
     </g>
     <g id="text_14">
      <!-- 0.75 -->
      <g transform="translate(24.038438 187.015132)scale(0.11 -0.11)">
       <use xlink:href="#CMUSansSerif-30"/>
       <use xlink:href="#CMUSansSerif-2e" x="50"/>
       <use xlink:href="#CMUSansSerif-37" x="77.783203"/>
       <use xlink:href="#CMUSansSerif-35" x="127.783203"/>
      </g>
     </g>
    </g>
    <g id="text_15">
     <!-- Davies-Bouldin Score -->
     <g transform="translate(17.310625 304.529304)rotate(-90)scale(0.14 -0.14)">
      <defs>
       <path id="CMUSansSerif-44" d="M 609 0 
L 609 4441 
L 2181 4441 
Q 2822 4441 3284 4141 
Q 3753 3834 4008 3306 
Q 4263 2778 4263 2188 
Q 4263 1297 3738 697 
Q 3213 97 2503 13 
Q 2400 0 2194 0 
L 609 0 
z
M 1166 359 
L 2081 359 
Q 2881 359 3328 947 
Q 3706 1441 3706 2181 
Q 3706 2994 3279 3539 
Q 2853 4084 2081 4084 
L 1166 4084 
L 1166 359 
z
" transform="scale(0.015625)"/>
       <path id="CMUSansSerif-61" d="M 281 722 
Q 281 959 461 1136 
Q 641 1313 931 1398 
Q 1222 1484 1500 1526 
Q 1778 1569 2059 1569 
L 2059 1784 
Q 2047 2194 1894 2375 
Q 1734 2566 1491 2566 
Q 997 2566 531 2241 
L 494 2669 
Q 975 2950 1497 2950 
Q 1938 2950 2236 2659 
Q 2534 2369 2559 1953 
L 2559 0 
L 2075 0 
L 2075 225 
Q 2050 200 1956 142 
Q 1863 84 1594 6 
Q 1325 -72 1013 -72 
Q 647 -72 464 187 
Q 281 447 281 722 
z
M 750 728 
Q 750 556 919 440 
Q 1088 325 1344 325 
Q 1619 325 1839 440 
Q 2059 556 2059 831 
L 2059 1234 
Q 1863 1234 1658 1209 
Q 1453 1184 1236 1132 
Q 1019 1081 884 975 
Q 750 869 750 728 
z
" transform="scale(0.015625)"/>
       <path id="CMUSansSerif-76" d="M 91 2847 
L 581 2847 
L 1178 1288 
Q 1453 506 1484 319 
Q 1534 644 2381 2847 
L 2853 2847 
L 1753 0 
L 1191 0 
L 91 2847 
z
" transform="scale(0.015625)"/>
       <path id="CMUSansSerif-2d" d="M 63 1234 
L 63 1613 
L 1766 1613 
L 1766 1234 
L 63 1234 
z
" transform="scale(0.015625)"/>
       <path id="CMUSansSerif-42" d="M 616 0 
L 616 4441 
L 2034 4441 
Q 2475 4441 2819 4333 
Q 3163 4225 3352 4051 
Q 3541 3878 3633 3692 
Q 3725 3506 3725 3328 
Q 3725 3009 3450 2732 
Q 3175 2456 2650 2322 
Q 3163 2238 3533 1934 
Q 3903 1631 3903 1203 
Q 3903 734 3497 403 
Q 3091 72 2528 13 
Q 2419 0 2203 0 
L 616 0 
z
M 1153 359 
L 2059 359 
Q 2713 359 3045 628 
Q 3378 897 3378 1209 
Q 3378 1563 3045 1811 
Q 2713 2059 2247 2106 
Q 2191 2113 1919 2113 
L 1159 2113 
L 1153 1875 
L 1153 359 
z
M 1153 2509 
L 1919 2509 
Q 2522 2509 2870 2759 
Q 3219 3009 3219 3322 
Q 3219 3603 2889 3843 
Q 2559 4084 1888 4084 
L 1159 4084 
L 1153 3859 
L 1153 2509 
z
" transform="scale(0.015625)"/>
       <path id="CMUSansSerif-64" d="M 225 1416 
Q 225 2050 558 2484 
Q 891 2919 1363 2919 
Q 1850 2919 2291 2566 
L 2291 4622 
L 2778 4622 
L 2778 0 
L 2272 0 
L 2272 331 
Q 1856 -72 1325 -72 
Q 850 -72 537 375 
Q 225 822 225 1416 
z
M 722 1422 
Q 722 853 990 589 
Q 1259 325 1588 325 
Q 1856 325 2064 508 
Q 2272 691 2272 856 
L 2272 2081 
Q 2272 2203 2138 2328 
Q 1931 2519 1663 2522 
L 1650 2522 
Q 1497 2522 1347 2464 
Q 1197 2406 1050 2287 
Q 903 2169 812 1945 
Q 722 1722 722 1422 
z
" transform="scale(0.015625)"/>
       <path id="CMUSansSerif-6e" d="M 513 0 
L 513 2881 
L 978 2881 
L 978 2431 
Q 1350 2913 1913 2913 
Q 2150 2913 2320 2842 
Q 2491 2772 2580 2669 
Q 2669 2566 2717 2409 
Q 2766 2253 2778 2131 
Q 2791 2009 2791 1844 
L 2791 0 
L 2291 0 
L 2291 1797 
Q 2291 1906 2287 1970 
Q 2284 2034 2250 2153 
Q 2216 2272 2155 2342 
Q 2094 2413 1969 2467 
Q 1844 2522 1663 2522 
Q 1322 2522 1167 2234 
Q 1013 1947 1013 1538 
L 1013 0 
L 513 0 
z
" transform="scale(0.015625)"/>
      </defs>
      <use xlink:href="#CMUSansSerif-44"/>
      <use xlink:href="#CMUSansSerif-61" x="72.167969"/>
      <use xlink:href="#CMUSansSerif-76" x="120.166016"/>
      <use xlink:href="#CMUSansSerif-69" x="166.259766"/>
      <use xlink:href="#CMUSansSerif-65" x="190.136719"/>
      <use xlink:href="#CMUSansSerif-73" x="234.521484"/>
      <use xlink:href="#CMUSansSerif-2d" x="272.802734"/>
      <use xlink:href="#CMUSansSerif-42" x="306.054688"/>
      <use xlink:href="#CMUSansSerif-6f" x="372.753906"/>
      <use xlink:href="#CMUSansSerif-75" x="422.753906"/>
      <use xlink:href="#CMUSansSerif-6c" x="474.414062"/>
      <use xlink:href="#CMUSansSerif-64" x="498.291016"/>
      <use xlink:href="#CMUSansSerif-69" x="549.951172"/>
      <use xlink:href="#CMUSansSerif-6e" x="573.828125"/>
      <use xlink:href="#CMUSansSerif-20" x="625.488281"/>
      <use xlink:href="#CMUSansSerif-53" x="658.740234"/>
      <use xlink:href="#CMUSansSerif-63" x="714.208984"/>
      <use xlink:href="#CMUSansSerif-6f" x="758.59375"/>
      <use xlink:href="#CMUSansSerif-72" x="808.59375"/>
      <use xlink:href="#CMUSansSerif-65" x="842.773438"/>
     </g>
    </g>
   </g>
   <g id="line2d_19">
    <path d="M 65.776193 186.599279 
L 77.854115 258.01772 
L 89.932037 280.524927 
L 102.009959 298.584298 
L 114.087881 208.291197 
L 126.165804 238.585686 
L 138.243726 239.227293 
L 150.321648 244.803034 
L 162.39957 234.185696 
L 174.477492 232.29555 
L 186.555414 245.458529 
L 198.633336 186.270248 
L 210.711258 222.933182 
L 222.78918 223.234728 
L 234.867102 225.137303 
L 246.945024 225.126652 
L 259.022946 236.648961 
L 271.100869 247.062714 
L 283.178791 253.13742 
L 295.256713 263.913605 
L 307.334635 264.603709 
L 319.412557 261.528334 
" clip-path="url(#p4249d51dba)" style="fill: none; stroke: #ff2400; stroke-width: 1.5; stroke-linecap: square"/>
   </g>
   <g id="patch_8">
    <path d="M 53.094375 304.2 
L 53.094375 180.654545 
" style="fill: none; stroke: #000000; stroke-width: 1.25; stroke-linejoin: miter; stroke-linecap: square"/>
   </g>
   <g id="patch_9">
    <path d="M 332.094375 304.2 
L 332.094375 180.654545 
" style="fill: none; stroke: #000000; stroke-width: 1.25; stroke-linejoin: miter; stroke-linecap: square"/>
   </g>
   <g id="patch_10">
    <path d="M 53.094375 304.2 
L 332.094375 304.2 
" style="fill: none; stroke: #000000; stroke-width: 1.25; stroke-linejoin: miter; stroke-linecap: square"/>
   </g>
   <g id="patch_11">
    <path d="M 53.094375 180.654545 
L 332.094375 180.654545 
" style="fill: none; stroke: #000000; stroke-width: 1.25; stroke-linejoin: miter; stroke-linecap: square"/>
   </g>
  </g>
  <g id="text_16">
   <!-- Clustering Performance -->
   <g transform="translate(110.009375 18.9275)scale(0.16 -0.16)">
    <defs>
     <path id="CMUSansSerif-67" d="M 172 -453 
Q 172 -38 581 206 
Q 422 438 422 691 
Q 422 978 609 1228 
L 609 1234 
Q 397 1509 397 1869 
Q 397 2322 701 2617 
Q 1006 2913 1416 2913 
Q 1741 2913 2041 2700 
L 2028 2713 
Q 2503 2909 3034 2913 
L 3103 2509 
Q 2913 2528 2725 2528 
Q 2706 2528 2247 2503 
L 2188 2553 
Q 2438 2213 2438 1869 
Q 2438 1453 2144 1139 
Q 1850 825 1416 825 
Q 1134 825 831 1019 
Q 759 878 763 781 
Q 763 653 839 547 
Q 916 441 1119 441 
L 1600 441 
Q 1825 441 1981 425 
Q 2138 409 2372 354 
Q 2606 300 2762 156 
Q 2919 13 2981 -213 
Q 3013 -341 3016 -447 
Q 3016 -819 2598 -1069 
Q 2181 -1319 1594 -1319 
Q 1000 -1319 586 -1069 
Q 172 -819 172 -453 
z
M 622 -453 
Q 622 -619 794 -737 
Q 966 -856 1177 -904 
Q 1388 -953 1588 -953 
Q 1991 -953 2278 -815 
Q 2566 -678 2566 -459 
Q 2566 -19 1613 -19 
L 1209 -19 
L 1025 -25 
Q 841 -44 731 -172 
Q 622 -300 622 -453 
z
M 844 1869 
Q 844 1563 1001 1380 
Q 1159 1197 1422 1197 
Q 1641 1197 1816 1353 
Q 1991 1509 1991 1875 
Q 1991 2181 1834 2364 
Q 1678 2547 1416 2547 
Q 1197 2547 1020 2390 
Q 844 2234 844 1869 
z
" transform="scale(0.015625)"/>
     <path id="CMUSansSerif-50" d="M 609 0 
L 609 4441 
L 2119 4441 
Q 2706 4441 3103 4191 
Q 3397 4006 3561 3737 
Q 3725 3469 3725 3156 
Q 3725 2656 3312 2250 
Q 2900 1844 2144 1844 
Q 2113 1844 2042 1847 
Q 1972 1850 1931 1850 
L 1184 1850 
L 1184 0 
L 609 0 
z
M 1166 2222 
L 2016 2222 
Q 2347 2222 2597 2311 
Q 2847 2400 2969 2550 
Q 3091 2700 3148 2851 
Q 3206 3003 3206 3156 
Q 3206 3297 3154 3440 
Q 3103 3584 2986 3737 
Q 2869 3891 2619 3987 
Q 2369 4084 2016 4084 
L 1166 4084 
L 1166 2222 
z
" transform="scale(0.015625)"/>
    </defs>
    <use xlink:href="#CMUSansSerif-43"/>
    <use xlink:href="#CMUSansSerif-6c" x="63.867188"/>
    <use xlink:href="#CMUSansSerif-75" x="87.744141"/>
    <use xlink:href="#CMUSansSerif-73" x="139.404297"/>
    <use xlink:href="#CMUSansSerif-74" x="177.685547"/>
    <use xlink:href="#CMUSansSerif-65" x="213.769531"/>
    <use xlink:href="#CMUSansSerif-72" x="258.154297"/>
    <use xlink:href="#CMUSansSerif-69" x="292.333984"/>
    <use xlink:href="#CMUSansSerif-6e" x="316.210938"/>
    <use xlink:href="#CMUSansSerif-67" x="367.871094"/>
    <use xlink:href="#CMUSansSerif-20" x="417.871094"/>
    <use xlink:href="#CMUSansSerif-50" x="451.123047"/>
    <use xlink:href="#CMUSansSerif-65" x="514.990234"/>
    <use xlink:href="#CMUSansSerif-72" x="559.375"/>
    <use xlink:href="#CMUSansSerif-66" x="593.554688"/>
    <use xlink:href="#CMUSansSerif-6f" x="624.023438"/>
    <use xlink:href="#CMUSansSerif-72" x="674.023438"/>
    <use xlink:href="#CMUSansSerif-6d" x="708.203125"/>
    <use xlink:href="#CMUSansSerif-61" x="787.597656"/>
    <use xlink:href="#CMUSansSerif-6e" x="835.595703"/>
    <use xlink:href="#CMUSansSerif-63" x="887.255859"/>
    <use xlink:href="#CMUSansSerif-65" x="931.640625"/>
   </g>
  </g>
 </g>
 <defs>
  <clipPath id="p79c19dcda7">
   <rect x="53.094375" y="32.4" width="279" height="123.545455"/>
  </clipPath>
  <clipPath id="p4249d51dba">
   <rect x="53.094375" y="180.654545" width="279" height="123.545455"/>
  </clipPath>
 </defs>
</svg>
