<?xml version="1.0" encoding="utf-8" standalone="no"?>
<!DOCTYPE svg PUBLIC "-//W3C//DTD SVG 1.1//EN"
  "http://www.w3.org/Graphics/SVG/1.1/DTD/svg11.dtd">
<svg xmlns:xlink="http://www.w3.org/1999/xlink" width="507.002812pt" height="348.121094pt" viewBox="0 0 507.002812 348.121094" xmlns="http://www.w3.org/2000/svg" version="1.1">
 <metadata>
  <rdf:RDF xmlns:dc="http://purl.org/dc/elements/1.1/" xmlns:cc="http://creativecommons.org/ns#" xmlns:rdf="http://www.w3.org/1999/02/22-rdf-syntax-ns#">
   <cc:Work>
    <dc:type rdf:resource="http://purl.org/dc/dcmitype/StillImage"/>
    <dc:date>2022-12-02T07:50:04.873456</dc:date>
    <dc:format>image/svg+xml</dc:format>
    <dc:creator>
     <cc:Agent>
      <dc:title>Matplotlib v3.5.2, https://matplotlib.org/</dc:title>
     </cc:Agent>
    </dc:creator>
   </cc:Work>
  </rdf:RDF>
 </metadata>
 <defs>
  <style type="text/css">*{stroke-linejoin: round; stroke-linecap: butt}</style>
 </defs>
 <g id="figure_1">
  <g id="patch_1">
   <path d="M 0 348.121094 
L 507.002812 348.121094 
L 507.002812 0 
L 0 0 
L 0 348.121094 
z
" style="fill: none"/>
  </g>
  <g id="axes_1">
   <g id="patch_2">
    <path d="M 53.402813 304.2 
L 499.802812 304.2 
L 499.802812 32.4 
L 53.402813 32.4 
z
" style="fill: #ffffff"/>
   </g>
   <g id="matplotlib.axis_1">
    <g id="xtick_1">
     <g id="line2d_1">
      <defs>
       <path id="m3a508ef0e5" d="M 0 0 
L 0 6 
" style="stroke: #000000; stroke-width: 1.25"/>
      </defs>
      <g>
       <use xlink:href="#m3a508ef0e5" x="77.678111" y="304.2" style="stroke: #000000; stroke-width: 1.25"/>
      </g>
     </g>
     <g id="text_1">
      <!-- 0 -->
      <g transform="translate(74.928111 321.644063)scale(0.11 -0.11)">
       <defs>
        <path id="CMUSansSerif-30" d="M 263 1984 
L 263 2094 
Q 263 2344 272 2528 
Q 281 2713 332 3017 
Q 384 3322 473 3536 
Q 563 3750 748 3958 
Q 934 4166 1191 4263 
Q 1388 4341 1594 4341 
Q 1772 4341 1939 4292 
Q 2106 4244 2292 4100 
Q 2478 3956 2615 3731 
Q 2753 3506 2842 3112 
Q 2931 2719 2931 2209 
L 2931 2075 
Q 2931 1831 2922 1639 
Q 2913 1447 2861 1151 
Q 2809 856 2717 642 
Q 2625 428 2439 226 
Q 2253 25 1997 -72 
Q 1784 -144 1594 -141 
Q 1416 -141 1252 -95 
Q 1088 -50 898 87 
Q 709 225 575 448 
Q 441 672 352 1069 
Q 263 1466 263 1984 
z
M 763 1984 
Q 763 1556 820 1232 
Q 878 909 961 726 
Q 1044 544 1162 431 
Q 1281 319 1382 284 
Q 1484 250 1600 250 
Q 1747 250 1875 317 
Q 2003 384 2137 553 
Q 2272 722 2351 1090 
Q 2431 1459 2431 1991 
L 2431 2369 
Q 2431 2856 2351 3187 
Q 2272 3519 2134 3673 
Q 1997 3828 1869 3886 
Q 1741 3944 1594 3944 
Q 1447 3944 1319 3886 
Q 1191 3828 1056 3673 
Q 922 3519 842 3183 
Q 763 2847 763 2369 
L 763 1984 
z
" transform="scale(0.015625)"/>
       </defs>
       <use xlink:href="#CMUSansSerif-30"/>
      </g>
     </g>
    </g>
    <g id="xtick_2">
     <g id="line2d_2">
      <g>
       <use xlink:href="#m3a508ef0e5" x="133.713238" y="304.2" style="stroke: #000000; stroke-width: 1.25"/>
      </g>
     </g>
     <g id="text_2">
      <!-- 20 -->
      <g transform="translate(128.213238 321.644063)scale(0.11 -0.11)">
       <defs>
        <path id="CMUSansSerif-32" d="M 263 3291 
Q 575 4341 1503 4341 
Q 2119 4341 2497 3936 
Q 2875 3531 2875 2969 
Q 2875 2744 2814 2559 
Q 2753 2375 2576 2167 
Q 2400 1959 2265 1831 
Q 2131 1703 1806 1416 
Q 1634 1263 775 447 
L 2875 453 
L 2875 0 
L 313 0 
L 313 416 
L 1147 1241 
Q 1197 1291 1367 1445 
Q 1538 1600 1594 1654 
Q 1650 1709 1787 1846 
Q 1925 1984 1976 2057 
Q 2028 2131 2122 2256 
Q 2216 2381 2247 2476 
Q 2278 2572 2311 2697 
Q 2344 2822 2344 2950 
Q 2344 3359 2084 3640 
Q 1825 3922 1422 3922 
Q 1203 3922 1033 3823 
Q 863 3725 777 3581 
Q 691 3438 636 3294 
Q 581 3150 563 3047 
L 538 2938 
L 263 3291 
z
" transform="scale(0.015625)"/>
       </defs>
       <use xlink:href="#CMUSansSerif-32"/>
       <use xlink:href="#CMUSansSerif-30" x="50"/>
      </g>
     </g>
    </g>
    <g id="xtick_3">
     <g id="line2d_3">
      <g>
       <use xlink:href="#m3a508ef0e5" x="189.748365" y="304.2" style="stroke: #000000; stroke-width: 1.25"/>
      </g>
     </g>
     <g id="text_3">
      <!-- 40 -->
      <g transform="translate(184.248365 321.644063)scale(0.11 -0.11)">
       <defs>
        <path id="CMUSansSerif-34" d="M 172 1094 
Q 172 1094 172 1403 
Q 172 1481 244 1600 
L 1791 4191 
L 2381 4191 
L 2381 1484 
L 3016 1484 
L 3016 1094 
L 2381 1094 
L 2381 0 
L 1869 0 
L 1869 1094 
L 172 1094 
z
M 672 1484 
L 1906 1484 
L 1906 3956 
Q 1869 3719 1725 3392 
Q 1581 3066 1453 2839 
Q 1325 2613 891 1863 
Q 750 1619 672 1484 
z
" transform="scale(0.015625)"/>
       </defs>
       <use xlink:href="#CMUSansSerif-34"/>
       <use xlink:href="#CMUSansSerif-30" x="50"/>
      </g>
     </g>
    </g>
    <g id="xtick_4">
     <g id="line2d_4">
      <g>
       <use xlink:href="#m3a508ef0e5" x="245.783493" y="304.2" style="stroke: #000000; stroke-width: 1.25"/>
      </g>
     </g>
     <g id="text_4">
      <!-- 60 -->
      <g transform="translate(240.283493 321.644063)scale(0.11 -0.11)">
       <defs>
        <path id="CMUSansSerif-36" d="M 269 2069 
Q 269 3028 755 3684 
Q 1241 4341 1978 4341 
Q 2309 4341 2663 4213 
L 2663 3828 
Q 2297 3963 1978 3963 
Q 1606 3963 1331 3703 
Q 1056 3444 940 3114 
Q 825 2784 806 2431 
Q 1003 2681 1292 2818 
Q 1581 2956 1888 2956 
Q 2309 2956 2584 2566 
Q 2925 2091 2925 1434 
Q 2925 725 2484 256 
Q 2113 -141 1613 -141 
Q 1434 -141 1264 -89 
Q 1094 -38 908 109 
Q 722 256 584 489 
Q 447 722 358 1130 
Q 269 1538 269 2069 
z
M 813 1409 
Q 934 256 1606 256 
Q 1931 256 2120 476 
Q 2309 697 2369 966 
Q 2400 1106 2400 1394 
Q 2400 1950 2222 2234 
Q 2009 2566 1638 2566 
Q 1278 2566 1048 2275 
Q 819 1984 819 1581 
Q 819 1525 831 1409 
L 813 1409 
z
" transform="scale(0.015625)"/>
       </defs>
       <use xlink:href="#CMUSansSerif-36"/>
       <use xlink:href="#CMUSansSerif-30" x="50"/>
      </g>
     </g>
    </g>
    <g id="xtick_5">
     <g id="line2d_5">
      <g>
       <use xlink:href="#m3a508ef0e5" x="301.81862" y="304.2" style="stroke: #000000; stroke-width: 1.25"/>
      </g>
     </g>
     <g id="text_5">
      <!-- 80 -->
      <g transform="translate(296.31862 321.644063)scale(0.11 -0.11)">
       <defs>
        <path id="CMUSansSerif-38" d="M 263 1153 
Q 263 1513 480 1806 
Q 697 2100 1153 2266 
Q 847 2363 600 2608 
Q 353 2853 353 3219 
Q 353 3666 711 4003 
Q 1069 4341 1594 4341 
Q 2125 4341 2479 4000 
Q 2834 3659 2834 3219 
Q 2834 2919 2636 2666 
Q 2438 2413 2034 2266 
Q 2388 2156 2656 1865 
Q 2925 1575 2925 1147 
Q 2925 634 2540 246 
Q 2156 -141 1594 -141 
Q 1038 -141 650 243 
Q 263 628 263 1153 
z
M 781 1159 
Q 781 750 1004 503 
Q 1228 256 1594 256 
Q 1947 256 2176 500 
Q 2406 744 2406 1166 
Q 2406 1569 2179 1819 
Q 1953 2069 1594 2069 
Q 1281 2069 1031 1841 
Q 781 1613 781 1159 
z
M 800 3213 
Q 800 2872 1020 2667 
Q 1241 2463 1588 2463 
Q 1947 2463 2167 2672 
Q 2388 2881 2388 3213 
Q 2388 3553 2167 3758 
Q 1947 3963 1594 3963 
Q 1234 3963 1017 3753 
Q 800 3544 800 3213 
z
" transform="scale(0.015625)"/>
       </defs>
       <use xlink:href="#CMUSansSerif-38"/>
       <use xlink:href="#CMUSansSerif-30" x="50"/>
      </g>
     </g>
    </g>
    <g id="xtick_6">
     <g id="line2d_6">
      <g>
       <use xlink:href="#m3a508ef0e5" x="357.853747" y="304.2" style="stroke: #000000; stroke-width: 1.25"/>
      </g>
     </g>
     <g id="text_6">
      <!-- 100 -->
      <g transform="translate(349.603747 321.644063)scale(0.11 -0.11)">
       <defs>
        <path id="CMUSansSerif-31" d="M 575 3547 
L 575 3916 
Q 1344 3916 1797 4341 
L 1919 4341 
L 1919 378 
L 2719 378 
L 2719 0 
L 609 0 
L 609 378 
L 1409 378 
L 1409 3694 
Q 1028 3547 575 3547 
z
" transform="scale(0.015625)"/>
       </defs>
       <use xlink:href="#CMUSansSerif-31"/>
       <use xlink:href="#CMUSansSerif-30" x="50"/>
       <use xlink:href="#CMUSansSerif-30" x="100"/>
      </g>
     </g>
    </g>
    <g id="xtick_7">
     <g id="line2d_7">
      <g>
       <use xlink:href="#m3a508ef0e5" x="413.888874" y="304.2" style="stroke: #000000; stroke-width: 1.25"/>
      </g>
     </g>
     <g id="text_7">
      <!-- 120 -->
      <g transform="translate(405.638874 321.644063)scale(0.11 -0.11)">
       <use xlink:href="#CMUSansSerif-31"/>
       <use xlink:href="#CMUSansSerif-32" x="50"/>
       <use xlink:href="#CMUSansSerif-30" x="100"/>
      </g>
     </g>
    </g>
    <g id="xtick_8">
     <g id="line2d_8">
      <g>
       <use xlink:href="#m3a508ef0e5" x="469.924001" y="304.2" style="stroke: #000000; stroke-width: 1.25"/>
      </g>
     </g>
     <g id="text_8">
      <!-- 140 -->
      <g transform="translate(461.674001 321.644063)scale(0.11 -0.11)">
       <use xlink:href="#CMUSansSerif-31"/>
       <use xlink:href="#CMUSansSerif-34" x="50"/>
       <use xlink:href="#CMUSansSerif-30" x="100"/>
      </g>
     </g>
    </g>
    <g id="text_9">
     <!-- Number of Discussions by Author -->
     <g transform="translate(178.303125 338.048906)scale(0.14 -0.14)">
      <defs>
       <path id="CMUSansSerif-4e" d="M 609 0 
L 609 4441 
L 1409 4441 
L 3163 959 
L 3413 447 
L 3413 4441 
L 3909 4441 
L 3909 0 
L 3109 0 
L 1356 3481 
L 1106 3994 
L 1106 0 
L 609 0 
z
" transform="scale(0.015625)"/>
       <path id="CMUSansSerif-75" d="M 513 781 
L 513 2847 
L 1013 2847 
L 1013 703 
Q 1019 478 1117 383 
Q 1216 288 1522 288 
Q 1853 288 2056 464 
Q 2259 641 2284 872 
Q 2291 934 2291 1056 
L 2291 2847 
L 2791 2847 
L 2791 0 
L 2303 0 
L 2303 306 
Q 1869 -72 1184 -72 
Q 994 -72 858 -11 
Q 722 50 655 128 
Q 588 206 553 343 
Q 519 481 516 561 
Q 513 641 513 781 
z
" transform="scale(0.015625)"/>
       <path id="CMUSansSerif-6d" d="M 513 0 
L 513 2881 
L 978 2881 
L 978 2431 
Q 1350 2913 1913 2913 
Q 2534 2913 2725 2394 
Q 3116 2913 3694 2913 
Q 3938 2913 4113 2833 
Q 4288 2753 4373 2647 
Q 4459 2541 4507 2375 
Q 4556 2209 4562 2103 
Q 4569 1997 4569 1844 
L 4569 0 
L 4063 0 
L 4063 1797 
Q 4063 1809 4063 1836 
Q 4063 1863 4050 1939 
Q 4038 2016 4016 2083 
Q 3994 2150 3948 2233 
Q 3903 2316 3839 2377 
Q 3775 2438 3673 2480 
Q 3572 2522 3444 2522 
Q 3103 2522 2947 2234 
Q 2791 1947 2791 1538 
L 2791 0 
L 2291 0 
L 2291 1797 
Q 2291 1906 2287 1970 
Q 2284 2034 2250 2153 
Q 2216 2272 2155 2342 
Q 2094 2413 1969 2467 
Q 1844 2522 1663 2522 
Q 1322 2522 1167 2234 
Q 1013 1947 1013 1538 
L 1013 0 
L 513 0 
z
" transform="scale(0.015625)"/>
       <path id="CMUSansSerif-62" d="M 519 0 
L 519 4622 
L 997 4622 
L 997 2541 
Q 1466 2913 2022 2913 
Q 2481 2913 2776 2470 
Q 3072 2028 3072 1434 
Q 3072 788 2717 358 
Q 2363 -72 1875 -72 
Q 1422 -72 1019 294 
L 1019 0 
L 519 0 
z
M 1019 850 
Q 1019 800 1022 772 
Q 1025 744 1034 717 
Q 1044 691 1053 678 
Q 1063 666 1084 634 
Q 1106 603 1125 575 
Q 1338 319 1650 319 
Q 1991 319 2278 587 
Q 2566 856 2566 1428 
Q 2566 1728 2483 1954 
Q 2400 2181 2262 2297 
Q 2125 2413 1984 2467 
Q 1844 2522 1703 2522 
Q 1453 2522 1236 2375 
Q 1019 2228 1019 2047 
L 1019 850 
z
" transform="scale(0.015625)"/>
       <path id="CMUSansSerif-65" d="M 219 1447 
Q 219 2081 605 2515 
Q 991 2950 1509 2950 
Q 1700 2950 1873 2889 
Q 2047 2828 2223 2687 
Q 2400 2547 2515 2265 
Q 2631 1984 2650 1594 
L 2650 1409 
L 666 1409 
Q 684 928 959 626 
Q 1234 325 1613 325 
Q 2100 325 2584 678 
L 2625 256 
Q 2138 -69 1613 -72 
Q 1003 -72 611 379 
Q 219 831 219 1447 
z
M 697 1759 
L 2284 1759 
Q 2247 2009 2147 2182 
Q 2047 2356 1922 2429 
Q 1797 2503 1698 2528 
Q 1600 2553 1509 2553 
Q 1184 2553 971 2303 
Q 759 2053 697 1759 
z
" transform="scale(0.015625)"/>
       <path id="CMUSansSerif-72" d="M 519 0 
L 519 2881 
L 966 2881 
L 966 2303 
Q 1044 2425 1151 2537 
Q 1259 2650 1518 2778 
Q 1778 2906 2088 2913 
L 2088 2484 
Q 1922 2478 1755 2423 
Q 1588 2369 1405 2250 
Q 1222 2131 1109 1887 
Q 997 1644 997 1319 
L 997 0 
L 519 0 
z
" transform="scale(0.015625)"/>
       <path id="CMUSansSerif-20" transform="scale(0.015625)"/>
       <path id="CMUSansSerif-6f" d="M 191 1416 
Q 191 2063 605 2506 
Q 1019 2950 1594 2950 
Q 2197 2950 2600 2486 
Q 3003 2022 3003 1409 
Q 3003 775 2579 351 
Q 2156 -72 1593 -72 
Q 1031 -72 611 354 
Q 191 781 191 1416 
z
M 691 1478 
Q 691 916 962 628 
Q 1234 341 1593 341 
Q 1953 341 2225 631 
Q 2497 922 2497 1478 
Q 2497 2016 2225 2284 
Q 1953 2553 1594 2553 
Q 1241 2553 966 2284 
Q 691 2016 691 1478 
z
" transform="scale(0.015625)"/>
       <path id="CMUSansSerif-66" d="M 172 2472 
L 172 2847 
L 647 2847 
L 647 3316 
Q 647 3341 644 3392 
Q 641 3444 641 3469 
Q 641 4056 964 4373 
Q 1288 4691 1716 4691 
Q 1953 4691 2222 4622 
L 2222 4191 
Q 1947 4300 1703 4300 
Q 1484 4300 1295 4172 
Q 1106 4044 1106 3719 
L 1106 2847 
L 1831 2847 
L 1831 2472 
L 1125 2472 
L 1125 0 
L 647 0 
L 647 2472 
L 172 2472 
z
" transform="scale(0.015625)"/>
       <path id="CMUSansSerif-44" d="M 609 0 
L 609 4441 
L 2181 4441 
Q 2822 4441 3284 4141 
Q 3753 3834 4008 3306 
Q 4263 2778 4263 2188 
Q 4263 1297 3738 697 
Q 3213 97 2503 13 
Q 2400 0 2194 0 
L 609 0 
z
M 1166 359 
L 2081 359 
Q 2881 359 3328 947 
Q 3706 1441 3706 2181 
Q 3706 2994 3279 3539 
Q 2853 4084 2081 4084 
L 1166 4084 
L 1166 359 
z
" transform="scale(0.015625)"/>
       <path id="CMUSansSerif-69" d="M 475 3775 
L 475 4347 
L 1050 4347 
L 1050 3775 
L 475 3775 
z
M 519 0 
L 519 2847 
L 997 2847 
L 997 0 
L 519 0 
z
" transform="scale(0.015625)"/>
       <path id="CMUSansSerif-73" d="M 172 219 
L 250 653 
Q 263 647 333 605 
Q 403 563 439 544 
Q 475 525 554 486 
Q 634 447 701 425 
Q 769 403 858 378 
Q 947 353 1047 342 
Q 1147 331 1253 331 
Q 1572 331 1711 467 
Q 1850 603 1850 769 
Q 1850 928 1734 1034 
Q 1619 1141 1491 1178 
Q 1428 1197 1206 1242 
Q 984 1288 878 1319 
Q 616 1403 414 1604 
Q 213 1806 213 2106 
Q 213 2253 256 2384 
Q 300 2516 406 2653 
Q 513 2791 733 2870 
Q 953 2950 1259 2950 
Q 1719 2950 2194 2753 
L 2125 2328 
Q 2119 2334 2051 2364 
Q 1984 2394 1975 2400 
Q 1966 2406 1905 2431 
Q 1844 2456 1820 2464 
Q 1797 2472 1740 2494 
Q 1684 2516 1651 2519 
Q 1619 2522 1558 2537 
Q 1497 2553 1450 2556 
Q 1403 2559 1339 2562 
Q 1275 2566 1203 2566 
Q 909 2566 787 2447 
Q 666 2328 666 2175 
Q 666 1963 836 1870 
Q 1006 1778 1312 1725 
Q 1619 1672 1747 1613 
Q 1978 1509 2140 1304 
Q 2303 1100 2303 813 
Q 2303 666 2259 525 
Q 2216 384 2109 243 
Q 2003 103 1783 15 
Q 1563 -72 1259 -72 
Q 697 -69 172 219 
z
" transform="scale(0.015625)"/>
       <path id="CMUSansSerif-63" d="M 225 1428 
Q 225 2022 608 2486 
Q 991 2950 1631 2950 
Q 1931 2950 2129 2892 
Q 2328 2834 2625 2669 
L 2547 2247 
Q 2234 2444 2069 2491 
Q 1884 2541 1625 2541 
Q 1191 2541 956 2211 
Q 722 1881 722 1428 
Q 722 953 972 647 
Q 1222 341 1619 341 
Q 2119 341 2625 684 
L 2656 256 
Q 2150 -69 1613 -72 
Q 1025 -72 625 367 
Q 225 806 225 1428 
z
" transform="scale(0.015625)"/>
       <path id="CMUSansSerif-6e" d="M 513 0 
L 513 2881 
L 978 2881 
L 978 2431 
Q 1350 2913 1913 2913 
Q 2150 2913 2320 2842 
Q 2491 2772 2580 2669 
Q 2669 2566 2717 2409 
Q 2766 2253 2778 2131 
Q 2791 2009 2791 1844 
L 2791 0 
L 2291 0 
L 2291 1797 
Q 2291 1906 2287 1970 
Q 2284 2034 2250 2153 
Q 2216 2272 2155 2342 
Q 2094 2413 1969 2467 
Q 1844 2522 1663 2522 
Q 1322 2522 1167 2234 
Q 1013 1947 1013 1538 
L 1013 0 
L 513 0 
z
" transform="scale(0.015625)"/>
       <path id="CMUSansSerif-79" d="M 91 2847 
L 594 2847 
Q 1003 1906 1209 1375 
Q 1416 844 1450 706 
Q 1484 569 1522 319 
Q 1534 766 2375 2847 
L 2853 2847 
L 1466 -575 
Q 1281 -1003 1120 -1158 
Q 959 -1313 728 -1313 
Q 466 -1313 263 -1259 
L 231 -844 
Q 572 -953 697 -953 
Q 869 -953 956 -828 
Q 1044 -703 1222 -269 
Q 1266 -159 1294 -97 
Q 1319 -41 1319 4 
Q 1319 50 1288 116 
L 91 2847 
z
" transform="scale(0.015625)"/>
       <path id="CMUSansSerif-41" d="M 172 0 
L 1844 4441 
L 2413 4441 
L 4078 0 
L 3488 0 
L 2994 1306 
L 1141 1306 
L 653 0 
L 172 0 
z
M 1275 1663 
L 2859 1663 
Q 2103 3756 2069 3994 
Q 1984 3603 1275 1663 
z
" transform="scale(0.015625)"/>
       <path id="CMUSansSerif-74" d="M 116 2472 
L 116 2847 
L 666 2847 
L 666 3653 
L 1113 3653 
L 1113 2847 
L 2016 2847 
L 2016 2472 
L 1113 2472 
L 1113 897 
Q 1113 341 1459 341 
Q 1728 341 2022 550 
L 2125 172 
Q 1672 -72 1178 -72 
Q 653 -72 653 750 
L 653 2472 
L 116 2472 
z
" transform="scale(0.015625)"/>
       <path id="CMUSansSerif-68" d="M 513 0 
L 513 4622 
L 991 4622 
L 991 2456 
Q 1375 2909 1913 2913 
Q 2156 2913 2329 2836 
Q 2503 2759 2589 2653 
Q 2675 2547 2723 2384 
Q 2772 2222 2781 2109 
Q 2791 1997 2791 1844 
L 2791 0 
L 2291 0 
L 2291 1797 
Q 2291 1906 2287 1970 
Q 2284 2034 2250 2153 
Q 2216 2272 2155 2342 
Q 2094 2413 1969 2467 
Q 1844 2522 1663 2522 
Q 1322 2522 1167 2234 
Q 1013 1947 1013 1538 
L 1013 0 
L 513 0 
z
" transform="scale(0.015625)"/>
      </defs>
      <use xlink:href="#CMUSansSerif-4e"/>
      <use xlink:href="#CMUSansSerif-75" x="70.751953"/>
      <use xlink:href="#CMUSansSerif-6d" x="122.412109"/>
      <use xlink:href="#CMUSansSerif-62" x="201.806641"/>
      <use xlink:href="#CMUSansSerif-65" x="253.466797"/>
      <use xlink:href="#CMUSansSerif-72" x="297.851562"/>
      <use xlink:href="#CMUSansSerif-20" x="332.03125"/>
      <use xlink:href="#CMUSansSerif-6f" x="365.283203"/>
      <use xlink:href="#CMUSansSerif-66" x="415.283203"/>
      <use xlink:href="#CMUSansSerif-20" x="445.751953"/>
      <use xlink:href="#CMUSansSerif-44" x="479.003906"/>
      <use xlink:href="#CMUSansSerif-69" x="551.171875"/>
      <use xlink:href="#CMUSansSerif-73" x="575.048828"/>
      <use xlink:href="#CMUSansSerif-63" x="613.330078"/>
      <use xlink:href="#CMUSansSerif-75" x="657.714844"/>
      <use xlink:href="#CMUSansSerif-73" x="709.375"/>
      <use xlink:href="#CMUSansSerif-73" x="747.65625"/>
      <use xlink:href="#CMUSansSerif-69" x="785.9375"/>
      <use xlink:href="#CMUSansSerif-6f" x="809.814453"/>
      <use xlink:href="#CMUSansSerif-6e" x="859.814453"/>
      <use xlink:href="#CMUSansSerif-73" x="911.474609"/>
      <use xlink:href="#CMUSansSerif-20" x="949.755859"/>
      <use xlink:href="#CMUSansSerif-62" x="983.007812"/>
      <use xlink:href="#CMUSansSerif-79" x="1034.667969"/>
      <use xlink:href="#CMUSansSerif-20" x="1080.761719"/>
      <use xlink:href="#CMUSansSerif-41" x="1114.013672"/>
      <use xlink:href="#CMUSansSerif-75" x="1180.712891"/>
      <use xlink:href="#CMUSansSerif-74" x="1232.373047"/>
      <use xlink:href="#CMUSansSerif-68" x="1268.457031"/>
      <use xlink:href="#CMUSansSerif-6f" x="1320.117188"/>
      <use xlink:href="#CMUSansSerif-72" x="1370.117188"/>
     </g>
    </g>
   </g>
   <g id="matplotlib.axis_2">
    <g id="ytick_1">
     <g id="line2d_9">
      <defs>
       <path id="m606f5d69bc" d="M 0 0 
L -6 0 
" style="stroke: #000000; stroke-width: 1.25"/>
      </defs>
      <g>
       <use xlink:href="#m606f5d69bc" x="53.402813" y="304.2" style="stroke: #000000; stroke-width: 1.25"/>
      </g>
     </g>
     <g id="text_10">
      <!-- 0.00 -->
      <g transform="translate(24.346875 308.172031)scale(0.11 -0.11)">
       <defs>
        <path id="CMUSansSerif-2e" d="M 616 0 
L 616 538 
L 1153 538 
L 1153 0 
L 616 0 
z
" transform="scale(0.015625)"/>
       </defs>
       <use xlink:href="#CMUSansSerif-30"/>
       <use xlink:href="#CMUSansSerif-2e" x="50"/>
       <use xlink:href="#CMUSansSerif-30" x="77.783203"/>
       <use xlink:href="#CMUSansSerif-30" x="127.783203"/>
      </g>
     </g>
    </g>
    <g id="ytick_2">
     <g id="line2d_10">
      <g>
       <use xlink:href="#m606f5d69bc" x="53.402813" y="269.184796" style="stroke: #000000; stroke-width: 1.25"/>
      </g>
     </g>
     <g id="text_11">
      <!-- 0.05 -->
      <g transform="translate(24.346875 273.156827)scale(0.11 -0.11)">
       <defs>
        <path id="CMUSansSerif-35" d="M 244 488 
L 459 844 
Q 819 256 1459 256 
Q 1778 256 2037 503 
Q 2297 750 2297 1313 
Q 2297 1838 2108 2091 
Q 1919 2344 1644 2344 
Q 1209 2344 941 1831 
L 506 1831 
L 506 4191 
L 2663 4191 
L 2663 3781 
L 972 3781 
L 972 2472 
Q 1297 2734 1656 2731 
Q 2150 2731 2512 2318 
Q 2875 1906 2875 1306 
Q 2875 691 2454 275 
Q 2034 -141 1466 -141 
Q 1100 -141 775 29 
Q 450 200 244 488 
z
" transform="scale(0.015625)"/>
       </defs>
       <use xlink:href="#CMUSansSerif-30"/>
       <use xlink:href="#CMUSansSerif-2e" x="50"/>
       <use xlink:href="#CMUSansSerif-30" x="77.783203"/>
       <use xlink:href="#CMUSansSerif-35" x="127.783203"/>
      </g>
     </g>
    </g>
    <g id="ytick_3">
     <g id="line2d_11">
      <g>
       <use xlink:href="#m606f5d69bc" x="53.402813" y="234.169592" style="stroke: #000000; stroke-width: 1.25"/>
      </g>
     </g>
     <g id="text_12">
      <!-- 0.10 -->
      <g transform="translate(24.346875 238.141623)scale(0.11 -0.11)">
       <use xlink:href="#CMUSansSerif-30"/>
       <use xlink:href="#CMUSansSerif-2e" x="50"/>
       <use xlink:href="#CMUSansSerif-31" x="77.783203"/>
       <use xlink:href="#CMUSansSerif-30" x="127.783203"/>
      </g>
     </g>
    </g>
    <g id="ytick_4">
     <g id="line2d_12">
      <g>
       <use xlink:href="#m606f5d69bc" x="53.402813" y="199.154388" style="stroke: #000000; stroke-width: 1.25"/>
      </g>
     </g>
     <g id="text_13">
      <!-- 0.15 -->
      <g transform="translate(24.346875 203.126419)scale(0.11 -0.11)">
       <use xlink:href="#CMUSansSerif-30"/>
       <use xlink:href="#CMUSansSerif-2e" x="50"/>
       <use xlink:href="#CMUSansSerif-31" x="77.783203"/>
       <use xlink:href="#CMUSansSerif-35" x="127.783203"/>
      </g>
     </g>
    </g>
    <g id="ytick_5">
     <g id="line2d_13">
      <g>
       <use xlink:href="#m606f5d69bc" x="53.402813" y="164.139184" style="stroke: #000000; stroke-width: 1.25"/>
      </g>
     </g>
     <g id="text_14">
      <!-- 0.20 -->
      <g transform="translate(24.346875 168.111215)scale(0.11 -0.11)">
       <use xlink:href="#CMUSansSerif-30"/>
       <use xlink:href="#CMUSansSerif-2e" x="50"/>
       <use xlink:href="#CMUSansSerif-32" x="77.783203"/>
       <use xlink:href="#CMUSansSerif-30" x="127.783203"/>
      </g>
     </g>
    </g>
    <g id="ytick_6">
     <g id="line2d_14">
      <g>
       <use xlink:href="#m606f5d69bc" x="53.402813" y="129.12398" style="stroke: #000000; stroke-width: 1.25"/>
      </g>
     </g>
     <g id="text_15">
      <!-- 0.25 -->
      <g transform="translate(24.346875 133.096011)scale(0.11 -0.11)">
       <use xlink:href="#CMUSansSerif-30"/>
       <use xlink:href="#CMUSansSerif-2e" x="50"/>
       <use xlink:href="#CMUSansSerif-32" x="77.783203"/>
       <use xlink:href="#CMUSansSerif-35" x="127.783203"/>
      </g>
     </g>
    </g>
    <g id="ytick_7">
     <g id="line2d_15">
      <g>
       <use xlink:href="#m606f5d69bc" x="53.402813" y="94.108776" style="stroke: #000000; stroke-width: 1.25"/>
      </g>
     </g>
     <g id="text_16">
      <!-- 0.30 -->
      <g transform="translate(24.346875 98.080807)scale(0.11 -0.11)">
       <defs>
        <path id="CMUSansSerif-33" d="M 263 519 
L 331 909 
Q 538 634 816 473 
Q 1094 313 1255 284 
Q 1416 256 1563 256 
Q 1916 256 2133 512 
Q 2350 769 2350 1166 
Q 2350 1538 2140 1803 
Q 1931 2069 1528 2069 
L 1063 2069 
L 1063 2463 
Q 1216 2475 1328 2486 
Q 1441 2497 1472 2500 
Q 1503 2503 1522 2503 
Q 1828 2559 2025 2809 
Q 2222 3059 2222 3359 
Q 2222 3628 2042 3792 
Q 1863 3956 1575 3956 
Q 1013 3956 684 3475 
Q 647 3419 581 3291 
L 353 3641 
Q 794 4338 1588 4341 
Q 2075 4341 2411 4052 
Q 2747 3763 2747 3359 
Q 2747 2669 2034 2266 
Q 2475 2113 2700 1811 
Q 2925 1509 2925 1153 
Q 2925 634 2537 246 
Q 2150 -141 1569 -141 
Q 781 -141 263 519 
z
" transform="scale(0.015625)"/>
       </defs>
       <use xlink:href="#CMUSansSerif-30"/>
       <use xlink:href="#CMUSansSerif-2e" x="50"/>
       <use xlink:href="#CMUSansSerif-33" x="77.783203"/>
       <use xlink:href="#CMUSansSerif-30" x="127.783203"/>
      </g>
     </g>
    </g>
    <g id="ytick_8">
     <g id="line2d_16">
      <g>
       <use xlink:href="#m606f5d69bc" x="53.402813" y="59.093572" style="stroke: #000000; stroke-width: 1.25"/>
      </g>
     </g>
     <g id="text_17">
      <!-- 0.35 -->
      <g transform="translate(24.346875 63.065603)scale(0.11 -0.11)">
       <use xlink:href="#CMUSansSerif-30"/>
       <use xlink:href="#CMUSansSerif-2e" x="50"/>
       <use xlink:href="#CMUSansSerif-33" x="77.783203"/>
       <use xlink:href="#CMUSansSerif-35" x="127.783203"/>
      </g>
     </g>
    </g>
    <g id="text_18">
     <!-- Percentage of All Discussions -->
     <g transform="translate(17.461563 254.174688)rotate(-90)scale(0.14 -0.14)">
      <defs>
       <path id="CMUSansSerif-50" d="M 609 0 
L 609 4441 
L 2119 4441 
Q 2706 4441 3103 4191 
Q 3397 4006 3561 3737 
Q 3725 3469 3725 3156 
Q 3725 2656 3312 2250 
Q 2900 1844 2144 1844 
Q 2113 1844 2042 1847 
Q 1972 1850 1931 1850 
L 1184 1850 
L 1184 0 
L 609 0 
z
M 1166 2222 
L 2016 2222 
Q 2347 2222 2597 2311 
Q 2847 2400 2969 2550 
Q 3091 2700 3148 2851 
Q 3206 3003 3206 3156 
Q 3206 3297 3154 3440 
Q 3103 3584 2986 3737 
Q 2869 3891 2619 3987 
Q 2369 4084 2016 4084 
L 1166 4084 
L 1166 2222 
z
" transform="scale(0.015625)"/>
       <path id="CMUSansSerif-61" d="M 281 722 
Q 281 959 461 1136 
Q 641 1313 931 1398 
Q 1222 1484 1500 1526 
Q 1778 1569 2059 1569 
L 2059 1784 
Q 2047 2194 1894 2375 
Q 1734 2566 1491 2566 
Q 997 2566 531 2241 
L 494 2669 
Q 975 2950 1497 2950 
Q 1938 2950 2236 2659 
Q 2534 2369 2559 1953 
L 2559 0 
L 2075 0 
L 2075 225 
Q 2050 200 1956 142 
Q 1863 84 1594 6 
Q 1325 -72 1013 -72 
Q 647 -72 464 187 
Q 281 447 281 722 
z
M 750 728 
Q 750 556 919 440 
Q 1088 325 1344 325 
Q 1619 325 1839 440 
Q 2059 556 2059 831 
L 2059 1234 
Q 1863 1234 1658 1209 
Q 1453 1184 1236 1132 
Q 1019 1081 884 975 
Q 750 869 750 728 
z
" transform="scale(0.015625)"/>
       <path id="CMUSansSerif-67" d="M 172 -453 
Q 172 -38 581 206 
Q 422 438 422 691 
Q 422 978 609 1228 
L 609 1234 
Q 397 1509 397 1869 
Q 397 2322 701 2617 
Q 1006 2913 1416 2913 
Q 1741 2913 2041 2700 
L 2028 2713 
Q 2503 2909 3034 2913 
L 3103 2509 
Q 2913 2528 2725 2528 
Q 2706 2528 2247 2503 
L 2188 2553 
Q 2438 2213 2438 1869 
Q 2438 1453 2144 1139 
Q 1850 825 1416 825 
Q 1134 825 831 1019 
Q 759 878 763 781 
Q 763 653 839 547 
Q 916 441 1119 441 
L 1600 441 
Q 1825 441 1981 425 
Q 2138 409 2372 354 
Q 2606 300 2762 156 
Q 2919 13 2981 -213 
Q 3013 -341 3016 -447 
Q 3016 -819 2598 -1069 
Q 2181 -1319 1594 -1319 
Q 1000 -1319 586 -1069 
Q 172 -819 172 -453 
z
M 622 -453 
Q 622 -619 794 -737 
Q 966 -856 1177 -904 
Q 1388 -953 1588 -953 
Q 1991 -953 2278 -815 
Q 2566 -678 2566 -459 
Q 2566 -19 1613 -19 
L 1209 -19 
L 1025 -25 
Q 841 -44 731 -172 
Q 622 -300 622 -453 
z
M 844 1869 
Q 844 1563 1001 1380 
Q 1159 1197 1422 1197 
Q 1641 1197 1816 1353 
Q 1991 1509 1991 1875 
Q 1991 2181 1834 2364 
Q 1678 2547 1416 2547 
Q 1197 2547 1020 2390 
Q 844 2234 844 1869 
z
" transform="scale(0.015625)"/>
       <path id="CMUSansSerif-6c" d="M 519 0 
L 519 4622 
L 997 4622 
L 997 0 
L 519 0 
z
" transform="scale(0.015625)"/>
      </defs>
      <use xlink:href="#CMUSansSerif-50"/>
      <use xlink:href="#CMUSansSerif-65" x="63.867188"/>
      <use xlink:href="#CMUSansSerif-72" x="108.251953"/>
      <use xlink:href="#CMUSansSerif-63" x="142.431641"/>
      <use xlink:href="#CMUSansSerif-65" x="186.816406"/>
      <use xlink:href="#CMUSansSerif-6e" x="231.201172"/>
      <use xlink:href="#CMUSansSerif-74" x="282.861328"/>
      <use xlink:href="#CMUSansSerif-61" x="318.945312"/>
      <use xlink:href="#CMUSansSerif-67" x="366.943359"/>
      <use xlink:href="#CMUSansSerif-65" x="416.943359"/>
      <use xlink:href="#CMUSansSerif-20" x="461.328125"/>
      <use xlink:href="#CMUSansSerif-6f" x="494.580078"/>
      <use xlink:href="#CMUSansSerif-66" x="544.580078"/>
      <use xlink:href="#CMUSansSerif-20" x="575.048828"/>
      <use xlink:href="#CMUSansSerif-41" x="608.300781"/>
      <use xlink:href="#CMUSansSerif-6c" x="675"/>
      <use xlink:href="#CMUSansSerif-6c" x="698.876953"/>
      <use xlink:href="#CMUSansSerif-20" x="722.753906"/>
      <use xlink:href="#CMUSansSerif-44" x="756.005859"/>
      <use xlink:href="#CMUSansSerif-69" x="828.173828"/>
      <use xlink:href="#CMUSansSerif-73" x="852.050781"/>
      <use xlink:href="#CMUSansSerif-63" x="890.332031"/>
      <use xlink:href="#CMUSansSerif-75" x="934.716797"/>
      <use xlink:href="#CMUSansSerif-73" x="986.376953"/>
      <use xlink:href="#CMUSansSerif-73" x="1024.658203"/>
      <use xlink:href="#CMUSansSerif-69" x="1062.939453"/>
      <use xlink:href="#CMUSansSerif-6f" x="1086.816406"/>
      <use xlink:href="#CMUSansSerif-6e" x="1136.816406"/>
      <use xlink:href="#CMUSansSerif-73" x="1188.476562"/>
     </g>
    </g>
   </g>
   <g id="line2d_17">
    <path d="M 73.693722 301.368038 
L 75.733009 275.87925 
L 77.772296 177.407493 
L 79.811584 45.342857 
L 81.850871 49.707283 
L 83.890158 164.343669 
L 85.929446 245.348159 
L 87.968733 277.545085 
L 90.00802 290.037609 
L 92.047308 295.375886 
L 94.086595 297.554487 
L 100.204457 301.09252 
L 102.243744 301.938242 
L 104.283032 302.448121 
L 106.322319 302.74531 
L 108.361606 302.835899 
L 110.400894 302.798603 
L 112.440181 302.998222 
L 114.479469 303.356221 
L 116.518756 303.493654 
L 120.597331 303.433518 
L 124.675905 303.667016 
L 126.715193 303.778328 
L 132.833055 303.752332 
L 163.422365 304.059686 
L 169.540227 304.046701 
L 175.658089 304.196456 
L 189.9331 304.126484 
L 196.050962 303.945722 
L 202.168824 304.17348 
L 212.365261 304.166055 
L 247.033146 304.189535 
L 255.190295 304.183769 
L 265.386732 304.169174 
L 271.504594 304.177087 
L 283.740318 304.186768 
L 293.936755 304.133347 
L 304.133192 304.199999 
L 479.511903 304.199259 
L 479.511903 304.199259 
" clip-path="url(#p541406362f)" style="fill: none; stroke: #ff2400; stroke-width: 1.5; stroke-linecap: square"/>
   </g>
   <g id="patch_3">
    <path d="M 53.402813 304.2 
L 53.402813 32.4 
" style="fill: none; stroke: #000000; stroke-width: 1.25; stroke-linejoin: miter; stroke-linecap: square"/>
   </g>
   <g id="patch_4">
    <path d="M 499.802812 304.2 
L 499.802812 32.4 
" style="fill: none; stroke: #000000; stroke-width: 1.25; stroke-linejoin: miter; stroke-linecap: square"/>
   </g>
   <g id="patch_5">
    <path d="M 53.402813 304.2 
L 499.802812 304.2 
" style="fill: none; stroke: #000000; stroke-width: 1.25; stroke-linejoin: miter; stroke-linecap: square"/>
   </g>
   <g id="patch_6">
    <path d="M 53.402813 32.4 
L 499.802812 32.4 
" style="fill: none; stroke: #000000; stroke-width: 1.25; stroke-linejoin: miter; stroke-linecap: square"/>
   </g>
  </g>
  <g id="text_19">
   <!-- Histogram of Number of Discussions per Author -->
   <g transform="translate(108.259062 18.9275)scale(0.16 -0.16)">
    <defs>
     <path id="CMUSansSerif-48" d="M 603 0 
L 603 4441 
L 1178 4441 
L 1178 2509 
L 3353 2509 
L 3353 4441 
L 3928 4441 
L 3928 0 
L 3353 0 
L 3353 2113 
L 1178 2113 
L 1178 0 
L 603 0 
z
" transform="scale(0.015625)"/>
     <path id="CMUSansSerif-70" d="M 519 -1247 
L 519 2847 
L 997 2847 
L 997 2534 
Q 1466 2913 2059 2913 
Q 2500 2913 2786 2470 
Q 3072 2028 3072 1434 
Q 3072 775 2717 351 
Q 2363 -72 1881 -72 
Q 1406 -72 1019 294 
L 1019 -1247 
L 519 -1247 
z
M 1019 806 
Q 1019 666 1200 492 
Q 1381 319 1638 319 
Q 1997 319 2281 626 
Q 2566 934 2566 1422 
Q 2566 1856 2323 2179 
Q 2081 2503 1697 2503 
Q 1625 2503 1561 2493 
Q 1497 2484 1442 2461 
Q 1388 2438 1341 2416 
Q 1294 2394 1251 2366 
Q 1209 2338 1178 2311 
Q 1147 2284 1117 2253 
Q 1088 2222 1072 2201 
Q 1056 2181 1038 2163 
L 1019 2138 
L 1019 806 
z
" transform="scale(0.015625)"/>
    </defs>
    <use xlink:href="#CMUSansSerif-48"/>
    <use xlink:href="#CMUSansSerif-69" x="70.751953"/>
    <use xlink:href="#CMUSansSerif-73" x="94.628906"/>
    <use xlink:href="#CMUSansSerif-74" x="132.910156"/>
    <use xlink:href="#CMUSansSerif-6f" x="168.994141"/>
    <use xlink:href="#CMUSansSerif-67" x="218.994141"/>
    <use xlink:href="#CMUSansSerif-72" x="268.994141"/>
    <use xlink:href="#CMUSansSerif-61" x="303.173828"/>
    <use xlink:href="#CMUSansSerif-6d" x="351.171875"/>
    <use xlink:href="#CMUSansSerif-20" x="430.566406"/>
    <use xlink:href="#CMUSansSerif-6f" x="463.818359"/>
    <use xlink:href="#CMUSansSerif-66" x="513.818359"/>
    <use xlink:href="#CMUSansSerif-20" x="544.287109"/>
    <use xlink:href="#CMUSansSerif-4e" x="577.539062"/>
    <use xlink:href="#CMUSansSerif-75" x="648.291016"/>
    <use xlink:href="#CMUSansSerif-6d" x="699.951172"/>
    <use xlink:href="#CMUSansSerif-62" x="779.345703"/>
    <use xlink:href="#CMUSansSerif-65" x="831.005859"/>
    <use xlink:href="#CMUSansSerif-72" x="875.390625"/>
    <use xlink:href="#CMUSansSerif-20" x="909.570312"/>
    <use xlink:href="#CMUSansSerif-6f" x="942.822266"/>
    <use xlink:href="#CMUSansSerif-66" x="992.822266"/>
    <use xlink:href="#CMUSansSerif-20" x="1023.291016"/>
    <use xlink:href="#CMUSansSerif-44" x="1056.542969"/>
    <use xlink:href="#CMUSansSerif-69" x="1128.710938"/>
    <use xlink:href="#CMUSansSerif-73" x="1152.587891"/>
    <use xlink:href="#CMUSansSerif-63" x="1190.869141"/>
    <use xlink:href="#CMUSansSerif-75" x="1235.253906"/>
    <use xlink:href="#CMUSansSerif-73" x="1286.914062"/>
    <use xlink:href="#CMUSansSerif-73" x="1325.195312"/>
    <use xlink:href="#CMUSansSerif-69" x="1363.476562"/>
    <use xlink:href="#CMUSansSerif-6f" x="1387.353516"/>
    <use xlink:href="#CMUSansSerif-6e" x="1437.353516"/>
    <use xlink:href="#CMUSansSerif-73" x="1489.013672"/>
    <use xlink:href="#CMUSansSerif-20" x="1527.294922"/>
    <use xlink:href="#CMUSansSerif-70" x="1560.546875"/>
    <use xlink:href="#CMUSansSerif-65" x="1612.207031"/>
    <use xlink:href="#CMUSansSerif-72" x="1656.591797"/>
    <use xlink:href="#CMUSansSerif-20" x="1690.771484"/>
    <use xlink:href="#CMUSansSerif-41" x="1724.023438"/>
    <use xlink:href="#CMUSansSerif-75" x="1790.722656"/>
    <use xlink:href="#CMUSansSerif-74" x="1842.382812"/>
    <use xlink:href="#CMUSansSerif-68" x="1878.466797"/>
    <use xlink:href="#CMUSansSerif-6f" x="1930.126953"/>
    <use xlink:href="#CMUSansSerif-72" x="1980.126953"/>
   </g>
  </g>
 </g>
 <defs>
  <clipPath id="p541406362f">
   <rect x="53.402813" y="32.4" width="446.4" height="271.8"/>
  </clipPath>
 </defs>
</svg>
